%TF.GenerationSoftware,KiCad,Pcbnew,9.0.1*%
%TF.CreationDate,2025-05-08T23:40:52+03:00*%
%TF.ProjectId,BLDC_4,424c4443-5f34-42e6-9b69-6361645f7063,A*%
%TF.SameCoordinates,Original*%
%TF.FileFunction,Copper,L2,Inr*%
%TF.FilePolarity,Positive*%
%FSLAX46Y46*%
G04 Gerber Fmt 4.6, Leading zero omitted, Abs format (unit mm)*
G04 Created by KiCad (PCBNEW 9.0.1) date 2025-05-08 23:40:52*
%MOMM*%
%LPD*%
G01*
G04 APERTURE LIST*
%TA.AperFunction,ComponentPad*%
%ADD10C,4.064000*%
%TD*%
%TA.AperFunction,ComponentPad*%
%ADD11O,1.524000X3.048000*%
%TD*%
%TA.AperFunction,ComponentPad*%
%ADD12C,1.300480*%
%TD*%
%TA.AperFunction,ComponentPad*%
%ADD13R,1.699260X1.198880*%
%TD*%
%TA.AperFunction,ComponentPad*%
%ADD14O,1.699260X1.198880*%
%TD*%
%TA.AperFunction,ComponentPad*%
%ADD15R,1.300000X1.300000*%
%TD*%
%TA.AperFunction,ComponentPad*%
%ADD16C,1.300000*%
%TD*%
%TA.AperFunction,ViaPad*%
%ADD17C,0.800000*%
%TD*%
%TA.AperFunction,ViaPad*%
%ADD18C,0.889000*%
%TD*%
%TA.AperFunction,ViaPad*%
%ADD19C,1.524000*%
%TD*%
%TA.AperFunction,ViaPad*%
%ADD20C,0.700000*%
%TD*%
%TA.AperFunction,ViaPad*%
%ADD21C,0.300000*%
%TD*%
%TA.AperFunction,ViaPad*%
%ADD22C,0.685800*%
%TD*%
%TA.AperFunction,Conductor*%
%ADD23C,1.270000*%
%TD*%
%TA.AperFunction,Conductor*%
%ADD24C,0.508000*%
%TD*%
%TA.AperFunction,Conductor*%
%ADD25C,1.016000*%
%TD*%
%TA.AperFunction,Conductor*%
%ADD26C,0.635000*%
%TD*%
%TA.AperFunction,Conductor*%
%ADD27C,0.254000*%
%TD*%
%TA.AperFunction,Conductor*%
%ADD28C,0.203200*%
%TD*%
%TA.AperFunction,Conductor*%
%ADD29C,0.304800*%
%TD*%
G04 APERTURE END LIST*
D10*
%TO.N,N/C*%
%TO.C,1PIN*%
X92000000Y-83000000D03*
%TD*%
%TO.N,N/C*%
%TO.C,1PIN*%
X103500000Y-83000000D03*
%TD*%
D11*
%TO.N,Net-(K1-P1)*%
%TO.C,K1*%
X108712000Y-136398000D03*
%TO.N,+5V*%
X111252000Y-136398000D03*
%TO.N,GND*%
X113792000Y-136398000D03*
%TD*%
D12*
%TO.N,+5V*%
%TO.C,P2*%
X82098740Y-137200000D03*
%TO.N,/Filters/TEMP_MOTOR*%
X84100260Y-137200000D03*
%TO.N,/Filters/HALL1_IN*%
X86099240Y-137200000D03*
%TO.N,/Filters/HALL2_IN*%
X88100760Y-137200000D03*
%TO.N,/Filters/HALL3_IN*%
X90099740Y-137200000D03*
%TO.N,GND*%
X92101260Y-137200000D03*
%TD*%
%TO.N,VCC*%
%TO.C,P9*%
X114300000Y-122252740D03*
%TO.N,SWCLK*%
X114300000Y-124254260D03*
%TO.N,GND*%
X114300000Y-126253240D03*
%TO.N,SWDIO*%
X114300000Y-128254760D03*
%TO.N,NRST*%
X114300000Y-130253740D03*
%TO.N,unconnected-(P9-Pad6)*%
X114300000Y-132255260D03*
%TD*%
D13*
%TO.N,GND*%
%TO.C,P1*%
X80450000Y-119728280D03*
D14*
%TO.N,/CAN bus transceiver/CANL*%
X80450000Y-117726760D03*
%TO.N,/CAN bus transceiver/CANH*%
X80450000Y-115725240D03*
%TO.N,+5V*%
X80450000Y-113726260D03*
%TD*%
D10*
%TO.N,N/C*%
%TO.C,1PIN*%
X114410000Y-161810000D03*
%TD*%
%TO.N,N/C*%
%TO.C,1PIN*%
X81450000Y-162040000D03*
%TD*%
D15*
%TO.N,+5V*%
%TO.C,P3*%
X114300000Y-118018560D03*
D16*
%TO.N,VCC*%
X114300000Y-116017040D03*
%TO.N,GND*%
X114300000Y-114015520D03*
%TO.N,/SCK_ADC_EXT*%
X114300000Y-112016540D03*
%TO.N,/TX_SDA*%
X114300000Y-110015020D03*
%TO.N,/RX_SCL_MOSI*%
X114300000Y-108013500D03*
%TO.N,/MISO_RX_SCL*%
X114300000Y-106014520D03*
%TD*%
D17*
%TO.N,+5V*%
X79400000Y-127800000D03*
X88900000Y-117729000D03*
X85979000Y-114935000D03*
X88900000Y-118800000D03*
%TO.N,GND*%
X110871000Y-119380000D03*
X90255293Y-131671345D03*
X99314000Y-117475000D03*
D18*
X90551000Y-110490012D03*
D17*
X86300000Y-126200000D03*
X97028000Y-123063000D03*
X93058646Y-128512644D03*
X101473000Y-118237000D03*
X84928238Y-131104499D03*
D19*
X93472000Y-103251000D03*
X94996000Y-103251000D03*
D17*
X107817006Y-124617006D03*
D20*
X105499266Y-146501515D03*
X86251900Y-152327900D03*
D17*
X109782385Y-122455968D03*
D19*
X94996000Y-106299000D03*
X93472000Y-106299000D03*
D17*
X97293074Y-135397475D03*
X91823218Y-122684218D03*
X80600000Y-121900000D03*
X110871000Y-118364000D03*
X98552000Y-116840000D03*
D19*
X94996000Y-104775000D03*
D17*
X81800000Y-112800000D03*
X87640000Y-131790000D03*
X103759000Y-115189000D03*
D19*
X93472000Y-104775000D03*
D17*
X102793800Y-131826000D03*
X103709331Y-113221584D03*
D21*
X92101260Y-137200000D03*
D17*
X90072228Y-127048237D03*
%TO.N,NRST*%
X93472000Y-137541000D03*
X99015248Y-131987435D03*
%TO.N,/Filters/TEMP_MOTOR*%
X103708200Y-132054600D03*
%TO.N,Net-(U2-PH0-OSC_IN)*%
X97385541Y-132503967D03*
%TO.N,Net-(U2-VCAP1)*%
X108516624Y-127840502D03*
%TO.N,Net-(U2-VCAP2)*%
X97438256Y-126582375D03*
%TO.N,Net-(U2-PH1-OSC_OUT)*%
X98582646Y-134220709D03*
%TO.N,Net-(U3-GVDD)*%
X100831698Y-122555000D03*
%TO.N,Net-(U3-DVDD)*%
X105537000Y-121539000D03*
X100132231Y-123334253D03*
%TO.N,Net-(D4-K)*%
X91948000Y-114935000D03*
X90805000Y-114935000D03*
D20*
%TO.N,/Battery voltage control/Cell6_ADC*%
X105360000Y-130670000D03*
X98385435Y-135667043D03*
X91247902Y-146187902D03*
%TO.N,/Battery voltage control/Cell5_ADC*%
X93704900Y-146258780D03*
D17*
X93870000Y-145630082D03*
D22*
X108100900Y-130924300D03*
D20*
%TO.N,/Battery voltage control/Cell4_ADC*%
X101637082Y-139027428D03*
X95251900Y-146277900D03*
%TO.N,/Battery voltage control/Cell3_ADC*%
X97867644Y-140466893D03*
X96904900Y-146358780D03*
X102333352Y-135379753D03*
%TO.N,/Battery voltage control/Cell2_ADC*%
X99750192Y-139911600D03*
D17*
X98504900Y-148001400D03*
D20*
%TO.N,/Battery voltage control/Cell1_ADC*%
X100556964Y-133728643D03*
X99867179Y-145909293D03*
D17*
X96267824Y-154724900D03*
D20*
X100699065Y-139957915D03*
D17*
%TO.N,SWCLK*%
X96972825Y-127435584D03*
%TO.N,SWDIO*%
X98171000Y-128143000D03*
%TO.N,VCC*%
X112394988Y-131318000D03*
X109373881Y-127003813D03*
X91200000Y-119400000D03*
X96277048Y-126260110D03*
X105798733Y-125707587D03*
X95495770Y-137468694D03*
X92714836Y-129504762D03*
X108760000Y-138500000D03*
X98552000Y-122301000D03*
D19*
%TO.N,V_SUPPLY*%
X80010000Y-110744000D03*
X83566000Y-107188000D03*
X81788000Y-110744000D03*
D17*
X116100000Y-101300000D03*
D19*
X81788000Y-107188000D03*
D17*
X111125000Y-113411000D03*
X96647000Y-114046000D03*
D19*
X81788000Y-108966000D03*
D17*
X116078000Y-100330000D03*
D19*
X81788000Y-105410000D03*
X80010000Y-108966000D03*
X83566000Y-108966000D03*
X80010000Y-107188000D03*
X83566000Y-110744000D03*
X83566000Y-105410000D03*
D17*
X83900000Y-125300000D03*
D19*
X80010000Y-105410000D03*
D17*
X93980000Y-113411000D03*
X110727510Y-110370332D03*
X116078000Y-99314000D03*
%TO.N,/MCU/AN_IN*%
X82600000Y-128300000D03*
X101600000Y-138085820D03*
%TO.N,/MCU/SERVO*%
X103653605Y-130223083D03*
D19*
%TO.N,/Mosfet driver/H1_VS*%
X110744000Y-86868000D03*
X112522000Y-86868000D03*
X110744000Y-88646000D03*
X106934000Y-90424000D03*
X106934000Y-86868000D03*
X112522000Y-88646000D03*
X108966000Y-88646000D03*
X111252000Y-81534000D03*
X108966000Y-90424000D03*
D17*
X100203000Y-110490012D03*
D19*
X112522000Y-90424000D03*
X106934000Y-88646000D03*
X108966000Y-86868000D03*
X109474000Y-81534000D03*
D17*
X86741000Y-125095000D03*
D19*
X107696000Y-81534000D03*
X110744000Y-90424000D03*
%TO.N,/Mosfet driver/H2_VS*%
X95758000Y-90678000D03*
X96139000Y-81534000D03*
X93980000Y-88900000D03*
X97790000Y-87122000D03*
X99822000Y-90678000D03*
D17*
X105410000Y-103632000D03*
D19*
X95758000Y-87122000D03*
X97790000Y-81534000D03*
X93980000Y-87122000D03*
X97790000Y-90678000D03*
X93980000Y-90678000D03*
X99441000Y-81534000D03*
D17*
X91200000Y-123600000D03*
D19*
X95758000Y-88900000D03*
X99822000Y-87122000D03*
X99822000Y-88900000D03*
X97790000Y-88900000D03*
%TO.N,/Mosfet driver/H3_VS*%
X82804000Y-89154000D03*
X86868000Y-81534000D03*
X86360000Y-90932000D03*
X81026000Y-90932000D03*
X84582000Y-87122000D03*
D17*
X104500000Y-104000266D03*
D19*
X86360000Y-87122000D03*
X83312000Y-81534000D03*
X85090000Y-81534000D03*
X81026000Y-87122000D03*
X82804000Y-87122000D03*
D17*
X86500000Y-128267478D03*
D19*
X84582000Y-90932000D03*
X81026000Y-89154000D03*
X82804000Y-90932000D03*
D18*
X91440000Y-86868000D03*
D19*
X84582000Y-89154000D03*
X86360000Y-89154000D03*
D17*
%TO.N,/Mosfet driver/H1_LOW*%
X101473000Y-113284000D03*
D18*
X108003411Y-103725057D03*
D17*
%TO.N,/Mosfet driver/H3_LOW*%
X105291353Y-106846343D03*
D18*
X91440000Y-91313000D03*
D17*
%TO.N,/MCU/SENS1*%
X91184077Y-128134077D03*
X105467087Y-138372907D03*
%TO.N,/MCU/SENS2*%
X90932000Y-126492000D03*
X105425200Y-136897946D03*
%TO.N,/Mosfet driver/M_H1*%
X99012291Y-113211397D03*
D18*
X114808000Y-81915000D03*
D17*
%TO.N,/Mosfet driver/M_L1*%
X100441730Y-113235361D03*
X112483130Y-104116822D03*
%TO.N,/MCU/SENS3*%
X91440000Y-124587000D03*
X104961201Y-139293007D03*
%TO.N,/Mosfet driver/M_H2*%
X105537509Y-102507217D03*
D18*
X104394000Y-91694000D03*
D17*
%TO.N,/Mosfet driver/M_L2*%
X102596601Y-113245201D03*
D18*
X103937763Y-101968280D03*
%TO.N,/Mosfet driver/M_H3*%
X91313000Y-90170000D03*
D17*
X106770000Y-113293617D03*
D18*
%TO.N,/Mosfet driver/M_L3*%
X91440000Y-101981000D03*
D17*
X105383273Y-109569220D03*
%TO.N,/Mosfet driver/SH1_A*%
X90424000Y-109220000D03*
X105264351Y-105868904D03*
%TO.N,/Mosfet driver/SH1_B*%
X105266323Y-104825601D03*
X89789000Y-108458000D03*
%TO.N,/Mosfet driver/SH2_A*%
X111506000Y-104902000D03*
%TO.N,/Mosfet driver/SH2_B*%
X111029780Y-106546698D03*
%TO.N,/MCU/DC_CAL*%
X104885226Y-125189889D03*
X100505015Y-118375283D03*
%TO.N,/MCU/L3*%
X105210834Y-126622117D03*
X107061000Y-118237000D03*
%TO.N,/MCU/L2*%
X104190698Y-127018680D03*
X104902000Y-118364000D03*
%TO.N,/MCU/L1*%
X103885996Y-118364000D03*
X103266363Y-127350000D03*
%TO.N,/MCU/EN_GATE*%
X100006200Y-128585200D03*
X102489000Y-118364000D03*
%TO.N,/MCU/FAULT*%
X96450000Y-118050000D03*
X96387682Y-128943613D03*
%TO.N,/MCU/H1*%
X103378000Y-121412000D03*
X99634514Y-127680795D03*
%TO.N,/Filters/HALL3_OUT*%
X93801518Y-129271128D03*
%TO.N,/Filters/HALL2_OUT*%
X93741447Y-132845136D03*
%TO.N,/Filters/HALL1_OUT*%
X89648484Y-132402294D03*
%TO.N,/CAN bus transceiver/CANH*%
X88042352Y-129706470D03*
X88100000Y-123900000D03*
D22*
%TO.N,/MCU/LED_RED*%
X101029900Y-126505691D03*
D17*
%TO.N,/Battery voltage control/Cell5*%
X93795470Y-140789667D03*
%TO.N,/Battery voltage control/Cell2*%
X98720600Y-143377900D03*
X98704898Y-142959790D03*
%TO.N,/Battery voltage control/Cell4*%
X94829376Y-140567700D03*
%TO.N,/Battery voltage control/Cell1*%
X103039398Y-141809309D03*
%TO.N,/Battery voltage control/Cell3*%
X98978021Y-141579191D03*
%TO.N,/MISO_RX_SCL*%
X102834900Y-130880823D03*
%TO.N,/SCK_ADC_EXT*%
X104526068Y-132637441D03*
%TO.N,/TX_SDA*%
X102489000Y-128156220D03*
D20*
%TO.N,/RX_SCL_MOSI*%
X104705046Y-124163198D03*
X109390000Y-113855878D03*
D17*
X101473000Y-128578582D03*
%TO.N,Net-(R3-Pad1)*%
X83900000Y-130100000D03*
%TO.N,Net-(U1-Rs)*%
X84900000Y-132600000D03*
%TO.N,Net-(U3-RT_CLK)*%
X94615000Y-120523000D03*
%TO.N,Net-(R60-Pad1)*%
X101558400Y-150948347D03*
X99080785Y-153749015D03*
D20*
%TO.N,Net-(R62-Pad1)*%
X93651900Y-156277900D03*
D17*
%TO.N,Net-(R63-Pad1)*%
X102426491Y-155555751D03*
%TO.N,Net-(R64-Pad1)*%
X108745674Y-155854503D03*
%TO.N,Net-(R65-Pad1)*%
X108778282Y-145051526D03*
%TO.N,Net-(R66-Pad1)*%
X89851900Y-152127900D03*
%TO.N,Net-(R68-Pad1)*%
X95711900Y-150827900D03*
%TO.N,Net-(R69-Pad1)*%
X100518262Y-150804758D03*
%TO.N,Net-(R70-Pad1)*%
X105189098Y-150408478D03*
%TO.N,Net-(R71-Pad1)*%
X103501900Y-149202900D03*
D20*
%TO.N,/Battery voltage control/Cell3_control*%
X94279502Y-126680000D03*
D21*
X91230000Y-136080000D03*
D20*
X101200000Y-142000000D03*
X92060000Y-140200000D03*
X88400000Y-130990000D03*
D21*
X102310000Y-152060000D03*
D20*
%TO.N,/Battery voltage control/Cell1_control*%
X108801900Y-147467900D03*
X89296551Y-130028687D03*
X103615525Y-139675525D03*
X94005400Y-130759200D03*
%TO.N,/Battery voltage control/Cell2_control*%
X103545555Y-151910390D03*
X97551906Y-129853756D03*
%TO.N,/Battery voltage control/Cell4_control*%
X105480000Y-129890000D03*
X95711900Y-156327900D03*
%TO.N,/Battery voltage control/Cell5_control*%
X104200000Y-150550000D03*
X104000000Y-142000000D03*
X98544593Y-138154421D03*
%TO.N,/Battery voltage control/Cell6_control*%
X97476900Y-150230000D03*
X96920000Y-140400000D03*
X97037693Y-138182115D03*
%TD*%
D23*
%TO.N,+5V*%
X80518000Y-123698000D02*
X86487000Y-117729000D01*
X86487000Y-117729000D02*
X88900000Y-117729000D01*
X80518000Y-127800000D02*
X80518000Y-123698000D01*
X80518000Y-133718000D02*
X82103522Y-135303522D01*
X82103522Y-135303522D02*
X82103522Y-135303663D01*
D24*
X79400000Y-127800000D02*
X80518000Y-127800000D01*
D23*
X80518000Y-127800000D02*
X80518000Y-133718000D01*
D25*
X114300000Y-119634000D02*
X115824000Y-121158000D01*
X115824000Y-121158000D02*
X115824000Y-132969000D01*
X115824000Y-132969000D02*
X114935000Y-133858000D01*
X114935000Y-133858000D02*
X112395000Y-133858000D01*
X112395000Y-133858000D02*
X111252000Y-135001000D01*
X111252000Y-135001000D02*
X111252000Y-136398000D01*
D23*
X82098740Y-137200000D02*
X82103522Y-135303663D01*
D25*
X114300000Y-118031260D02*
X114300000Y-119634000D01*
D26*
X88900000Y-117729000D02*
X88900000Y-118800000D01*
D27*
%TO.N,GND*%
X91414600Y-127304800D02*
X92252800Y-126466600D01*
X90328791Y-127304800D02*
X91414600Y-127304800D01*
X92278200Y-123139200D02*
X91823218Y-122684218D01*
X92252800Y-126466600D02*
X92278200Y-126466600D01*
D23*
X93472000Y-104775000D02*
X93472000Y-106299000D01*
D27*
X92278200Y-126466600D02*
X92278200Y-123139200D01*
X90072228Y-127048237D02*
X90328791Y-127304800D01*
D28*
%TO.N,/Battery voltage control/Cell6_ADC*%
X97845287Y-136381000D02*
X98525983Y-136381000D01*
X98385435Y-136240452D02*
X98385435Y-135667043D01*
X95760000Y-140559992D02*
X95760000Y-138466287D01*
X91247902Y-145072090D02*
X95760000Y-140559992D01*
X91247902Y-146187902D02*
X91247902Y-145072090D01*
X98525983Y-136381000D02*
X98385435Y-136240452D01*
X95760000Y-138466287D02*
X97845287Y-136381000D01*
%TO.N,/Battery voltage control/Cell5_ADC*%
X106950000Y-132075200D02*
X108100900Y-130924300D01*
X106950000Y-151997166D02*
X106950000Y-150480000D01*
X93870000Y-145630082D02*
X93870000Y-155377521D01*
X106950000Y-150480000D02*
X106950000Y-133650000D01*
X101988866Y-156958300D02*
X106950000Y-151997166D01*
X95450779Y-156958300D02*
X101988866Y-156958300D01*
X106950000Y-133650000D02*
X106950000Y-132075200D01*
X93870000Y-155377521D02*
X95450779Y-156958300D01*
%TO.N,/Battery voltage control/Cell4_ADC*%
X101466800Y-138876800D02*
X101558400Y-138968400D01*
X95251900Y-141948884D02*
X96218400Y-140982384D01*
X95251900Y-146277900D02*
X95251900Y-141948884D01*
X98301600Y-138968400D02*
X98762100Y-138968400D01*
X97571600Y-139698400D02*
X98301600Y-138968400D01*
X96629387Y-139698400D02*
X97571600Y-139698400D01*
X98853700Y-138876800D02*
X101466800Y-138876800D01*
X98762100Y-138968400D02*
X98853700Y-138876800D01*
X96218400Y-140982384D02*
X96218400Y-140109387D01*
X96218400Y-140109387D02*
X96629387Y-139698400D01*
%TO.N,/Battery voltage control/Cell3_ADC*%
X102950000Y-138566716D02*
X102950000Y-135952552D01*
X101886688Y-139630028D02*
X102950000Y-138566716D01*
X101034482Y-139277034D02*
X101387476Y-139630028D01*
X98952966Y-139277034D02*
X101034482Y-139277034D01*
X101387476Y-139630028D02*
X101886688Y-139630028D01*
X102950000Y-135952552D02*
X102377201Y-135379753D01*
X97867644Y-140466893D02*
X97867644Y-140362356D01*
X102377201Y-135379753D02*
X102333352Y-135379753D01*
X97867644Y-140362356D02*
X98952966Y-139277034D01*
%TO.N,/Battery voltage control/Cell2_ADC*%
X99428400Y-139911600D02*
X99750192Y-139911600D01*
X97969000Y-147465500D02*
X97969000Y-141371000D01*
X98504900Y-148001400D02*
X97969000Y-147465500D01*
X97969000Y-141371000D02*
X99428400Y-139911600D01*
%TO.N,/Battery voltage control/Cell1_ADC*%
X103878242Y-136043164D02*
X102435940Y-134600862D01*
X100731150Y-139990000D02*
X102308837Y-139990000D01*
X100853523Y-133728643D02*
X100556964Y-133728643D01*
X103958286Y-137747943D02*
X104039019Y-137667209D01*
X103916400Y-137522912D02*
X103916400Y-136987678D01*
X103958287Y-138340550D02*
X103958286Y-137747943D01*
X104039019Y-137645531D02*
X103916400Y-137522912D01*
X101725742Y-134600862D02*
X100853523Y-133728643D01*
X99867179Y-145909293D02*
X99867179Y-140777903D01*
X99867179Y-140777903D02*
X100687167Y-139957915D01*
X102435940Y-134600862D02*
X101725742Y-134600862D01*
X100699065Y-139957915D02*
X100731150Y-139990000D01*
X103878242Y-136949520D02*
X103878242Y-136043164D01*
X100687167Y-139957915D02*
X100699065Y-139957915D01*
X102308837Y-139990000D02*
X103958287Y-138340550D01*
X103916400Y-136987678D02*
X103878242Y-136949520D01*
X104039019Y-137667209D02*
X104039019Y-137645531D01*
D29*
%TO.N,VCC*%
X111079065Y-131318000D02*
X112394988Y-131318000D01*
X94411411Y-129796000D02*
X94133883Y-130073528D01*
X108250000Y-138500000D02*
X107385427Y-137635427D01*
X114300000Y-122252740D02*
X109548927Y-127003813D01*
X93527102Y-126368345D02*
X93527102Y-126978165D01*
X93469153Y-130073528D02*
X93345625Y-129950000D01*
X107385427Y-137635427D02*
X107385427Y-135011638D01*
X107385427Y-135011638D02*
X111079065Y-131318000D01*
X96277048Y-126260110D02*
X95944538Y-125927600D01*
X98850000Y-128544698D02*
X98293342Y-129101356D01*
X93200000Y-129950000D02*
X92754762Y-129504762D01*
X92219791Y-128285476D02*
X92219791Y-128969791D01*
X92219791Y-128969791D02*
X92714836Y-129464836D01*
X98552000Y-122866685D02*
X99580201Y-123894886D01*
X92754762Y-129504762D02*
X92714836Y-129504762D01*
X99670000Y-126782022D02*
X98850000Y-127602022D01*
X93967847Y-125927600D02*
X93527102Y-126368345D01*
X95944538Y-125927600D02*
X93967847Y-125927600D01*
X98850000Y-127602022D02*
X98850000Y-128544698D01*
X110206380Y-127654416D02*
X109555777Y-127003813D01*
X112394988Y-130744988D02*
X110206380Y-128556380D01*
X109548927Y-127003813D02*
X109373881Y-127003813D01*
X109555777Y-127003813D02*
X109373881Y-127003813D01*
X93527102Y-126978165D02*
X92219791Y-128285476D01*
X98552000Y-122301000D02*
X98552000Y-122866685D01*
X110206380Y-128556380D02*
X110206380Y-127654416D01*
X93345625Y-129950000D02*
X93200000Y-129950000D01*
X99670000Y-126158312D02*
X99670000Y-126782022D01*
X112394988Y-131318000D02*
X112394988Y-130744988D01*
X94133883Y-130073528D02*
X93469153Y-130073528D01*
X99580201Y-126068513D02*
X99670000Y-126158312D01*
X108760000Y-138500000D02*
X108250000Y-138500000D01*
X92714836Y-129464836D02*
X92714836Y-129504762D01*
X96545607Y-129796000D02*
X94411411Y-129796000D01*
X99580201Y-123894886D02*
X99580201Y-126068513D01*
X97240251Y-129101356D02*
X96545607Y-129796000D01*
X98293342Y-129101356D02*
X97240251Y-129101356D01*
D25*
%TO.N,V_SUPPLY*%
X100457000Y-116586000D02*
X97917000Y-114046000D01*
X111049589Y-111258096D02*
X111049589Y-110692411D01*
X111125000Y-109914983D02*
X111125000Y-111453556D01*
X108458000Y-116586000D02*
X100457000Y-116586000D01*
X111125000Y-111333507D02*
X111049589Y-111258096D01*
X116078000Y-100330000D02*
X116078000Y-101278000D01*
X116078000Y-101278000D02*
X116100000Y-101300000D01*
X111125000Y-110051315D02*
X111049589Y-110126726D01*
X111125000Y-113411000D02*
X111125000Y-113919000D01*
X97917000Y-114046000D02*
X96647000Y-114046000D01*
X115570000Y-104521000D02*
X113792000Y-104521000D01*
X116100000Y-103991000D02*
X115570000Y-104521000D01*
X111125000Y-111453556D02*
X111125000Y-111333507D01*
X110971116Y-110126726D02*
X110727510Y-110370332D01*
X111125000Y-109914983D02*
X111125000Y-110051315D01*
X111049589Y-110692411D02*
X110727510Y-110370332D01*
X111049589Y-110126726D02*
X110971116Y-110126726D01*
X111125000Y-113919000D02*
X108458000Y-116586000D01*
X113792000Y-104521000D02*
X112903000Y-105410000D01*
X111125000Y-109093000D02*
X111125000Y-109914983D01*
X112903000Y-105410000D02*
X112903000Y-107315000D01*
X116100000Y-101300000D02*
X116100000Y-103991000D01*
X116078000Y-99314000D02*
X116078000Y-100330000D01*
X111125000Y-111453556D02*
X111125000Y-113411000D01*
X112903000Y-107315000D02*
X111125000Y-109093000D01*
D27*
%TO.N,/MCU/AN_IN*%
X86863000Y-131975106D02*
X86863000Y-132211844D01*
X98009394Y-135014950D02*
X101250371Y-135014950D01*
X87554894Y-132667000D02*
X88509294Y-133621400D01*
X87318156Y-132667000D02*
X87554894Y-132667000D01*
X101600000Y-135364579D02*
X101600000Y-138085820D01*
X82600000Y-128300000D02*
X83187894Y-128300000D01*
X88509294Y-133621400D02*
X92705978Y-133621400D01*
X101250371Y-135014950D02*
X101600000Y-135364579D01*
X93273303Y-133975336D02*
X96969780Y-133975336D01*
X92936566Y-133638600D02*
X93273303Y-133975336D01*
X86863000Y-132211844D02*
X87318156Y-132667000D01*
X96969780Y-133975336D02*
X98009394Y-135014950D01*
X92705978Y-133621400D02*
X92723178Y-133638600D01*
X83187894Y-128300000D02*
X86863000Y-131975106D01*
X92723178Y-133638600D02*
X92936566Y-133638600D01*
%TO.N,/Mosfet driver/H1_VS*%
X86741000Y-124005000D02*
X87683909Y-123062091D01*
D26*
X98367327Y-110490012D02*
X99637315Y-110490012D01*
D27*
X89179249Y-123062091D02*
X94869000Y-117372340D01*
D26*
X93472000Y-110490000D02*
X97374851Y-110490000D01*
X90790000Y-85710000D02*
X89154000Y-87346000D01*
X97374851Y-110490000D02*
X98679000Y-110490000D01*
D27*
X94869000Y-112995851D02*
X97374851Y-110490000D01*
X87683909Y-123062091D02*
X89179249Y-123062091D01*
D26*
X105776000Y-85710000D02*
X90790000Y-85710000D01*
X89154000Y-106172000D02*
X93472000Y-110490000D01*
X89154000Y-87346000D02*
X89154000Y-106172000D01*
D27*
X86741000Y-125095000D02*
X86741000Y-124005000D01*
D26*
X106934000Y-86868000D02*
X105776000Y-85710000D01*
X99637315Y-110490012D02*
X100203000Y-110490012D01*
D27*
X94869000Y-117372340D02*
X94869000Y-112995851D01*
D26*
%TO.N,/Mosfet driver/H2_VS*%
X107100000Y-102691825D02*
X106159825Y-103632000D01*
X99822000Y-88900000D02*
X103378000Y-88900000D01*
X106159825Y-103632000D02*
X105410000Y-103632000D01*
D27*
X95377000Y-117729000D02*
X95377000Y-113411000D01*
X105993000Y-113615461D02*
X106448156Y-114070617D01*
D26*
X103378000Y-88900000D02*
X107100000Y-92622000D01*
D27*
X106448156Y-114070617D02*
X107086970Y-114070617D01*
X107086970Y-114070617D02*
X108077000Y-113080587D01*
D26*
X106159825Y-103632000D02*
X105594140Y-103632000D01*
D27*
X108077000Y-113080587D02*
X108077000Y-106114860D01*
X108077000Y-106114860D02*
X105594140Y-103632000D01*
X90800001Y-123200001D02*
X90800001Y-122305999D01*
X90800001Y-122305999D02*
X95377000Y-117729000D01*
X91200000Y-123600000D02*
X90800001Y-123200001D01*
X105993000Y-112978000D02*
X105993000Y-113615461D01*
X104406689Y-111391689D02*
X105993000Y-112978000D01*
X97396311Y-111391689D02*
X104406689Y-111391689D01*
D26*
X107100000Y-92622000D02*
X107100000Y-102691825D01*
D27*
X95377000Y-113411000D02*
X97396311Y-111391689D01*
D26*
%TO.N,/Mosfet driver/H3_VS*%
X99940734Y-99441000D02*
X104100001Y-103600267D01*
X91440000Y-86868000D02*
X92583000Y-88011000D01*
X94107000Y-99441000D02*
X99940734Y-99441000D01*
X92583000Y-88011000D02*
X92583000Y-97917000D01*
X104100001Y-103600267D02*
X104500000Y-104000266D01*
X92583000Y-97917000D02*
X94107000Y-99441000D01*
%TO.N,/Mosfet driver/H3_LOW*%
X91440000Y-98425000D02*
X93535500Y-100520500D01*
X93535500Y-100520500D02*
X98399825Y-100520500D01*
X91440000Y-91313000D02*
X91440000Y-98425000D01*
X98399825Y-100520500D02*
X104725668Y-106846343D01*
X104725668Y-106846343D02*
X105291353Y-106846343D01*
D27*
%TO.N,/MCU/SENS1*%
X105467087Y-138372907D02*
X105543293Y-138372907D01*
X105917000Y-137999200D02*
X105917000Y-137642600D01*
X105543293Y-138372907D02*
X105917000Y-137999200D01*
%TO.N,/MCU/SENS2*%
X102731062Y-133465062D02*
X105387042Y-136121042D01*
X89281000Y-127691660D02*
X93353340Y-131764000D01*
X99791707Y-130710241D02*
X101606825Y-132525359D01*
X89750384Y-126271237D02*
X89281000Y-126740621D01*
X105387042Y-136121042D02*
X105387042Y-136425856D01*
X96159944Y-132101398D02*
X96948644Y-131312698D01*
X94630927Y-131814000D02*
X94918325Y-132101398D01*
X98655602Y-130710241D02*
X99791707Y-130710241D01*
X94132658Y-131764000D02*
X94182658Y-131814000D01*
X98053145Y-131312698D02*
X98655602Y-130710241D01*
X105387042Y-136425856D02*
X105424985Y-136463799D01*
X90711237Y-126271237D02*
X89750384Y-126271237D01*
X93353340Y-131764000D02*
X94132658Y-131764000D01*
X94918325Y-132101398D02*
X96159944Y-132101398D01*
X102121462Y-133465062D02*
X102731062Y-133465062D01*
X101606825Y-132525359D02*
X101606825Y-132950425D01*
X89281000Y-126740621D02*
X89281000Y-127691660D01*
X90932000Y-126492000D02*
X90711237Y-126271237D01*
X105425200Y-136636689D02*
X105425200Y-136897946D01*
X105424985Y-136463799D02*
X105424985Y-136636474D01*
X105424985Y-136636474D02*
X105425200Y-136636689D01*
X96948644Y-131312698D02*
X98053145Y-131312698D01*
X101606825Y-132950425D02*
X102121462Y-133465062D01*
X94182658Y-131814000D02*
X94630927Y-131814000D01*
D26*
%TO.N,/Mosfet driver/M_H1*%
X109340699Y-112657638D02*
X109340699Y-104167660D01*
X100082688Y-112141000D02*
X104013000Y-112141000D01*
X107063337Y-114935000D02*
X109340699Y-112657638D01*
X109340699Y-104167660D02*
X114808000Y-98700359D01*
X99012291Y-113211397D02*
X100082688Y-112141000D01*
X114808000Y-98700359D02*
X114808000Y-81915000D01*
X105029000Y-113157000D02*
X105029000Y-113792000D01*
X105029000Y-113792000D02*
X106172000Y-114935000D01*
X106172000Y-114935000D02*
X107063337Y-114935000D01*
X104013000Y-112141000D02*
X105029000Y-113157000D01*
D27*
%TO.N,/MCU/SENS3*%
X97088184Y-131744500D02*
X98192685Y-131744500D01*
X93146680Y-132168000D02*
X93965316Y-132168000D01*
X104778200Y-137349790D02*
X104778200Y-137604198D01*
X104690087Y-138694751D02*
X105065332Y-139069997D01*
X105065332Y-139069997D02*
X105033285Y-139102044D01*
X104770820Y-137924765D02*
X104770820Y-137970330D01*
X104648200Y-137219790D02*
X104778200Y-137349790D01*
X104610042Y-136646398D02*
X104648200Y-136684556D01*
X88773000Y-127794320D02*
X93146680Y-132168000D01*
X89583042Y-125867237D02*
X88773000Y-126677279D01*
X102034504Y-133869062D02*
X102637506Y-133869062D01*
X90874315Y-124587000D02*
X89594078Y-125867237D01*
X102637506Y-133869062D02*
X104610042Y-135841598D01*
X104690087Y-138051063D02*
X104690087Y-138694751D01*
X104648200Y-136684556D02*
X104648200Y-137219790D01*
X88773000Y-126677279D02*
X88773000Y-127794320D01*
X104610042Y-135841598D02*
X104610042Y-136646398D01*
X104778200Y-137604198D02*
X104853798Y-137679796D01*
X101202825Y-132692701D02*
X101202825Y-133037383D01*
X98822944Y-131114241D02*
X99624365Y-131114241D01*
X104853798Y-137679796D02*
X104853798Y-137841787D01*
X98192685Y-131744500D02*
X98822944Y-131114241D01*
X104853798Y-137841787D02*
X104770820Y-137924765D01*
X101202825Y-133037383D02*
X102034504Y-133869062D01*
X99624365Y-131114241D02*
X101202825Y-132692701D01*
X89594078Y-125867237D02*
X89583042Y-125867237D01*
X94463585Y-132218000D02*
X94750983Y-132505398D01*
X91440000Y-124587000D02*
X90874315Y-124587000D01*
X104770820Y-137970330D02*
X104690087Y-138051063D01*
X105033285Y-139220923D02*
X104961201Y-139293007D01*
X96327286Y-132505398D02*
X97088184Y-131744500D01*
X93965316Y-132168000D02*
X94015316Y-132218000D01*
X94750983Y-132505398D02*
X96327286Y-132505398D01*
X105033285Y-139102044D02*
X105033285Y-139220923D01*
X94015316Y-132218000D02*
X94463585Y-132218000D01*
D26*
%TO.N,/Mosfet driver/M_H2*%
X105537509Y-92837509D02*
X105537509Y-101941532D01*
X105537509Y-101941532D02*
X105537509Y-102507217D01*
X104394000Y-91694000D02*
X105537509Y-92837509D01*
%TO.N,/Mosfet driver/M_H3*%
X90297000Y-105918029D02*
X92074971Y-107696000D01*
X90684383Y-90170000D02*
X90297000Y-90557383D01*
X90297000Y-90557383D02*
X90297000Y-105918029D01*
X92074971Y-107696000D02*
X101798954Y-107696000D01*
X101798954Y-107696000D02*
X106770000Y-112667046D01*
X91313000Y-90170000D02*
X90684383Y-90170000D01*
X106770000Y-112667046D02*
X106770000Y-113293617D01*
%TO.N,/Mosfet driver/M_L3*%
X97795053Y-101981000D02*
X104983274Y-109169221D01*
X91440000Y-101981000D02*
X97795053Y-101981000D01*
X104983274Y-109169221D02*
X105383273Y-109569220D01*
D27*
%TO.N,/MCU/DC_CAL*%
X100505015Y-118375283D02*
X100505015Y-117809598D01*
X105185481Y-124889634D02*
X104885226Y-125189889D01*
X107569000Y-122871480D02*
X105550846Y-124889634D01*
X100782414Y-117532199D02*
X105086199Y-117532199D01*
X100505015Y-117809598D02*
X100782414Y-117532199D01*
X105550846Y-124889634D02*
X105185481Y-124889634D01*
X107569000Y-120015000D02*
X107569000Y-122871480D01*
X105086199Y-117532199D02*
X107569000Y-120015000D01*
%TO.N,/MCU/L3*%
X106575733Y-126029431D02*
X105983047Y-126622117D01*
X105983047Y-126622117D02*
X105210834Y-126622117D01*
X107061000Y-118237000D02*
X108331000Y-119507000D01*
X108331000Y-123106245D02*
X106575733Y-124861512D01*
X106575733Y-124861512D02*
X106575733Y-126029431D01*
X108331000Y-119507000D02*
X108331000Y-123106245D01*
%TO.N,/MCU/L2*%
X106061155Y-123336219D02*
X104503891Y-123336219D01*
X104243485Y-126965893D02*
X104190698Y-127018680D01*
X106934000Y-120396000D02*
X106934000Y-122463374D01*
X103978046Y-123862064D02*
X103978046Y-126700454D01*
X106934000Y-122463374D02*
X106061155Y-123336219D01*
X104503891Y-123336219D02*
X103978046Y-123862064D01*
X104902000Y-118364000D02*
X106934000Y-120396000D01*
X103978046Y-126700454D02*
X104243485Y-126965893D01*
%TO.N,/MCU/L1*%
X106426000Y-121920000D02*
X105413781Y-122932219D01*
X106426000Y-120904004D02*
X106426000Y-121920000D01*
X105413781Y-122932219D02*
X104273488Y-122932219D01*
X103885996Y-118364000D02*
X106426000Y-120904004D01*
X103266363Y-123939344D02*
X103266363Y-127350000D01*
X104273488Y-122932219D02*
X103266363Y-123939344D01*
%TO.N,/MCU/EN_GATE*%
X102108000Y-127042000D02*
X102108000Y-124460000D01*
X101860000Y-127290000D02*
X102108000Y-127042000D01*
X100006200Y-128585200D02*
X100006200Y-128421156D01*
X101137356Y-127290000D02*
X101860000Y-127290000D01*
X104394000Y-120269000D02*
X102489000Y-118364000D01*
X102108000Y-124460000D02*
X102911822Y-123656178D01*
X104394000Y-122045202D02*
X104394000Y-120269000D01*
X102911822Y-123656178D02*
X102911822Y-123527380D01*
X102911822Y-123527380D02*
X104394000Y-122045202D01*
X100006200Y-128421156D02*
X101137356Y-127290000D01*
%TO.N,/MCU/H1*%
X100040000Y-125730000D02*
X100170000Y-125860000D01*
X100170000Y-127145309D02*
X99634514Y-127680795D01*
X100170000Y-125860000D02*
X100170000Y-127145309D01*
X103378000Y-121412000D02*
X100040000Y-124750000D01*
X100040000Y-124750000D02*
X100040000Y-125730000D01*
%TO.N,/CAN bus transceiver/CANH*%
X88199374Y-129590191D02*
X88192542Y-129590191D01*
X88161424Y-129602484D02*
X88146338Y-129602484D01*
X88292526Y-129537551D02*
X88259004Y-129571073D01*
X88208784Y-129580781D02*
X88199374Y-129590191D01*
X88214441Y-129580781D02*
X88208784Y-129580781D01*
X88180386Y-129594081D02*
X88174554Y-129599913D01*
X88216122Y-129579100D02*
X88214441Y-129580781D01*
X88188652Y-129594081D02*
X88180386Y-129594081D01*
X88100000Y-123900000D02*
X88292526Y-124092526D01*
X88259004Y-129571073D02*
X88229324Y-129571073D01*
X88229324Y-129571073D02*
X88221297Y-129579100D01*
X88174554Y-129599913D02*
X88163995Y-129599913D01*
X88221297Y-129579100D02*
X88216122Y-129579100D01*
X88146338Y-129602484D02*
X88042352Y-129706470D01*
X88163995Y-129599913D02*
X88161424Y-129602484D01*
X88192542Y-129590191D02*
X88188652Y-129594081D01*
X88292526Y-124092526D02*
X88292526Y-129537551D01*
%TO.N,/MISO_RX_SCL*%
X103120850Y-130690930D02*
X103114246Y-130684326D01*
X103120850Y-130690930D02*
X103120850Y-130833900D01*
X112903000Y-121793000D02*
X105926000Y-128770000D01*
X105926000Y-128770000D02*
X104149265Y-128770000D01*
X113905434Y-110998000D02*
X112903000Y-112000434D01*
X104149265Y-128770000D02*
X102834900Y-130084365D01*
X102903942Y-130811781D02*
X102834900Y-130880823D01*
X103114246Y-130721207D02*
X103023672Y-130811781D01*
X114300000Y-106014520D02*
X115316000Y-107030520D01*
X103114246Y-130684326D02*
X103114246Y-130721207D01*
X114730126Y-110998000D02*
X113905434Y-110998000D01*
X103023672Y-130811781D02*
X102903942Y-130811781D01*
X102834900Y-130084365D02*
X102834900Y-130880823D01*
X103120850Y-130690930D02*
X103120850Y-130833900D01*
X112903000Y-112000434D02*
X112903000Y-121793000D01*
X115316000Y-110412126D02*
X114730126Y-110998000D01*
X103114246Y-130721207D02*
X103114246Y-130684326D01*
X115316000Y-107030520D02*
X115316000Y-110412126D01*
X103120850Y-130690930D02*
X103114246Y-130684326D01*
%TO.N,/SCK_ADC_EXT*%
X104390000Y-130914579D02*
X104390000Y-129455000D01*
X106205000Y-129175000D02*
X113334811Y-122045189D01*
X104526068Y-132637441D02*
X104524654Y-132636027D01*
X104524654Y-132636027D02*
X104524654Y-131049233D01*
X104390000Y-129455000D02*
X104670000Y-129175000D01*
X113334811Y-112981729D02*
X114300000Y-112016540D01*
X104670000Y-129175000D02*
X106205000Y-129175000D01*
X104524654Y-131049233D02*
X104390000Y-130914579D01*
X113334811Y-122045189D02*
X113334811Y-112981729D01*
%TO.N,/TX_SDA*%
X113380762Y-110015020D02*
X114300000Y-110015020D01*
X102780000Y-129540000D02*
X103980000Y-128340000D01*
X101293281Y-127756221D02*
X100711000Y-128338502D01*
X100711000Y-129540000D02*
X102780000Y-129540000D01*
X102489000Y-128156220D02*
X102089001Y-127756221D01*
X105745328Y-128340000D02*
X112471189Y-121614139D01*
X112471189Y-121614139D02*
X112471189Y-110924593D01*
X103980000Y-128340000D02*
X105745328Y-128340000D01*
X102089001Y-127756221D02*
X101293281Y-127756221D01*
X112471189Y-110924593D02*
X113380762Y-110015020D01*
X100711000Y-128338502D02*
X100711000Y-129540000D01*
%TO.N,/RX_SCL_MOSI*%
X112014000Y-121460656D02*
X112014000Y-110299500D01*
X101872999Y-128978581D02*
X102731419Y-128978581D01*
X103810000Y-127900000D02*
X105574656Y-127900000D01*
X112014000Y-110299500D02*
X114300000Y-108013500D01*
X102731419Y-128978581D02*
X103810000Y-127900000D01*
X105574656Y-127900000D02*
X112014000Y-121460656D01*
X101473000Y-128578582D02*
X101872999Y-128978581D01*
D28*
%TO.N,/Battery voltage control/Cell3_control*%
X91198420Y-139338420D02*
X91198420Y-139328420D01*
X92060000Y-140200000D02*
X91198420Y-139338420D01*
X91230000Y-139360000D02*
X91198420Y-139328420D01*
X91198420Y-136111580D02*
X91230000Y-136080000D01*
X102310000Y-142180000D02*
X101380000Y-142180000D01*
X91198420Y-139328420D02*
X91198420Y-136111580D01*
X102310000Y-152060000D02*
X102310000Y-142180000D01*
X101380000Y-142180000D02*
X101200000Y-142000000D01*
%TO.N,/Battery voltage control/Cell1_control*%
X104311487Y-138851572D02*
X104325600Y-138865685D01*
X97899819Y-133242800D02*
X98499778Y-132642841D01*
X104399600Y-137760563D02*
X104392220Y-137767944D01*
X98499778Y-132642841D02*
X100340704Y-132642841D01*
X104311487Y-137894242D02*
X104311487Y-138851572D01*
X89296551Y-130028687D02*
X89678687Y-130028687D01*
X102582240Y-134247662D02*
X104231442Y-135896864D01*
X92892800Y-133242800D02*
X93076188Y-133242800D01*
X100340704Y-132642841D02*
X101945526Y-134247662D01*
X89678687Y-130028687D02*
X92892800Y-133242800D01*
X101945526Y-134247662D02*
X102582240Y-134247662D01*
X104231442Y-135896864D02*
X104231442Y-136803220D01*
X94406706Y-133242800D02*
X97899819Y-133242800D01*
X104399600Y-137506611D02*
X104399600Y-137760563D01*
X104392220Y-137813508D02*
X104311487Y-137894242D01*
X104325600Y-138865685D02*
X104209601Y-138981684D01*
X104209601Y-139081449D02*
X103615525Y-139675525D01*
X104392220Y-137767944D02*
X104392220Y-137813508D01*
X104231442Y-136803220D02*
X104269600Y-136841378D01*
X104269600Y-137376612D02*
X104399600Y-137506611D01*
X94052770Y-133596736D02*
X94406706Y-133242800D01*
X104269600Y-136841378D02*
X104269600Y-137376612D01*
X93076188Y-133242800D02*
X93430124Y-133596736D01*
X104209601Y-138981684D02*
X104209601Y-139081449D01*
X93430124Y-133596736D02*
X94052770Y-133596736D01*
%TO.N,/Battery voltage control/Cell2_control*%
X99997188Y-129853756D02*
X97551906Y-129853756D01*
X106324400Y-136180968D02*
X99997188Y-129853756D01*
X103545555Y-151910390D02*
X104611524Y-151910390D01*
X104611524Y-151910390D02*
X106324400Y-150197514D01*
X106324400Y-150197514D02*
X106324400Y-136180968D01*
%TO.N,/Battery voltage control/Cell4_control*%
X106654600Y-150366814D02*
X106654600Y-130905500D01*
X106654600Y-130905500D02*
X106495500Y-130905500D01*
X100693514Y-156327900D02*
X106654600Y-150366814D01*
X106495500Y-130905500D02*
X105480000Y-129890000D01*
X95711900Y-156327900D02*
X100693514Y-156327900D01*
%TO.N,/Battery voltage control/Cell6_control*%
X97507500Y-140987500D02*
X96920000Y-140400000D01*
X97507500Y-150199400D02*
X97507500Y-140987500D01*
X97476900Y-150230000D02*
X97507500Y-150199400D01*
%TD*%
%TA.AperFunction,Conductor*%
%TO.N,/Mosfet driver/H3_VS*%
G36*
X88334121Y-80095502D02*
G01*
X88380614Y-80149158D01*
X88392000Y-80201500D01*
X88392000Y-85725000D01*
X89661880Y-85725000D01*
X89730001Y-85745002D01*
X89776494Y-85798658D01*
X89786598Y-85868932D01*
X89757104Y-85933512D01*
X89750975Y-85940095D01*
X88802784Y-86888286D01*
X88749535Y-86941534D01*
X88696287Y-86994782D01*
X88696283Y-86994787D01*
X88620983Y-87125211D01*
X88620980Y-87125218D01*
X88582000Y-87270696D01*
X88582000Y-99374000D01*
X88561998Y-99442121D01*
X88508342Y-99488614D01*
X88456000Y-99500000D01*
X78687820Y-99500000D01*
X78619699Y-99479998D01*
X78573206Y-99426342D01*
X78561820Y-99373911D01*
X78573902Y-82263452D01*
X78575358Y-80201410D01*
X78595408Y-80133304D01*
X78649097Y-80086849D01*
X78701358Y-80075500D01*
X88266000Y-80075500D01*
X88334121Y-80095502D01*
G37*
%TD.AperFunction*%
%TA.AperFunction,Conductor*%
G36*
X91254476Y-86302002D02*
G01*
X91300969Y-86355658D01*
X91312355Y-86408119D01*
X91309574Y-89354700D01*
X91289508Y-89422802D01*
X91235808Y-89469244D01*
X91208156Y-89478160D01*
X91109108Y-89497862D01*
X91109103Y-89497864D01*
X90981896Y-89550555D01*
X90942671Y-89576765D01*
X90874918Y-89597980D01*
X90872669Y-89598000D01*
X90759688Y-89598000D01*
X90609077Y-89598000D01*
X90520042Y-89621856D01*
X90463594Y-89636982D01*
X90333169Y-89712283D01*
X90333163Y-89712288D01*
X89945784Y-90099669D01*
X89945783Y-90099669D01*
X89941095Y-90104357D01*
X89878783Y-90138383D01*
X89807968Y-90133318D01*
X89751132Y-90090771D01*
X89726321Y-90024251D01*
X89726000Y-90015262D01*
X89726000Y-87635120D01*
X89746002Y-87566999D01*
X89762905Y-87546025D01*
X90990025Y-86318905D01*
X91052337Y-86284879D01*
X91079120Y-86282000D01*
X91186355Y-86282000D01*
X91254476Y-86302002D01*
G37*
%TD.AperFunction*%
%TD*%
%TA.AperFunction,Conductor*%
%TO.N,/Mosfet driver/H2_VS*%
G36*
X104209121Y-86302002D02*
G01*
X104255614Y-86355658D01*
X104267000Y-86408000D01*
X104267000Y-90905821D01*
X104246998Y-90973942D01*
X104193342Y-91020435D01*
X104189219Y-91022229D01*
X104062903Y-91074551D01*
X104062899Y-91074553D01*
X103948414Y-91151050D01*
X103948408Y-91151055D01*
X103851055Y-91248408D01*
X103851050Y-91248414D01*
X103774554Y-91362899D01*
X103721864Y-91490103D01*
X103721862Y-91490108D01*
X103695000Y-91625152D01*
X103695000Y-91625155D01*
X103695000Y-91762845D01*
X103721862Y-91897891D01*
X103774554Y-92025101D01*
X103825667Y-92101597D01*
X103851050Y-92139585D01*
X103851055Y-92139591D01*
X103948408Y-92236944D01*
X103948414Y-92236949D01*
X104062899Y-92313446D01*
X104174226Y-92359559D01*
X104189218Y-92365769D01*
X104244499Y-92410317D01*
X104266920Y-92477681D01*
X104267000Y-92482178D01*
X104267000Y-96267000D01*
X104246998Y-96335121D01*
X104193342Y-96381614D01*
X104141000Y-96393000D01*
X98933000Y-96393000D01*
X97408491Y-97654663D01*
X95976124Y-98840070D01*
X95910891Y-98868092D01*
X95895790Y-98869000D01*
X94396120Y-98869000D01*
X94327999Y-98848998D01*
X94307025Y-98832095D01*
X93191905Y-97716975D01*
X93157879Y-97654663D01*
X93155000Y-97627880D01*
X93155000Y-87935696D01*
X93155000Y-87935695D01*
X93116019Y-87790216D01*
X93040714Y-87659784D01*
X92934216Y-87553286D01*
X92155825Y-86774895D01*
X92121799Y-86712583D01*
X92121364Y-86710495D01*
X92112138Y-86664109D01*
X92059446Y-86536899D01*
X92020092Y-86478002D01*
X91998877Y-86410249D01*
X92017660Y-86341782D01*
X92070477Y-86294339D01*
X92124857Y-86282000D01*
X104141000Y-86282000D01*
X104209121Y-86302002D01*
G37*
%TD.AperFunction*%
%TA.AperFunction,Conductor*%
G36*
X100526121Y-80095502D02*
G01*
X100572614Y-80149158D01*
X100584000Y-80201500D01*
X100584000Y-85012000D01*
X100563998Y-85080121D01*
X100510342Y-85126614D01*
X100458000Y-85138000D01*
X94995000Y-85138000D01*
X94926879Y-85117998D01*
X94880386Y-85064342D01*
X94869000Y-85012000D01*
X94869000Y-80201500D01*
X94889002Y-80133379D01*
X94942658Y-80086886D01*
X94995000Y-80075500D01*
X100458000Y-80075500D01*
X100526121Y-80095502D01*
G37*
%TD.AperFunction*%
%TD*%
%TA.AperFunction,Conductor*%
%TO.N,/Mosfet driver/H1_VS*%
G36*
X116867592Y-80095502D02*
G01*
X116914085Y-80149158D01*
X116925470Y-80200891D01*
X116999999Y-95617463D01*
X117000000Y-95618072D01*
X117000000Y-98913953D01*
X116979998Y-98982074D01*
X116926342Y-99028567D01*
X116856068Y-99038671D01*
X116791488Y-99009177D01*
X116757592Y-98962173D01*
X116753718Y-98952822D01*
X116753718Y-98952821D01*
X116723757Y-98907981D01*
X116670272Y-98827935D01*
X116564065Y-98721728D01*
X116439179Y-98638282D01*
X116300414Y-98580803D01*
X116153103Y-98551500D01*
X116153100Y-98551500D01*
X116002900Y-98551500D01*
X116002896Y-98551500D01*
X115855585Y-98580803D01*
X115855584Y-98580804D01*
X115716819Y-98638283D01*
X115591939Y-98721725D01*
X115587156Y-98725651D01*
X115585598Y-98723753D01*
X115532783Y-98752594D01*
X115461968Y-98747529D01*
X115405132Y-98704982D01*
X115380321Y-98638462D01*
X115380000Y-98629473D01*
X115380000Y-82355330D01*
X115400002Y-82287209D01*
X115401236Y-82285327D01*
X115427444Y-82246104D01*
X115427444Y-82246103D01*
X115427446Y-82246101D01*
X115480138Y-82118891D01*
X115507000Y-81983845D01*
X115507000Y-81846155D01*
X115480138Y-81711109D01*
X115427446Y-81583899D01*
X115350949Y-81469414D01*
X115350944Y-81469408D01*
X115253591Y-81372055D01*
X115253585Y-81372050D01*
X115215597Y-81346667D01*
X115139101Y-81295554D01*
X115011891Y-81242862D01*
X114876847Y-81216000D01*
X114876845Y-81216000D01*
X114739155Y-81216000D01*
X114739152Y-81216000D01*
X114604108Y-81242862D01*
X114604103Y-81242864D01*
X114476899Y-81295554D01*
X114362414Y-81372050D01*
X114362408Y-81372055D01*
X114265055Y-81469408D01*
X114265050Y-81469414D01*
X114188554Y-81583899D01*
X114135864Y-81711103D01*
X114135862Y-81711108D01*
X114109000Y-81846152D01*
X114109000Y-81983847D01*
X114135862Y-82118891D01*
X114135864Y-82118896D01*
X114188555Y-82246104D01*
X114214764Y-82285327D01*
X114235980Y-82353079D01*
X114236000Y-82355330D01*
X114236000Y-98411236D01*
X114215998Y-98479357D01*
X114199095Y-98500332D01*
X113624181Y-99075245D01*
X113561869Y-99109270D01*
X113491053Y-99104205D01*
X113444192Y-99073409D01*
X110871000Y-96393000D01*
X107798000Y-96393000D01*
X107729879Y-96372998D01*
X107683386Y-96319342D01*
X107672000Y-96267000D01*
X107672000Y-92546696D01*
X107655815Y-92486293D01*
X107633019Y-92401216D01*
X107557714Y-92270784D01*
X107451216Y-92164286D01*
X104684905Y-89397975D01*
X104650879Y-89335663D01*
X104648000Y-89308880D01*
X104648000Y-85851000D01*
X104668002Y-85782879D01*
X104721658Y-85736386D01*
X104774000Y-85725000D01*
X106680000Y-85725000D01*
X106680000Y-80201500D01*
X106700002Y-80133379D01*
X106753658Y-80086886D01*
X106806000Y-80075500D01*
X116799471Y-80075500D01*
X116867592Y-80095502D01*
G37*
%TD.AperFunction*%
%TD*%
%TA.AperFunction,Conductor*%
%TO.N,GND*%
G36*
X89247165Y-107860002D02*
G01*
X89293658Y-107913658D01*
X89303762Y-107983932D01*
X89283809Y-108036002D01*
X89208989Y-108147977D01*
X89159654Y-108267083D01*
X89159652Y-108267088D01*
X89134500Y-108393534D01*
X89134500Y-108522465D01*
X89151302Y-108606932D01*
X89159652Y-108648911D01*
X89208989Y-108768022D01*
X89240417Y-108815057D01*
X89280616Y-108875219D01*
X89280621Y-108875225D01*
X89371774Y-108966378D01*
X89371780Y-108966383D01*
X89478978Y-109038011D01*
X89598089Y-109087348D01*
X89668083Y-109101270D01*
X89730991Y-109134178D01*
X89766123Y-109195873D01*
X89769500Y-109224849D01*
X89769500Y-109284465D01*
X89788166Y-109378303D01*
X89794652Y-109410911D01*
X89843989Y-109530022D01*
X89884917Y-109591275D01*
X89915616Y-109637219D01*
X89915621Y-109637225D01*
X90006774Y-109728378D01*
X90006780Y-109728383D01*
X90113978Y-109800011D01*
X90233089Y-109849348D01*
X90359537Y-109874500D01*
X90359538Y-109874500D01*
X90488462Y-109874500D01*
X90488463Y-109874500D01*
X90614911Y-109849348D01*
X90734022Y-109800011D01*
X90841220Y-109728383D01*
X90932383Y-109637220D01*
X91004011Y-109530022D01*
X91053348Y-109410911D01*
X91078500Y-109284463D01*
X91078500Y-109209621D01*
X91098502Y-109141500D01*
X91152158Y-109095007D01*
X91222432Y-109084903D01*
X91287012Y-109114397D01*
X91293595Y-109120526D01*
X93120776Y-110947708D01*
X93120781Y-110947712D01*
X93120783Y-110947714D01*
X93120784Y-110947715D01*
X93120786Y-110947716D01*
X93251211Y-111023017D01*
X93251213Y-111023017D01*
X93251216Y-111023019D01*
X93396694Y-111062000D01*
X93396695Y-111062000D01*
X95959138Y-111062000D01*
X96027259Y-111082002D01*
X96073752Y-111135658D01*
X96083856Y-111205932D01*
X96054362Y-111270512D01*
X96048236Y-111277092D01*
X95791768Y-111533560D01*
X94622880Y-112702446D01*
X94622873Y-112702454D01*
X94563724Y-112761604D01*
X94521769Y-112834272D01*
X94516745Y-112840823D01*
X94494464Y-112857098D01*
X94474502Y-112876133D01*
X94466224Y-112877728D01*
X94459416Y-112882702D01*
X94431873Y-112884348D01*
X94404788Y-112889568D01*
X94396130Y-112886484D01*
X94388545Y-112886938D01*
X94373170Y-112878308D01*
X94346765Y-112868904D01*
X94343670Y-112866836D01*
X94290022Y-112830989D01*
X94170911Y-112781652D01*
X94140571Y-112775617D01*
X94044465Y-112756500D01*
X94044463Y-112756500D01*
X93915537Y-112756500D01*
X93915534Y-112756500D01*
X93789088Y-112781652D01*
X93789083Y-112781654D01*
X93669978Y-112830989D01*
X93562780Y-112902616D01*
X93562774Y-112902621D01*
X93471621Y-112993774D01*
X93471616Y-112993780D01*
X93399989Y-113100978D01*
X93350654Y-113220083D01*
X93350652Y-113220088D01*
X93325500Y-113346534D01*
X93325500Y-113475465D01*
X93328237Y-113489223D01*
X93350652Y-113601911D01*
X93399989Y-113721022D01*
X93430474Y-113766645D01*
X93471616Y-113828219D01*
X93471621Y-113828225D01*
X93562774Y-113919378D01*
X93562780Y-113919383D01*
X93669978Y-113991011D01*
X93789089Y-114040348D01*
X93915537Y-114065500D01*
X93915538Y-114065500D01*
X94044462Y-114065500D01*
X94044463Y-114065500D01*
X94170911Y-114040348D01*
X94290022Y-113991011D01*
X94291492Y-113990028D01*
X94292379Y-113989750D01*
X94295479Y-113988094D01*
X94295793Y-113988681D01*
X94359242Y-113968809D01*
X94427711Y-113987588D01*
X94475157Y-114040402D01*
X94487500Y-114094789D01*
X94487500Y-117162127D01*
X94467498Y-117230248D01*
X94450595Y-117251222D01*
X92053143Y-119648673D01*
X91990831Y-119682699D01*
X91920015Y-119677634D01*
X91863180Y-119635087D01*
X91838369Y-119568567D01*
X91840468Y-119535004D01*
X91854500Y-119464463D01*
X91854500Y-119335537D01*
X91829348Y-119209089D01*
X91780011Y-119089978D01*
X91708383Y-118982780D01*
X91708378Y-118982774D01*
X91617225Y-118891621D01*
X91617219Y-118891616D01*
X91576581Y-118864463D01*
X91510022Y-118819989D01*
X91390911Y-118770652D01*
X91376880Y-118767861D01*
X91264465Y-118745500D01*
X91264463Y-118745500D01*
X91135537Y-118745500D01*
X91135534Y-118745500D01*
X91009088Y-118770652D01*
X91009083Y-118770654D01*
X90889978Y-118819989D01*
X90782780Y-118891616D01*
X90782774Y-118891621D01*
X90691621Y-118982774D01*
X90691616Y-118982780D01*
X90619989Y-119089978D01*
X90570654Y-119209083D01*
X90570652Y-119209088D01*
X90545500Y-119335534D01*
X90545500Y-119464465D01*
X90570652Y-119590911D01*
X90619989Y-119710022D01*
X90667250Y-119780753D01*
X90691616Y-119817219D01*
X90691621Y-119817225D01*
X90782774Y-119908378D01*
X90782780Y-119908383D01*
X90889978Y-119980011D01*
X91009089Y-120029348D01*
X91135537Y-120054500D01*
X91135538Y-120054500D01*
X91264462Y-120054500D01*
X91264463Y-120054500D01*
X91334999Y-120040469D01*
X91405709Y-120046796D01*
X91461777Y-120090350D01*
X91485397Y-120157302D01*
X91469071Y-120226396D01*
X91448673Y-120253143D01*
X89058131Y-122643686D01*
X88995819Y-122677711D01*
X88969036Y-122680591D01*
X87741868Y-122680591D01*
X87741852Y-122680590D01*
X87734134Y-122680590D01*
X87633684Y-122680590D01*
X87585170Y-122693589D01*
X87536654Y-122706589D01*
X87449665Y-122756812D01*
X87449659Y-122756817D01*
X87199397Y-123007080D01*
X86506753Y-123699724D01*
X86488758Y-123717719D01*
X86435725Y-123770751D01*
X86435721Y-123770756D01*
X86385500Y-123857741D01*
X86378121Y-123885282D01*
X86365385Y-123932814D01*
X86359500Y-123954776D01*
X86359500Y-124498706D01*
X86339498Y-124566827D01*
X86322595Y-124587801D01*
X86232621Y-124677774D01*
X86232616Y-124677780D01*
X86160989Y-124784978D01*
X86111654Y-124904083D01*
X86111652Y-124904088D01*
X86086500Y-125030534D01*
X86086500Y-125159465D01*
X86102818Y-125241499D01*
X86111652Y-125285911D01*
X86160989Y-125405022D01*
X86187371Y-125444505D01*
X86232616Y-125512219D01*
X86232621Y-125512225D01*
X86323774Y-125603378D01*
X86323780Y-125603383D01*
X86430978Y-125675011D01*
X86550089Y-125724348D01*
X86676537Y-125749500D01*
X86676538Y-125749500D01*
X86805462Y-125749500D01*
X86805463Y-125749500D01*
X86931911Y-125724348D01*
X87051022Y-125675011D01*
X87158220Y-125603383D01*
X87249383Y-125512220D01*
X87321011Y-125405022D01*
X87370348Y-125285911D01*
X87395500Y-125159463D01*
X87395500Y-125030537D01*
X87370348Y-124904089D01*
X87321011Y-124784978D01*
X87249383Y-124677780D01*
X87249378Y-124677774D01*
X87159405Y-124587801D01*
X87125379Y-124525489D01*
X87122500Y-124498706D01*
X87122500Y-124215213D01*
X87131283Y-124185297D01*
X87137912Y-124154828D01*
X87141726Y-124149731D01*
X87142502Y-124147092D01*
X87159399Y-124126123D01*
X87258171Y-124027351D01*
X87320479Y-123993329D01*
X87391295Y-123998393D01*
X87448131Y-124040940D01*
X87467908Y-124085281D01*
X87468858Y-124084994D01*
X87470651Y-124090906D01*
X87470652Y-124090911D01*
X87519989Y-124210022D01*
X87564728Y-124276978D01*
X87591616Y-124317219D01*
X87591621Y-124317225D01*
X87682774Y-124408378D01*
X87682780Y-124408383D01*
X87789976Y-124480010D01*
X87789977Y-124480010D01*
X87789978Y-124480011D01*
X87833245Y-124497932D01*
X87888523Y-124542477D01*
X87910946Y-124609840D01*
X87911026Y-124614340D01*
X87911026Y-128968250D01*
X87891024Y-129036371D01*
X87837368Y-129082864D01*
X87833244Y-129084659D01*
X87732330Y-129126459D01*
X87625132Y-129198086D01*
X87625126Y-129198091D01*
X87533973Y-129289244D01*
X87533968Y-129289250D01*
X87462341Y-129396448D01*
X87413006Y-129515553D01*
X87413004Y-129515558D01*
X87387852Y-129642004D01*
X87387852Y-129770935D01*
X87408337Y-129873918D01*
X87413004Y-129897381D01*
X87462341Y-130016492D01*
X87483060Y-130047500D01*
X87533968Y-130123689D01*
X87533973Y-130123695D01*
X87625126Y-130214848D01*
X87625132Y-130214853D01*
X87732330Y-130286481D01*
X87851441Y-130335818D01*
X87910378Y-130347541D01*
X87973287Y-130380449D01*
X88008419Y-130442144D01*
X88004619Y-130513039D01*
X87974892Y-130560215D01*
X87916282Y-130618825D01*
X87916277Y-130618831D01*
X87836698Y-130756667D01*
X87836696Y-130756672D01*
X87795500Y-130910416D01*
X87795500Y-131069584D01*
X87835109Y-131217405D01*
X87836696Y-131223327D01*
X87836698Y-131223332D01*
X87916277Y-131361168D01*
X87916285Y-131361178D01*
X88028821Y-131473714D01*
X88028826Y-131473718D01*
X88028828Y-131473720D01*
X88028829Y-131473721D01*
X88028831Y-131473722D01*
X88089452Y-131508721D01*
X88166672Y-131553304D01*
X88320416Y-131594500D01*
X88320419Y-131594500D01*
X88479581Y-131594500D01*
X88479584Y-131594500D01*
X88633328Y-131553304D01*
X88771172Y-131473720D01*
X88883720Y-131361172D01*
X88963304Y-131223328D01*
X89004500Y-131069584D01*
X89004500Y-130910416D01*
X88964520Y-130761210D01*
X88966209Y-130690234D01*
X89006002Y-130631438D01*
X89071267Y-130603490D01*
X89118837Y-130606892D01*
X89184617Y-130624519D01*
X89210439Y-130631438D01*
X89216967Y-130633187D01*
X89216968Y-130633187D01*
X89376133Y-130633187D01*
X89376135Y-130633187D01*
X89529879Y-130591991D01*
X89578341Y-130564011D01*
X89647334Y-130547274D01*
X89714426Y-130570494D01*
X89730434Y-130584036D01*
X91010087Y-131863689D01*
X92171204Y-133024805D01*
X92205229Y-133087117D01*
X92200165Y-133157932D01*
X92157618Y-133214768D01*
X92091098Y-133239579D01*
X92082109Y-133239900D01*
X89970061Y-133239900D01*
X89901940Y-133219898D01*
X89855447Y-133166242D01*
X89845343Y-133095968D01*
X89874837Y-133031388D01*
X89921843Y-132997491D01*
X89958506Y-132982305D01*
X90065704Y-132910677D01*
X90156867Y-132819514D01*
X90228495Y-132712316D01*
X90277832Y-132593205D01*
X90302984Y-132466757D01*
X90302984Y-132337831D01*
X90277832Y-132211383D01*
X90228495Y-132092272D01*
X90156867Y-131985074D01*
X90156862Y-131985068D01*
X90065709Y-131893915D01*
X90065703Y-131893910D01*
X90020465Y-131863683D01*
X89958506Y-131822283D01*
X89839395Y-131772946D01*
X89806667Y-131766436D01*
X89712949Y-131747794D01*
X89712947Y-131747794D01*
X89584021Y-131747794D01*
X89584018Y-131747794D01*
X89457572Y-131772946D01*
X89457567Y-131772948D01*
X89338462Y-131822283D01*
X89231264Y-131893910D01*
X89231258Y-131893915D01*
X89140105Y-131985068D01*
X89140100Y-131985074D01*
X89068473Y-132092272D01*
X89019138Y-132211377D01*
X89019136Y-132211382D01*
X88993984Y-132337828D01*
X88993984Y-132466759D01*
X89007665Y-132535537D01*
X89019136Y-132593205D01*
X89068473Y-132712316D01*
X89086734Y-132739645D01*
X89140100Y-132819513D01*
X89140105Y-132819519D01*
X89231258Y-132910672D01*
X89231264Y-132910677D01*
X89338462Y-132982305D01*
X89375125Y-132997491D01*
X89430406Y-133042039D01*
X89452827Y-133109402D01*
X89435269Y-133178194D01*
X89383307Y-133226572D01*
X89326907Y-133239900D01*
X88719507Y-133239900D01*
X88651386Y-133219898D01*
X88630411Y-133202995D01*
X88219818Y-132792402D01*
X87789141Y-132361724D01*
X87789139Y-132361723D01*
X87789137Y-132361721D01*
X87752614Y-132340635D01*
X87752613Y-132340635D01*
X87747756Y-132337831D01*
X87704845Y-132313056D01*
X87702152Y-132311501D01*
X87702149Y-132311500D01*
X87702148Y-132311499D01*
X87702146Y-132311498D01*
X87702145Y-132311498D01*
X87676147Y-132304532D01*
X87605119Y-132285500D01*
X87605117Y-132285500D01*
X87528369Y-132285500D01*
X87498453Y-132276716D01*
X87467984Y-132270088D01*
X87462888Y-132266273D01*
X87460248Y-132265498D01*
X87439274Y-132248595D01*
X87281406Y-132090727D01*
X87247380Y-132028415D01*
X87244501Y-132001632D01*
X87244501Y-131924882D01*
X87237301Y-131898011D01*
X87218502Y-131827853D01*
X87217653Y-131826383D01*
X87168278Y-131740862D01*
X87168270Y-131740852D01*
X83713337Y-128285920D01*
X83630429Y-128203012D01*
X85845500Y-128203012D01*
X85845500Y-128331943D01*
X85870652Y-128458389D01*
X85870654Y-128458394D01*
X85877877Y-128475833D01*
X85919989Y-128577500D01*
X85941672Y-128609950D01*
X85991616Y-128684697D01*
X85991621Y-128684703D01*
X86082774Y-128775856D01*
X86082780Y-128775861D01*
X86189978Y-128847489D01*
X86309089Y-128896826D01*
X86435537Y-128921978D01*
X86435538Y-128921978D01*
X86564462Y-128921978D01*
X86564463Y-128921978D01*
X86690911Y-128896826D01*
X86810022Y-128847489D01*
X86917220Y-128775861D01*
X87008383Y-128684698D01*
X87080011Y-128577500D01*
X87129348Y-128458389D01*
X87154500Y-128331941D01*
X87154500Y-128203015D01*
X87129348Y-128076567D01*
X87080011Y-127957456D01*
X87008383Y-127850258D01*
X87008378Y-127850252D01*
X86917225Y-127759099D01*
X86917219Y-127759094D01*
X86858694Y-127719989D01*
X86810022Y-127687467D01*
X86690911Y-127638130D01*
X86665930Y-127633161D01*
X86564465Y-127612978D01*
X86564463Y-127612978D01*
X86435537Y-127612978D01*
X86435534Y-127612978D01*
X86309088Y-127638130D01*
X86309083Y-127638132D01*
X86189978Y-127687467D01*
X86082780Y-127759094D01*
X86082774Y-127759099D01*
X85991621Y-127850252D01*
X85991616Y-127850258D01*
X85919989Y-127957456D01*
X85870654Y-128076561D01*
X85870652Y-128076566D01*
X85845500Y-128203012D01*
X83630429Y-128203012D01*
X83422141Y-127994724D01*
X83415536Y-127990911D01*
X83407153Y-127986071D01*
X83364212Y-127961279D01*
X83335152Y-127944501D01*
X83335149Y-127944500D01*
X83335148Y-127944499D01*
X83335146Y-127944498D01*
X83335145Y-127944498D01*
X83289688Y-127932318D01*
X83238119Y-127918500D01*
X83238117Y-127918500D01*
X83196294Y-127918500D01*
X83128173Y-127898498D01*
X83107199Y-127881595D01*
X83017225Y-127791621D01*
X83017219Y-127791616D01*
X82948360Y-127745606D01*
X82910022Y-127719989D01*
X82790911Y-127670652D01*
X82664465Y-127645500D01*
X82664463Y-127645500D01*
X82535537Y-127645500D01*
X82535534Y-127645500D01*
X82409088Y-127670652D01*
X82409083Y-127670654D01*
X82289978Y-127719989D01*
X82182780Y-127791616D01*
X82182774Y-127791621D01*
X82091621Y-127882774D01*
X82091616Y-127882780D01*
X82019989Y-127989978D01*
X81970654Y-128109083D01*
X81970652Y-128109088D01*
X81945500Y-128235534D01*
X81945500Y-128364465D01*
X81970652Y-128490911D01*
X81970654Y-128490916D01*
X81973776Y-128498454D01*
X82019989Y-128610022D01*
X82060806Y-128671108D01*
X82091616Y-128717219D01*
X82091621Y-128717225D01*
X82182774Y-128808378D01*
X82182780Y-128808383D01*
X82289978Y-128880011D01*
X82343903Y-128902347D01*
X82399184Y-128946895D01*
X82421605Y-129014258D01*
X82404047Y-129083049D01*
X82352085Y-129131428D01*
X82344838Y-129134737D01*
X82344505Y-129134915D01*
X82221588Y-129217046D01*
X82221581Y-129217051D01*
X82117051Y-129321581D01*
X82117046Y-129321588D01*
X82034916Y-129444504D01*
X81978343Y-129581083D01*
X81978342Y-129581086D01*
X81972554Y-129610185D01*
X81949500Y-129726082D01*
X81949500Y-129873918D01*
X81968530Y-129969584D01*
X81978342Y-130018913D01*
X81978343Y-130018916D01*
X82021742Y-130123690D01*
X82034916Y-130155495D01*
X82117049Y-130278416D01*
X82221584Y-130382951D01*
X82344505Y-130465084D01*
X82481087Y-130521658D01*
X82626082Y-130550500D01*
X82626087Y-130550500D01*
X82773913Y-130550500D01*
X82773918Y-130550500D01*
X82918913Y-130521658D01*
X83055495Y-130465084D01*
X83159022Y-130395909D01*
X83226772Y-130374695D01*
X83295239Y-130393478D01*
X83333787Y-130430672D01*
X83391619Y-130517223D01*
X83482774Y-130608378D01*
X83482780Y-130608383D01*
X83589978Y-130680011D01*
X83709089Y-130729348D01*
X83835537Y-130754500D01*
X83835538Y-130754500D01*
X83964462Y-130754500D01*
X83964463Y-130754500D01*
X84090911Y-130729348D01*
X84210022Y-130680011D01*
X84317220Y-130608383D01*
X84408383Y-130517220D01*
X84480011Y-130410022D01*
X84489383Y-130387395D01*
X84533928Y-130332114D01*
X84601290Y-130309691D01*
X84670082Y-130327247D01*
X84694887Y-130346516D01*
X86444595Y-132096224D01*
X86478621Y-132158536D01*
X86481500Y-132185319D01*
X86481500Y-132262067D01*
X86481499Y-132262067D01*
X86507499Y-132359099D01*
X86550021Y-132432750D01*
X86557721Y-132446087D01*
X86557730Y-132446098D01*
X87083902Y-132972270D01*
X87083907Y-132972274D01*
X87083909Y-132972276D01*
X87083910Y-132972277D01*
X87083912Y-132972278D01*
X87170901Y-133022501D01*
X87170903Y-133022502D01*
X87267931Y-133048501D01*
X87267933Y-133048501D01*
X87344681Y-133048501D01*
X87412802Y-133068503D01*
X87433776Y-133085405D01*
X88199612Y-133851240D01*
X88199633Y-133851263D01*
X88275040Y-133926670D01*
X88275045Y-133926674D01*
X88275047Y-133926676D01*
X88275048Y-133926677D01*
X88275050Y-133926678D01*
X88362035Y-133976899D01*
X88362037Y-133976899D01*
X88362040Y-133976901D01*
X88459069Y-134002900D01*
X92592173Y-134002900D01*
X92608193Y-134003923D01*
X92616603Y-134005001D01*
X92672953Y-134020100D01*
X92734393Y-134020100D01*
X92742374Y-134021123D01*
X92767814Y-134032273D01*
X92794475Y-134040102D01*
X92804968Y-134048558D01*
X92807399Y-134049624D01*
X92808677Y-134051547D01*
X92815449Y-134057005D01*
X92968026Y-134209582D01*
X92968027Y-134209583D01*
X93039056Y-134280612D01*
X93039057Y-134280613D01*
X93039059Y-134280614D01*
X93126044Y-134330835D01*
X93126046Y-134330835D01*
X93126049Y-134330837D01*
X93223078Y-134356836D01*
X93323528Y-134356836D01*
X96759567Y-134356836D01*
X96827688Y-134376838D01*
X96848662Y-134393741D01*
X97704118Y-135249197D01*
X97775147Y-135320226D01*
X97777122Y-135321366D01*
X97784429Y-135328590D01*
X97797945Y-135353010D01*
X97814409Y-135375550D01*
X97814891Y-135383626D01*
X97818810Y-135390706D01*
X97816978Y-135418557D01*
X97818643Y-135446421D01*
X97817555Y-135450789D01*
X97780935Y-135587459D01*
X97780935Y-135587460D01*
X97780935Y-135746625D01*
X97780934Y-135746625D01*
X97819063Y-135888920D01*
X97817373Y-135959896D01*
X97777579Y-136018692D01*
X97729969Y-136043236D01*
X97707837Y-136049167D01*
X97707835Y-136049168D01*
X97707832Y-136049169D01*
X97626639Y-136096046D01*
X97626634Y-136096050D01*
X97597224Y-136125461D01*
X97560336Y-136162349D01*
X97560334Y-136162351D01*
X96344858Y-137377826D01*
X96282546Y-137411852D01*
X96211730Y-137406787D01*
X96154895Y-137364240D01*
X96132185Y-137313312D01*
X96125118Y-137277783D01*
X96075781Y-137158672D01*
X96004153Y-137051474D01*
X96004148Y-137051468D01*
X95912995Y-136960315D01*
X95912989Y-136960310D01*
X95876740Y-136936089D01*
X95805792Y-136888683D01*
X95686681Y-136839346D01*
X95560235Y-136814194D01*
X95560233Y-136814194D01*
X95431307Y-136814194D01*
X95431304Y-136814194D01*
X95304858Y-136839346D01*
X95304853Y-136839348D01*
X95185748Y-136888683D01*
X95078550Y-136960310D01*
X95078544Y-136960315D01*
X94987391Y-137051468D01*
X94987386Y-137051474D01*
X94915759Y-137158672D01*
X94866424Y-137277777D01*
X94866422Y-137277782D01*
X94841270Y-137404228D01*
X94841270Y-137533159D01*
X94866422Y-137659605D01*
X94866424Y-137659610D01*
X94866738Y-137660368D01*
X94915759Y-137778716D01*
X94935314Y-137807982D01*
X94987386Y-137885913D01*
X94987391Y-137885919D01*
X95078544Y-137977072D01*
X95078550Y-137977077D01*
X95185748Y-138048705D01*
X95304859Y-138098042D01*
X95362534Y-138109514D01*
X95425443Y-138142422D01*
X95460575Y-138204117D01*
X95456775Y-138275012D01*
X95447072Y-138296091D01*
X95428170Y-138328830D01*
X95428166Y-138328840D01*
X95403900Y-138419406D01*
X95403900Y-139928694D01*
X95383898Y-139996815D01*
X95330242Y-140043308D01*
X95259968Y-140053412D01*
X95207898Y-140033459D01*
X95139398Y-139987689D01*
X95020292Y-139938354D01*
X95020287Y-139938352D01*
X94893841Y-139913200D01*
X94893839Y-139913200D01*
X94764913Y-139913200D01*
X94764910Y-139913200D01*
X94638464Y-139938352D01*
X94638459Y-139938354D01*
X94519354Y-139987689D01*
X94412156Y-140059316D01*
X94412150Y-140059321D01*
X94320997Y-140150474D01*
X94320989Y-140150483D01*
X94297141Y-140186175D01*
X94242663Y-140231702D01*
X94172220Y-140240549D01*
X94122375Y-140220937D01*
X94105492Y-140209656D01*
X93986381Y-140160319D01*
X93980982Y-140159245D01*
X93859935Y-140135167D01*
X93859933Y-140135167D01*
X93731007Y-140135167D01*
X93731004Y-140135167D01*
X93604558Y-140160319D01*
X93604553Y-140160321D01*
X93485448Y-140209656D01*
X93378250Y-140281283D01*
X93378244Y-140281288D01*
X93287091Y-140372441D01*
X93287086Y-140372447D01*
X93215459Y-140479645D01*
X93166124Y-140598750D01*
X93166122Y-140598755D01*
X93140970Y-140725201D01*
X93140970Y-140854132D01*
X93151978Y-140909473D01*
X93166122Y-140980578D01*
X93215459Y-141099689D01*
X93257075Y-141161971D01*
X93287086Y-141206886D01*
X93287091Y-141206892D01*
X93378244Y-141298045D01*
X93378250Y-141298050D01*
X93485448Y-141369678D01*
X93604559Y-141419015D01*
X93731007Y-141444167D01*
X93731008Y-141444167D01*
X93859932Y-141444167D01*
X93859933Y-141444167D01*
X93986381Y-141419015D01*
X94102766Y-141370806D01*
X94173354Y-141363218D01*
X94236841Y-141394997D01*
X94273069Y-141456055D01*
X94270535Y-141527007D01*
X94240078Y-141576311D01*
X91011528Y-144804860D01*
X91011526Y-144804861D01*
X91011527Y-144804862D01*
X90962953Y-144853436D01*
X90962948Y-144853442D01*
X90916071Y-144934635D01*
X90916068Y-144934643D01*
X90891802Y-145025209D01*
X90891802Y-145636919D01*
X90871800Y-145705040D01*
X90854897Y-145726014D01*
X90764187Y-145816723D01*
X90764179Y-145816733D01*
X90684600Y-145954569D01*
X90684598Y-145954574D01*
X90643402Y-146108318D01*
X90643402Y-146267486D01*
X90677038Y-146393015D01*
X90684598Y-146421229D01*
X90684600Y-146421234D01*
X90764179Y-146559070D01*
X90764187Y-146559080D01*
X90876723Y-146671616D01*
X90876728Y-146671620D01*
X90876730Y-146671622D01*
X91014574Y-146751206D01*
X91168318Y-146792402D01*
X91168321Y-146792402D01*
X91327483Y-146792402D01*
X91327486Y-146792402D01*
X91481230Y-146751206D01*
X91619074Y-146671622D01*
X91731622Y-146559074D01*
X91811206Y-146421230D01*
X91852402Y-146267486D01*
X91852402Y-146108318D01*
X91811206Y-145954574D01*
X91739117Y-145829711D01*
X91731624Y-145816733D01*
X91731616Y-145816723D01*
X91640907Y-145726014D01*
X91606881Y-145663702D01*
X91604002Y-145636919D01*
X91604002Y-145271781D01*
X91624004Y-145203660D01*
X91640907Y-145182686D01*
X94680705Y-142142888D01*
X94743017Y-142108862D01*
X94813832Y-142113927D01*
X94870668Y-142156474D01*
X94895479Y-142222994D01*
X94895800Y-142231983D01*
X94895800Y-145726917D01*
X94875798Y-145795038D01*
X94858895Y-145816012D01*
X94768185Y-145906721D01*
X94768177Y-145906731D01*
X94688598Y-146044567D01*
X94688596Y-146044572D01*
X94647400Y-146198316D01*
X94647400Y-146357484D01*
X94683473Y-146492108D01*
X94688596Y-146511227D01*
X94688598Y-146511232D01*
X94768177Y-146649068D01*
X94768185Y-146649078D01*
X94880721Y-146761614D01*
X94880726Y-146761618D01*
X94880728Y-146761620D01*
X95018572Y-146841204D01*
X95172316Y-146882400D01*
X95172319Y-146882400D01*
X95331481Y-146882400D01*
X95331484Y-146882400D01*
X95485228Y-146841204D01*
X95623072Y-146761620D01*
X95735620Y-146649072D01*
X95815204Y-146511228D01*
X95856400Y-146357484D01*
X95856400Y-146198316D01*
X95815204Y-146044572D01*
X95735620Y-145906728D01*
X95735618Y-145906726D01*
X95735614Y-145906721D01*
X95644905Y-145816012D01*
X95610879Y-145753700D01*
X95608000Y-145726917D01*
X95608000Y-142148575D01*
X95628002Y-142080454D01*
X95644900Y-142059484D01*
X96426675Y-141277708D01*
X96426685Y-141277701D01*
X96503345Y-141201041D01*
X96503351Y-141201035D01*
X96550233Y-141119834D01*
X96565893Y-141061385D01*
X96602842Y-141000765D01*
X96666702Y-140969742D01*
X96720207Y-140972289D01*
X96840416Y-141004500D01*
X96840419Y-141004500D01*
X96968709Y-141004500D01*
X96998624Y-141013283D01*
X97029094Y-141019912D01*
X97034189Y-141023726D01*
X97036830Y-141024502D01*
X97057804Y-141041405D01*
X97114495Y-141098096D01*
X97148521Y-141160408D01*
X97151400Y-141187191D01*
X97151400Y-145634798D01*
X97131398Y-145702919D01*
X97077742Y-145749412D01*
X97007468Y-145759516D01*
X96992794Y-145756506D01*
X96984487Y-145754280D01*
X96984484Y-145754280D01*
X96825316Y-145754280D01*
X96708885Y-145785478D01*
X96671572Y-145795476D01*
X96671567Y-145795478D01*
X96533731Y-145875057D01*
X96533721Y-145875065D01*
X96421185Y-145987601D01*
X96421177Y-145987611D01*
X96341598Y-146125447D01*
X96341596Y-146125452D01*
X96300400Y-146279196D01*
X96300400Y-146438364D01*
X96341596Y-146592107D01*
X96341598Y-146592112D01*
X96421177Y-146729948D01*
X96421185Y-146729958D01*
X96533721Y-146842494D01*
X96533726Y-146842498D01*
X96533728Y-146842500D01*
X96533729Y-146842501D01*
X96533731Y-146842502D01*
X96569928Y-146863400D01*
X96671572Y-146922084D01*
X96825316Y-146963280D01*
X96825319Y-146963280D01*
X96984483Y-146963280D01*
X96984484Y-146963280D01*
X96992787Y-146961055D01*
X97063764Y-146962743D01*
X97122560Y-147002537D01*
X97150509Y-147067801D01*
X97151400Y-147082761D01*
X97151400Y-149649098D01*
X97131398Y-149717219D01*
X97110769Y-149739642D01*
X97111567Y-149740440D01*
X96993185Y-149858821D01*
X96993177Y-149858831D01*
X96913598Y-149996667D01*
X96913596Y-149996672D01*
X96872400Y-150150416D01*
X96872400Y-150309584D01*
X96907336Y-150439964D01*
X96913596Y-150463327D01*
X96913598Y-150463332D01*
X96993177Y-150601168D01*
X96993185Y-150601178D01*
X97105721Y-150713714D01*
X97105726Y-150713718D01*
X97105728Y-150713720D01*
X97243572Y-150793304D01*
X97397316Y-150834500D01*
X97397319Y-150834500D01*
X97556481Y-150834500D01*
X97556484Y-150834500D01*
X97710228Y-150793304D01*
X97802048Y-150740292D01*
X99863762Y-150740292D01*
X99863762Y-150869223D01*
X99877985Y-150940725D01*
X99888914Y-150995669D01*
X99938251Y-151114780D01*
X99966750Y-151157431D01*
X100009878Y-151221977D01*
X100009883Y-151221983D01*
X100101036Y-151313136D01*
X100101042Y-151313141D01*
X100208240Y-151384769D01*
X100327351Y-151434106D01*
X100453799Y-151459258D01*
X100453800Y-151459258D01*
X100582724Y-151459258D01*
X100582725Y-151459258D01*
X100709173Y-151434106D01*
X100828284Y-151384769D01*
X100886737Y-151345711D01*
X100954485Y-151324497D01*
X101022952Y-151343279D01*
X101045831Y-151361382D01*
X101141174Y-151456725D01*
X101141180Y-151456730D01*
X101248378Y-151528358D01*
X101367489Y-151577695D01*
X101493937Y-151602847D01*
X101493938Y-151602847D01*
X101622862Y-151602847D01*
X101622863Y-151602847D01*
X101749311Y-151577695D01*
X101779682Y-151565114D01*
X101812821Y-151561552D01*
X101845832Y-151556806D01*
X101847954Y-151557775D01*
X101850272Y-151557526D01*
X101880092Y-151572453D01*
X101910412Y-151586300D01*
X101911671Y-151588260D01*
X101913759Y-151589305D01*
X101930781Y-151617995D01*
X101948796Y-151646026D01*
X101949238Y-151649103D01*
X101949986Y-151650363D01*
X101953900Y-151681524D01*
X101953900Y-151834021D01*
X101937021Y-151897018D01*
X101933067Y-151903866D01*
X101933066Y-151903868D01*
X101933066Y-151903869D01*
X101905500Y-152006747D01*
X101905500Y-152113253D01*
X101913663Y-152143718D01*
X101933065Y-152216128D01*
X101933068Y-152216135D01*
X101986317Y-152308365D01*
X101986325Y-152308375D01*
X102061624Y-152383674D01*
X102061629Y-152383678D01*
X102061631Y-152383680D01*
X102061632Y-152383681D01*
X102061634Y-152383682D01*
X102126466Y-152421112D01*
X102153869Y-152436934D01*
X102256747Y-152464500D01*
X102256749Y-152464500D01*
X102363251Y-152464500D01*
X102363253Y-152464500D01*
X102466131Y-152436934D01*
X102558369Y-152383680D01*
X102633680Y-152308369D01*
X102686934Y-152216131D01*
X102714500Y-152113253D01*
X102714500Y-152101522D01*
X102734502Y-152033401D01*
X102763944Y-152007888D01*
X102753118Y-151999817D01*
X102732543Y-151990421D01*
X102723951Y-151978073D01*
X102714336Y-151970905D01*
X102703541Y-151948739D01*
X102697086Y-151939462D01*
X102694935Y-151933730D01*
X102686934Y-151903869D01*
X102677783Y-151888018D01*
X102674131Y-151878286D01*
X102672683Y-151858592D01*
X102666100Y-151834021D01*
X102666100Y-149528837D01*
X102686102Y-149460716D01*
X102739758Y-149414223D01*
X102810032Y-149404119D01*
X102874612Y-149433613D01*
X102908509Y-149480619D01*
X102921889Y-149512922D01*
X102993516Y-149620119D01*
X102993521Y-149620125D01*
X103084674Y-149711278D01*
X103084680Y-149711283D01*
X103191878Y-149782911D01*
X103310989Y-149832248D01*
X103437437Y-149857400D01*
X103437438Y-149857400D01*
X103566362Y-149857400D01*
X103566363Y-149857400D01*
X103692811Y-149832248D01*
X103811922Y-149782911D01*
X103919120Y-149711283D01*
X104010283Y-149620120D01*
X104081911Y-149512922D01*
X104131248Y-149393811D01*
X104156400Y-149267363D01*
X104156400Y-149138437D01*
X104131248Y-149011989D01*
X104081911Y-148892878D01*
X104010283Y-148785680D01*
X104010278Y-148785674D01*
X103919125Y-148694521D01*
X103919119Y-148694516D01*
X103861326Y-148655900D01*
X103811922Y-148622889D01*
X103692811Y-148573552D01*
X103566365Y-148548400D01*
X103566363Y-148548400D01*
X103437437Y-148548400D01*
X103437434Y-148548400D01*
X103310988Y-148573552D01*
X103310983Y-148573554D01*
X103191878Y-148622889D01*
X103084680Y-148694516D01*
X103084674Y-148694521D01*
X102993521Y-148785674D01*
X102993516Y-148785680D01*
X102921890Y-148892876D01*
X102908509Y-148925181D01*
X102863960Y-148980461D01*
X102796597Y-149002882D01*
X102727806Y-148985324D01*
X102679427Y-148933361D01*
X102666100Y-148876962D01*
X102666100Y-142551682D01*
X102686102Y-142483561D01*
X102739758Y-142437068D01*
X102810032Y-142426964D01*
X102840317Y-142435272D01*
X102848487Y-142438657D01*
X102974935Y-142463809D01*
X102974936Y-142463809D01*
X103103860Y-142463809D01*
X103103861Y-142463809D01*
X103230309Y-142438657D01*
X103349420Y-142389320D01*
X103374344Y-142372665D01*
X103442096Y-142351450D01*
X103510564Y-142370232D01*
X103533442Y-142388335D01*
X103628821Y-142483714D01*
X103628826Y-142483718D01*
X103628828Y-142483720D01*
X103766672Y-142563304D01*
X103920416Y-142604500D01*
X103920419Y-142604500D01*
X104079581Y-142604500D01*
X104079584Y-142604500D01*
X104233328Y-142563304D01*
X104371172Y-142483720D01*
X104483720Y-142371172D01*
X104563304Y-142233328D01*
X104604500Y-142079584D01*
X104604500Y-141920416D01*
X104563304Y-141766672D01*
X104483720Y-141628828D01*
X104483718Y-141628826D01*
X104483714Y-141628821D01*
X104371178Y-141516285D01*
X104371168Y-141516277D01*
X104233332Y-141436698D01*
X104233330Y-141436697D01*
X104233328Y-141436696D01*
X104079584Y-141395500D01*
X103920416Y-141395500D01*
X103766672Y-141436696D01*
X103766667Y-141436698D01*
X103732422Y-141456469D01*
X103663426Y-141473205D01*
X103596335Y-141449982D01*
X103564660Y-141417350D01*
X103547781Y-141392089D01*
X103547776Y-141392083D01*
X103456623Y-141300930D01*
X103456617Y-141300925D01*
X103406346Y-141267335D01*
X103349420Y-141229298D01*
X103230309Y-141179961D01*
X103103863Y-141154809D01*
X103103861Y-141154809D01*
X102974935Y-141154809D01*
X102974932Y-141154809D01*
X102848486Y-141179961D01*
X102848481Y-141179963D01*
X102729376Y-141229298D01*
X102622178Y-141300925D01*
X102622172Y-141300930D01*
X102531019Y-141392083D01*
X102531014Y-141392089D01*
X102459387Y-141499287D01*
X102410052Y-141618392D01*
X102410050Y-141618397D01*
X102389346Y-141722482D01*
X102356438Y-141785392D01*
X102294742Y-141820523D01*
X102265767Y-141823900D01*
X101869091Y-141823900D01*
X101800970Y-141803898D01*
X101759972Y-141760900D01*
X101683722Y-141628831D01*
X101683714Y-141628821D01*
X101571178Y-141516285D01*
X101571168Y-141516277D01*
X101433332Y-141436698D01*
X101433330Y-141436697D01*
X101433328Y-141436696D01*
X101279584Y-141395500D01*
X101120416Y-141395500D01*
X100966672Y-141436696D01*
X100966667Y-141436698D01*
X100828831Y-141516277D01*
X100828821Y-141516285D01*
X100716285Y-141628821D01*
X100716277Y-141628831D01*
X100636698Y-141766667D01*
X100636696Y-141766672D01*
X100595500Y-141920416D01*
X100595500Y-142079584D01*
X100636336Y-142231983D01*
X100636696Y-142233327D01*
X100636698Y-142233332D01*
X100716277Y-142371168D01*
X100716285Y-142371178D01*
X100828821Y-142483714D01*
X100828826Y-142483718D01*
X100828828Y-142483720D01*
X100966672Y-142563304D01*
X101120416Y-142604500D01*
X101120419Y-142604500D01*
X101279581Y-142604500D01*
X101279584Y-142604500D01*
X101433328Y-142563304D01*
X101451208Y-142552980D01*
X101514209Y-142536100D01*
X101827900Y-142536100D01*
X101896021Y-142556102D01*
X101942514Y-142609758D01*
X101953900Y-142662100D01*
X101953900Y-150215169D01*
X101933898Y-150283290D01*
X101880242Y-150329783D01*
X101809968Y-150339887D01*
X101779685Y-150331579D01*
X101749320Y-150319002D01*
X101749311Y-150318999D01*
X101622865Y-150293847D01*
X101622863Y-150293847D01*
X101493937Y-150293847D01*
X101493934Y-150293847D01*
X101367488Y-150318999D01*
X101367483Y-150319001D01*
X101248378Y-150368336D01*
X101189927Y-150407392D01*
X101122174Y-150428607D01*
X101053707Y-150409824D01*
X101030830Y-150391722D01*
X100935487Y-150296379D01*
X100935481Y-150296374D01*
X100862918Y-150247889D01*
X100828284Y-150224747D01*
X100709173Y-150175410D01*
X100699068Y-150173400D01*
X100582727Y-150150258D01*
X100582725Y-150150258D01*
X100453799Y-150150258D01*
X100453796Y-150150258D01*
X100327350Y-150175410D01*
X100327345Y-150175412D01*
X100208240Y-150224747D01*
X100101042Y-150296374D01*
X100101036Y-150296379D01*
X100009883Y-150387532D01*
X100009878Y-150387538D01*
X99938251Y-150494736D01*
X99888916Y-150613841D01*
X99888914Y-150613846D01*
X99863762Y-150740292D01*
X97802048Y-150740292D01*
X97848072Y-150713720D01*
X97960620Y-150601172D01*
X98040204Y-150463328D01*
X98081400Y-150309584D01*
X98081400Y-150150416D01*
X98040204Y-149996672D01*
X97984448Y-149900099D01*
X97960622Y-149858831D01*
X97960614Y-149858821D01*
X97900505Y-149798712D01*
X97866479Y-149736400D01*
X97863600Y-149709617D01*
X97863600Y-148589894D01*
X97883602Y-148521773D01*
X97937258Y-148475280D01*
X98007532Y-148465176D01*
X98072112Y-148494670D01*
X98078695Y-148500799D01*
X98087674Y-148509778D01*
X98087680Y-148509783D01*
X98194878Y-148581411D01*
X98313989Y-148630748D01*
X98440437Y-148655900D01*
X98440438Y-148655900D01*
X98569362Y-148655900D01*
X98569363Y-148655900D01*
X98695811Y-148630748D01*
X98814922Y-148581411D01*
X98922120Y-148509783D01*
X99013283Y-148418620D01*
X99084911Y-148311422D01*
X99134248Y-148192311D01*
X99159400Y-148065863D01*
X99159400Y-147936937D01*
X99134248Y-147810489D01*
X99084911Y-147691378D01*
X99013283Y-147584180D01*
X99013278Y-147584174D01*
X98922125Y-147493021D01*
X98922119Y-147493016D01*
X98886549Y-147469249D01*
X98814922Y-147421389D01*
X98695811Y-147372052D01*
X98569365Y-147346900D01*
X98569363Y-147346900D01*
X98451100Y-147346900D01*
X98382979Y-147326898D01*
X98336486Y-147273242D01*
X98325100Y-147220900D01*
X98325100Y-144111077D01*
X98345102Y-144042956D01*
X98398758Y-143996463D01*
X98469032Y-143986359D01*
X98499317Y-143994667D01*
X98529689Y-144007248D01*
X98656137Y-144032400D01*
X98656138Y-144032400D01*
X98785062Y-144032400D01*
X98785063Y-144032400D01*
X98911511Y-144007248D01*
X99030622Y-143957911D01*
X99137820Y-143886283D01*
X99228983Y-143795120D01*
X99280314Y-143718297D01*
X99334791Y-143672770D01*
X99405234Y-143663922D01*
X99469278Y-143694564D01*
X99506589Y-143754965D01*
X99511079Y-143788300D01*
X99511079Y-145358310D01*
X99491077Y-145426431D01*
X99474174Y-145447405D01*
X99383464Y-145538114D01*
X99383456Y-145538124D01*
X99303877Y-145675960D01*
X99303875Y-145675965D01*
X99262679Y-145829709D01*
X99262679Y-145988877D01*
X99303875Y-146142620D01*
X99303877Y-146142625D01*
X99383456Y-146280461D01*
X99383464Y-146280471D01*
X99496000Y-146393007D01*
X99496005Y-146393011D01*
X99496007Y-146393013D01*
X99496008Y-146393014D01*
X99496010Y-146393015D01*
X99592894Y-146448951D01*
X99633851Y-146472597D01*
X99787595Y-146513793D01*
X99787598Y-146513793D01*
X99946760Y-146513793D01*
X99946763Y-146513793D01*
X100100507Y-146472597D01*
X100238351Y-146393013D01*
X100350899Y-146280465D01*
X100430483Y-146142621D01*
X100471679Y-145988877D01*
X100471679Y-145829709D01*
X100430483Y-145675965D01*
X100363478Y-145559909D01*
X100350901Y-145538124D01*
X100350893Y-145538114D01*
X100260184Y-145447405D01*
X100226158Y-145385093D01*
X100223279Y-145358310D01*
X100223279Y-140977594D01*
X100243281Y-140909473D01*
X100260184Y-140888499D01*
X100549363Y-140599320D01*
X100611675Y-140565294D01*
X100638458Y-140562415D01*
X100778646Y-140562415D01*
X100778649Y-140562415D01*
X100932393Y-140521219D01*
X101070237Y-140441635D01*
X101128868Y-140383003D01*
X101191178Y-140348980D01*
X101217962Y-140346100D01*
X102355716Y-140346100D01*
X102355718Y-140346100D01*
X102446287Y-140321833D01*
X102527488Y-140274951D01*
X102878046Y-139924391D01*
X102940356Y-139890368D01*
X103011172Y-139895432D01*
X103068008Y-139937979D01*
X103076259Y-139950488D01*
X103131802Y-140046693D01*
X103131810Y-140046703D01*
X103244346Y-140159239D01*
X103244351Y-140159243D01*
X103244353Y-140159245D01*
X103244354Y-140159246D01*
X103244356Y-140159247D01*
X103290997Y-140186175D01*
X103382197Y-140238829D01*
X103535941Y-140280025D01*
X103535944Y-140280025D01*
X103695106Y-140280025D01*
X103695109Y-140280025D01*
X103848853Y-140238829D01*
X103986697Y-140159245D01*
X104099245Y-140046697D01*
X104178829Y-139908853D01*
X104220025Y-139755109D01*
X104220025Y-139755106D01*
X104222162Y-139747131D01*
X104224341Y-139747714D01*
X104248301Y-139693549D01*
X104307564Y-139654455D01*
X104378556Y-139653606D01*
X104438736Y-139691274D01*
X104449268Y-139704915D01*
X104452815Y-139710223D01*
X104452822Y-139710232D01*
X104543975Y-139801385D01*
X104543981Y-139801390D01*
X104651179Y-139873018D01*
X104770290Y-139922355D01*
X104896738Y-139947507D01*
X104896739Y-139947507D01*
X105025663Y-139947507D01*
X105025664Y-139947507D01*
X105152112Y-139922355D01*
X105271223Y-139873018D01*
X105378421Y-139801390D01*
X105469584Y-139710227D01*
X105541212Y-139603029D01*
X105590549Y-139483918D01*
X105615701Y-139357470D01*
X105615701Y-139228544D01*
X105597508Y-139137083D01*
X105600329Y-139105551D01*
X105601150Y-139073888D01*
X105603468Y-139070477D01*
X105603836Y-139066373D01*
X105623259Y-139041367D01*
X105641067Y-139015176D01*
X105645820Y-139012323D01*
X105647389Y-139010305D01*
X105671729Y-138996574D01*
X105672293Y-138996333D01*
X105777109Y-138952918D01*
X105782100Y-138949582D01*
X105792942Y-138944967D01*
X105816905Y-138942152D01*
X105839924Y-138934919D01*
X105851517Y-138938087D01*
X105863454Y-138936685D01*
X105885136Y-138947273D01*
X105908409Y-138953633D01*
X105916448Y-138962565D01*
X105927250Y-138967840D01*
X105939765Y-138988470D01*
X105955906Y-139006402D01*
X105959061Y-139020275D01*
X105964075Y-139028540D01*
X105963754Y-139040911D01*
X105968300Y-139060897D01*
X105968300Y-149981200D01*
X105948298Y-150049321D01*
X105894642Y-150095814D01*
X105824368Y-150105918D01*
X105759788Y-150076424D01*
X105737535Y-150051202D01*
X105723214Y-150029770D01*
X105697481Y-149991258D01*
X105697478Y-149991255D01*
X105697476Y-149991252D01*
X105606323Y-149900099D01*
X105606317Y-149900094D01*
X105570747Y-149876327D01*
X105499120Y-149828467D01*
X105380009Y-149779130D01*
X105253563Y-149753978D01*
X105253561Y-149753978D01*
X105124635Y-149753978D01*
X105124632Y-149753978D01*
X104998186Y-149779130D01*
X104998181Y-149779132D01*
X104879076Y-149828467D01*
X104771878Y-149900094D01*
X104771872Y-149900099D01*
X104680719Y-149991252D01*
X104680711Y-149991261D01*
X104679603Y-149992921D01*
X104678798Y-149993593D01*
X104676788Y-149996043D01*
X104676323Y-149995661D01*
X104625121Y-150038443D01*
X104554677Y-150047283D01*
X104511846Y-150032028D01*
X104433330Y-149986697D01*
X104433329Y-149986696D01*
X104433328Y-149986696D01*
X104279584Y-149945500D01*
X104120416Y-149945500D01*
X103966672Y-149986696D01*
X103966667Y-149986698D01*
X103828831Y-150066277D01*
X103828821Y-150066285D01*
X103716285Y-150178821D01*
X103716277Y-150178831D01*
X103636698Y-150316667D01*
X103636696Y-150316672D01*
X103595500Y-150470416D01*
X103595500Y-150629584D01*
X103636696Y-150783327D01*
X103636698Y-150783332D01*
X103716277Y-150921168D01*
X103716285Y-150921178D01*
X103828821Y-151033714D01*
X103828826Y-151033718D01*
X103828828Y-151033720D01*
X103966672Y-151113304D01*
X104120416Y-151154500D01*
X104120419Y-151154500D01*
X104279581Y-151154500D01*
X104279584Y-151154500D01*
X104433328Y-151113304D01*
X104571172Y-151033720D01*
X104648498Y-150956393D01*
X104676804Y-150940937D01*
X104704258Y-150923979D01*
X104707747Y-150924041D01*
X104710808Y-150922370D01*
X104742981Y-150924670D01*
X104775243Y-150925247D01*
X104779496Y-150927281D01*
X104781624Y-150927434D01*
X104807588Y-150940722D01*
X104841786Y-150963572D01*
X104887313Y-151018048D01*
X104896160Y-151088492D01*
X104865519Y-151152536D01*
X104860879Y-151157431D01*
X104500927Y-151517385D01*
X104438615Y-151551410D01*
X104411831Y-151554290D01*
X104096538Y-151554290D01*
X104028417Y-151534288D01*
X104007443Y-151517385D01*
X103916733Y-151426675D01*
X103916723Y-151426667D01*
X103778887Y-151347088D01*
X103778885Y-151347087D01*
X103778883Y-151347086D01*
X103625139Y-151305890D01*
X103465971Y-151305890D01*
X103326435Y-151343279D01*
X103312227Y-151347086D01*
X103312222Y-151347088D01*
X103174386Y-151426667D01*
X103174376Y-151426675D01*
X103061840Y-151539211D01*
X103061832Y-151539221D01*
X102982253Y-151677057D01*
X102982251Y-151677062D01*
X102941055Y-151830806D01*
X102941055Y-151830808D01*
X102941055Y-151895197D01*
X102937233Y-151908210D01*
X102938228Y-151921737D01*
X102927426Y-151941612D01*
X102921053Y-151963318D01*
X102910802Y-151972199D01*
X102904326Y-151984117D01*
X102890750Y-151991564D01*
X102923012Y-152006298D01*
X102961396Y-152066024D01*
X102962192Y-152068858D01*
X102970945Y-152101522D01*
X102982250Y-152143715D01*
X102982253Y-152143722D01*
X103061832Y-152281558D01*
X103061840Y-152281568D01*
X103174376Y-152394104D01*
X103174381Y-152394108D01*
X103174383Y-152394110D01*
X103174384Y-152394111D01*
X103174386Y-152394112D01*
X103250266Y-152437921D01*
X103312227Y-152473694D01*
X103465971Y-152514890D01*
X103465974Y-152514890D01*
X103625138Y-152514890D01*
X103625139Y-152514890D01*
X103686985Y-152498318D01*
X103757961Y-152500007D01*
X103816757Y-152539800D01*
X103844706Y-152605064D01*
X103832933Y-152675078D01*
X103808692Y-152709119D01*
X100582917Y-155934895D01*
X100520605Y-155968921D01*
X100493822Y-155971800D01*
X96262883Y-155971800D01*
X96194762Y-155951798D01*
X96173788Y-155934895D01*
X96083078Y-155844185D01*
X96083068Y-155844177D01*
X95945232Y-155764598D01*
X95945230Y-155764597D01*
X95945228Y-155764596D01*
X95791484Y-155723400D01*
X95632316Y-155723400D01*
X95478572Y-155764596D01*
X95478567Y-155764598D01*
X95340731Y-155844177D01*
X95340721Y-155844185D01*
X95228185Y-155956721D01*
X95228179Y-155956729D01*
X95209488Y-155989102D01*
X95158104Y-156038094D01*
X95088390Y-156051528D01*
X95022479Y-156025140D01*
X95011275Y-156015194D01*
X94263005Y-155266924D01*
X94228979Y-155204612D01*
X94226100Y-155177829D01*
X94226100Y-154660434D01*
X95613324Y-154660434D01*
X95613324Y-154660437D01*
X95613324Y-154789363D01*
X95638476Y-154915811D01*
X95687813Y-155034922D01*
X95696132Y-155047372D01*
X95759440Y-155142119D01*
X95759445Y-155142125D01*
X95850598Y-155233278D01*
X95850604Y-155233283D01*
X95957802Y-155304911D01*
X96076913Y-155354248D01*
X96203361Y-155379400D01*
X96203362Y-155379400D01*
X96332286Y-155379400D01*
X96332287Y-155379400D01*
X96458735Y-155354248D01*
X96577846Y-155304911D01*
X96685044Y-155233283D01*
X96776207Y-155142120D01*
X96847835Y-155034922D01*
X96897172Y-154915811D01*
X96922324Y-154789363D01*
X96922324Y-154660437D01*
X96897172Y-154533989D01*
X96847835Y-154414878D01*
X96776207Y-154307680D01*
X96776202Y-154307674D01*
X96685049Y-154216521D01*
X96685043Y-154216516D01*
X96649473Y-154192749D01*
X96577846Y-154144889D01*
X96458735Y-154095552D01*
X96332289Y-154070400D01*
X96332287Y-154070400D01*
X96203361Y-154070400D01*
X96203358Y-154070400D01*
X96076912Y-154095552D01*
X96076907Y-154095554D01*
X95957802Y-154144889D01*
X95850604Y-154216516D01*
X95850598Y-154216521D01*
X95759445Y-154307674D01*
X95759440Y-154307680D01*
X95687813Y-154414878D01*
X95638478Y-154533983D01*
X95638476Y-154533988D01*
X95613324Y-154660434D01*
X94226100Y-154660434D01*
X94226100Y-153684549D01*
X98426285Y-153684549D01*
X98426285Y-153684552D01*
X98426285Y-153813478D01*
X98451437Y-153939926D01*
X98500774Y-154059037D01*
X98508367Y-154070400D01*
X98572401Y-154166234D01*
X98572406Y-154166240D01*
X98663559Y-154257393D01*
X98663565Y-154257398D01*
X98770763Y-154329026D01*
X98889874Y-154378363D01*
X99016322Y-154403515D01*
X99016323Y-154403515D01*
X99145247Y-154403515D01*
X99145248Y-154403515D01*
X99271696Y-154378363D01*
X99390807Y-154329026D01*
X99498005Y-154257398D01*
X99589168Y-154166235D01*
X99660796Y-154059037D01*
X99710133Y-153939926D01*
X99735285Y-153813478D01*
X99735285Y-153684552D01*
X99710133Y-153558104D01*
X99660796Y-153438993D01*
X99589168Y-153331795D01*
X99589163Y-153331789D01*
X99498010Y-153240636D01*
X99498004Y-153240631D01*
X99462434Y-153216864D01*
X99390807Y-153169004D01*
X99271696Y-153119667D01*
X99145250Y-153094515D01*
X99145248Y-153094515D01*
X99016322Y-153094515D01*
X99016319Y-153094515D01*
X98889873Y-153119667D01*
X98889868Y-153119669D01*
X98770763Y-153169004D01*
X98663565Y-153240631D01*
X98663559Y-153240636D01*
X98572406Y-153331789D01*
X98572401Y-153331795D01*
X98500774Y-153438993D01*
X98451439Y-153558098D01*
X98451437Y-153558103D01*
X98426285Y-153684549D01*
X94226100Y-153684549D01*
X94226100Y-150763434D01*
X95057400Y-150763434D01*
X95057400Y-150892365D01*
X95064376Y-150927434D01*
X95082552Y-151018811D01*
X95131889Y-151137922D01*
X95144925Y-151157431D01*
X95203516Y-151245119D01*
X95203521Y-151245125D01*
X95294674Y-151336278D01*
X95294680Y-151336283D01*
X95401878Y-151407911D01*
X95520989Y-151457248D01*
X95647437Y-151482400D01*
X95647438Y-151482400D01*
X95776362Y-151482400D01*
X95776363Y-151482400D01*
X95902811Y-151457248D01*
X96021922Y-151407911D01*
X96129120Y-151336283D01*
X96220283Y-151245120D01*
X96291911Y-151137922D01*
X96341248Y-151018811D01*
X96366400Y-150892363D01*
X96366400Y-150763437D01*
X96341248Y-150636989D01*
X96291911Y-150517878D01*
X96220283Y-150410680D01*
X96220278Y-150410674D01*
X96129125Y-150319521D01*
X96129119Y-150319516D01*
X96074903Y-150283290D01*
X96021922Y-150247889D01*
X95902811Y-150198552D01*
X95776365Y-150173400D01*
X95776363Y-150173400D01*
X95647437Y-150173400D01*
X95647434Y-150173400D01*
X95520988Y-150198552D01*
X95520983Y-150198554D01*
X95401878Y-150247889D01*
X95294680Y-150319516D01*
X95294674Y-150319521D01*
X95203521Y-150410674D01*
X95203516Y-150410680D01*
X95131889Y-150517878D01*
X95082554Y-150636983D01*
X95082552Y-150636988D01*
X95057400Y-150763434D01*
X94226100Y-150763434D01*
X94226100Y-146598795D01*
X94242981Y-146535795D01*
X94255684Y-146513793D01*
X94268204Y-146492108D01*
X94309400Y-146338364D01*
X94309400Y-146179196D01*
X94309400Y-146170937D01*
X94312422Y-146170937D01*
X94321118Y-146115086D01*
X94346016Y-146079668D01*
X94378383Y-146047302D01*
X94450011Y-145940104D01*
X94499348Y-145820993D01*
X94524500Y-145694545D01*
X94524500Y-145565619D01*
X94499348Y-145439171D01*
X94450011Y-145320060D01*
X94378383Y-145212862D01*
X94378378Y-145212856D01*
X94287225Y-145121703D01*
X94287219Y-145121698D01*
X94251649Y-145097931D01*
X94180022Y-145050071D01*
X94060911Y-145000734D01*
X93934465Y-144975582D01*
X93934463Y-144975582D01*
X93805537Y-144975582D01*
X93805534Y-144975582D01*
X93679088Y-145000734D01*
X93679083Y-145000736D01*
X93559978Y-145050071D01*
X93452780Y-145121698D01*
X93452774Y-145121703D01*
X93361621Y-145212856D01*
X93361616Y-145212862D01*
X93289989Y-145320060D01*
X93240654Y-145439165D01*
X93240652Y-145439170D01*
X93215500Y-145565616D01*
X93215500Y-145694547D01*
X93221939Y-145726917D01*
X93235576Y-145795476D01*
X93236266Y-145798941D01*
X93229938Y-145869655D01*
X93221806Y-145886522D01*
X93141600Y-146025443D01*
X93141596Y-146025452D01*
X93100400Y-146179196D01*
X93100400Y-146338364D01*
X93136368Y-146472596D01*
X93141596Y-146492107D01*
X93141598Y-146492112D01*
X93221177Y-146629948D01*
X93221185Y-146629958D01*
X93333721Y-146742494D01*
X93333726Y-146742498D01*
X93333728Y-146742500D01*
X93333729Y-146742501D01*
X93333731Y-146742502D01*
X93450900Y-146810149D01*
X93499893Y-146861531D01*
X93513900Y-146919268D01*
X93513900Y-155330640D01*
X93513900Y-155424402D01*
X93538167Y-155514971D01*
X93538168Y-155514974D01*
X93538170Y-155514977D01*
X93539856Y-155517897D01*
X93540528Y-155520670D01*
X93541328Y-155522600D01*
X93541026Y-155522724D01*
X93556591Y-155586893D01*
X93533367Y-155653984D01*
X93477558Y-155697869D01*
X93463347Y-155702598D01*
X93418578Y-155714594D01*
X93418573Y-155714595D01*
X93418572Y-155714596D01*
X93418571Y-155714596D01*
X93418567Y-155714598D01*
X93280731Y-155794177D01*
X93280721Y-155794185D01*
X93168185Y-155906721D01*
X93168177Y-155906731D01*
X93088598Y-156044567D01*
X93088596Y-156044572D01*
X93047400Y-156198316D01*
X93047400Y-156357484D01*
X93088000Y-156509002D01*
X93088596Y-156511227D01*
X93088598Y-156511232D01*
X93168177Y-156649068D01*
X93168185Y-156649078D01*
X93280721Y-156761614D01*
X93280726Y-156761618D01*
X93280728Y-156761620D01*
X93418572Y-156841204D01*
X93572316Y-156882400D01*
X93572319Y-156882400D01*
X93731481Y-156882400D01*
X93731484Y-156882400D01*
X93885228Y-156841204D01*
X94023072Y-156761620D01*
X94135620Y-156649072D01*
X94215204Y-156511228D01*
X94218927Y-156497333D01*
X94255878Y-156436712D01*
X94319738Y-156405691D01*
X94390233Y-156414119D01*
X94429725Y-156440848D01*
X95232128Y-157243251D01*
X95313329Y-157290133D01*
X95403898Y-157314400D01*
X95403900Y-157314400D01*
X102035745Y-157314400D01*
X102035747Y-157314400D01*
X102126316Y-157290133D01*
X102207517Y-157243251D01*
X102966920Y-156483848D01*
X103660732Y-155790037D01*
X108091174Y-155790037D01*
X108091174Y-155918968D01*
X108101683Y-155971800D01*
X108116326Y-156045414D01*
X108165663Y-156164525D01*
X108181947Y-156188895D01*
X108237290Y-156271722D01*
X108237295Y-156271728D01*
X108328448Y-156362881D01*
X108328454Y-156362886D01*
X108435652Y-156434514D01*
X108554763Y-156483851D01*
X108681211Y-156509003D01*
X108681212Y-156509003D01*
X108810136Y-156509003D01*
X108810137Y-156509003D01*
X108936585Y-156483851D01*
X109055696Y-156434514D01*
X109162894Y-156362886D01*
X109254057Y-156271723D01*
X109325685Y-156164525D01*
X109375022Y-156045414D01*
X109400174Y-155918966D01*
X109400174Y-155790040D01*
X109375022Y-155663592D01*
X109325685Y-155544481D01*
X109254057Y-155437283D01*
X109254052Y-155437277D01*
X109162899Y-155346124D01*
X109162893Y-155346119D01*
X109101219Y-155304910D01*
X109055696Y-155274492D01*
X108936585Y-155225155D01*
X108810139Y-155200003D01*
X108810137Y-155200003D01*
X108681211Y-155200003D01*
X108681208Y-155200003D01*
X108554762Y-155225155D01*
X108554757Y-155225157D01*
X108435652Y-155274492D01*
X108328454Y-155346119D01*
X108328448Y-155346124D01*
X108237295Y-155437277D01*
X108237290Y-155437283D01*
X108165663Y-155544481D01*
X108116328Y-155663586D01*
X108116326Y-155663591D01*
X108091174Y-155790037D01*
X103660732Y-155790037D01*
X103756014Y-155694755D01*
X107234945Y-152215823D01*
X107234951Y-152215817D01*
X107281833Y-152134616D01*
X107306100Y-152044047D01*
X107306100Y-151950285D01*
X107306100Y-150433119D01*
X107306100Y-147388316D01*
X108197400Y-147388316D01*
X108197400Y-147547484D01*
X108207233Y-147584180D01*
X108238596Y-147701227D01*
X108238598Y-147701232D01*
X108318177Y-147839068D01*
X108318185Y-147839078D01*
X108430721Y-147951614D01*
X108430726Y-147951618D01*
X108430728Y-147951620D01*
X108568572Y-148031204D01*
X108722316Y-148072400D01*
X108722319Y-148072400D01*
X108881481Y-148072400D01*
X108881484Y-148072400D01*
X109035228Y-148031204D01*
X109173072Y-147951620D01*
X109285620Y-147839072D01*
X109365204Y-147701228D01*
X109406400Y-147547484D01*
X109406400Y-147388316D01*
X109365204Y-147234572D01*
X109285620Y-147096728D01*
X109285618Y-147096726D01*
X109285614Y-147096721D01*
X109173078Y-146984185D01*
X109173068Y-146984177D01*
X109035232Y-146904598D01*
X109035230Y-146904597D01*
X109035228Y-146904596D01*
X108881484Y-146863400D01*
X108722316Y-146863400D01*
X108568572Y-146904596D01*
X108568567Y-146904598D01*
X108430731Y-146984177D01*
X108430721Y-146984185D01*
X108318185Y-147096721D01*
X108318177Y-147096731D01*
X108238598Y-147234567D01*
X108238596Y-147234572D01*
X108197400Y-147388316D01*
X107306100Y-147388316D01*
X107306100Y-144987060D01*
X108123782Y-144987060D01*
X108123782Y-145115991D01*
X108137049Y-145182686D01*
X108148934Y-145242437D01*
X108198271Y-145361548D01*
X108241625Y-145426431D01*
X108269898Y-145468745D01*
X108269903Y-145468751D01*
X108361056Y-145559904D01*
X108361062Y-145559909D01*
X108468260Y-145631537D01*
X108587371Y-145680874D01*
X108713819Y-145706026D01*
X108713820Y-145706026D01*
X108842744Y-145706026D01*
X108842745Y-145706026D01*
X108969193Y-145680874D01*
X109088304Y-145631537D01*
X109195502Y-145559909D01*
X109286665Y-145468746D01*
X109358293Y-145361548D01*
X109407630Y-145242437D01*
X109432782Y-145115989D01*
X109432782Y-144987063D01*
X109407630Y-144860615D01*
X109358293Y-144741504D01*
X109286665Y-144634306D01*
X109286660Y-144634300D01*
X109195507Y-144543147D01*
X109195501Y-144543142D01*
X109159931Y-144519375D01*
X109088304Y-144471515D01*
X108969193Y-144422178D01*
X108842747Y-144397026D01*
X108842745Y-144397026D01*
X108713819Y-144397026D01*
X108713816Y-144397026D01*
X108587370Y-144422178D01*
X108587365Y-144422180D01*
X108468260Y-144471515D01*
X108361062Y-144543142D01*
X108361056Y-144543147D01*
X108269903Y-144634300D01*
X108269898Y-144634306D01*
X108198271Y-144741504D01*
X108148936Y-144860609D01*
X108148934Y-144860614D01*
X108123782Y-144987060D01*
X107306100Y-144987060D01*
X107306100Y-138435734D01*
X107326102Y-138367613D01*
X107379758Y-138321120D01*
X107450032Y-138311016D01*
X107514612Y-138340510D01*
X107521181Y-138346625D01*
X108000157Y-138825601D01*
X108000158Y-138825602D01*
X108000160Y-138825603D01*
X108092939Y-138879169D01*
X108092942Y-138879170D01*
X108196430Y-138906900D01*
X108196431Y-138906900D01*
X108196434Y-138906900D01*
X108204618Y-138907978D01*
X108204177Y-138911325D01*
X108257227Y-138926902D01*
X108278201Y-138943805D01*
X108342774Y-139008378D01*
X108342780Y-139008383D01*
X108449978Y-139080011D01*
X108569089Y-139129348D01*
X108695537Y-139154500D01*
X108695538Y-139154500D01*
X108824462Y-139154500D01*
X108824463Y-139154500D01*
X108950911Y-139129348D01*
X109070022Y-139080011D01*
X109177220Y-139008383D01*
X109268383Y-138917220D01*
X109340011Y-138810022D01*
X109389348Y-138690911D01*
X109414500Y-138564463D01*
X109414500Y-138435537D01*
X109389348Y-138309089D01*
X109340011Y-138189978D01*
X109305120Y-138137761D01*
X109283906Y-138070009D01*
X109302689Y-138001542D01*
X109339887Y-137962993D01*
X109347023Y-137958225D01*
X109359981Y-137949567D01*
X109501567Y-137807981D01*
X109612810Y-137641493D01*
X109689436Y-137456502D01*
X109728500Y-137260116D01*
X109728500Y-135535884D01*
X109689436Y-135339498D01*
X109612810Y-135154507D01*
X109501567Y-134988019D01*
X109501565Y-134988017D01*
X109501560Y-134988011D01*
X109359988Y-134846439D01*
X109359982Y-134846434D01*
X109333908Y-134829012D01*
X109193493Y-134735190D01*
X109017524Y-134662301D01*
X109008505Y-134658565D01*
X109008502Y-134658564D01*
X108812119Y-134619500D01*
X108812116Y-134619500D01*
X108657198Y-134619500D01*
X108589077Y-134599498D01*
X108542584Y-134545842D01*
X108532480Y-134475568D01*
X108561974Y-134410988D01*
X108568103Y-134404405D01*
X109745937Y-133226572D01*
X111210704Y-131761805D01*
X111273016Y-131727779D01*
X111299799Y-131724900D01*
X111824094Y-131724900D01*
X111892215Y-131744902D01*
X111913189Y-131761805D01*
X111977762Y-131826378D01*
X111977768Y-131826383D01*
X112084966Y-131898011D01*
X112204077Y-131947348D01*
X112330525Y-131972500D01*
X112330526Y-131972500D01*
X112459450Y-131972500D01*
X112459451Y-131972500D01*
X112585899Y-131947348D01*
X112705010Y-131898011D01*
X112812208Y-131826383D01*
X112903371Y-131735220D01*
X112974999Y-131628022D01*
X113024336Y-131508911D01*
X113049488Y-131382463D01*
X113049488Y-131253537D01*
X113024336Y-131127089D01*
X112974999Y-131007978D01*
X112903371Y-130900780D01*
X112903366Y-130900774D01*
X112838793Y-130836201D01*
X112804767Y-130773889D01*
X112801888Y-130747106D01*
X112801888Y-130691419D01*
X112800664Y-130686849D01*
X112774158Y-130587930D01*
X112720589Y-130495145D01*
X112720586Y-130495142D01*
X112720583Y-130495138D01*
X110650185Y-128424740D01*
X110616159Y-128362428D01*
X110613280Y-128335645D01*
X110613280Y-127600847D01*
X110613279Y-127600843D01*
X110585550Y-127497359D01*
X110585549Y-127497356D01*
X110531983Y-127404577D01*
X110531979Y-127404572D01*
X110498525Y-127371118D01*
X110456222Y-127328815D01*
X110216890Y-127089483D01*
X110182864Y-127027171D01*
X110187929Y-126956356D01*
X110216890Y-126911293D01*
X111054284Y-126073899D01*
X112124581Y-125003602D01*
X113208877Y-123919305D01*
X113271187Y-123885282D01*
X113342002Y-123890346D01*
X113398838Y-123932893D01*
X113423649Y-123999413D01*
X113421549Y-124032983D01*
X113395260Y-124165145D01*
X113395260Y-124343374D01*
X113430029Y-124518169D01*
X113498227Y-124682810D01*
X113498229Y-124682814D01*
X113523069Y-124719989D01*
X113575564Y-124798555D01*
X113597243Y-124830999D01*
X113597248Y-124831005D01*
X113723254Y-124957011D01*
X113723260Y-124957016D01*
X113723262Y-124957018D01*
X113861672Y-125049500D01*
X113871445Y-125056030D01*
X113871449Y-125056032D01*
X114036090Y-125124230D01*
X114036094Y-125124230D01*
X114036097Y-125124232D01*
X114197436Y-125156323D01*
X114260345Y-125189230D01*
X114295477Y-125250925D01*
X114291677Y-125321820D01*
X114250152Y-125379406D01*
X114197437Y-125403481D01*
X114051058Y-125432599D01*
X114051057Y-125432599D01*
X113895744Y-125496932D01*
X113819285Y-125548019D01*
X114150463Y-125879197D01*
X114145606Y-125880499D01*
X114054394Y-125933160D01*
X113979920Y-126007634D01*
X113927259Y-126098846D01*
X113925957Y-126103703D01*
X113594779Y-125772525D01*
X113543692Y-125848984D01*
X113479359Y-126004297D01*
X113479358Y-126004300D01*
X113446560Y-126169185D01*
X113446560Y-126337294D01*
X113479358Y-126502179D01*
X113479359Y-126502182D01*
X113543691Y-126657493D01*
X113594779Y-126733952D01*
X113925956Y-126402774D01*
X113927259Y-126407634D01*
X113979920Y-126498846D01*
X114054394Y-126573320D01*
X114145606Y-126625981D01*
X114150462Y-126627282D01*
X113819285Y-126958459D01*
X113819285Y-126958460D01*
X113895740Y-127009545D01*
X113895744Y-127009547D01*
X114051057Y-127073880D01*
X114051060Y-127073881D01*
X114191650Y-127101847D01*
X114408349Y-127101847D01*
X114548939Y-127073881D01*
X114548942Y-127073880D01*
X114704254Y-127009547D01*
X114780712Y-126958460D01*
X114449536Y-126627282D01*
X114454394Y-126625981D01*
X114545606Y-126573320D01*
X114620080Y-126498846D01*
X114672741Y-126407634D01*
X114674042Y-126402775D01*
X115024595Y-126753327D01*
X115058620Y-126815640D01*
X115061500Y-126842423D01*
X115061500Y-127439727D01*
X115041498Y-127507848D01*
X114987842Y-127554341D01*
X114917568Y-127564445D01*
X114865498Y-127544492D01*
X114855421Y-127537759D01*
X114728555Y-127452990D01*
X114728556Y-127452990D01*
X114728554Y-127452989D01*
X114728550Y-127452987D01*
X114563909Y-127384789D01*
X114408350Y-127353847D01*
X114408349Y-127353847D01*
X114389109Y-127350020D01*
X114210891Y-127350020D01*
X114191651Y-127353847D01*
X114191650Y-127353847D01*
X114141042Y-127363913D01*
X114036097Y-127384788D01*
X114036095Y-127384788D01*
X114036089Y-127384790D01*
X113871449Y-127452987D01*
X113871445Y-127452989D01*
X113723260Y-127552003D01*
X113723254Y-127552008D01*
X113597248Y-127678014D01*
X113597243Y-127678020D01*
X113498229Y-127826205D01*
X113498227Y-127826209D01*
X113430029Y-127990850D01*
X113395260Y-128165645D01*
X113395260Y-128343874D01*
X113430029Y-128518669D01*
X113498227Y-128683310D01*
X113498229Y-128683314D01*
X113525590Y-128724262D01*
X113591768Y-128823306D01*
X113597243Y-128831499D01*
X113597248Y-128831505D01*
X113723254Y-128957511D01*
X113723260Y-128957516D01*
X113723262Y-128957518D01*
X113841275Y-129036371D01*
X113871445Y-129056530D01*
X113871449Y-129056532D01*
X114036089Y-129124729D01*
X114036090Y-129124729D01*
X114036097Y-129124732D01*
X114065958Y-129130671D01*
X114128866Y-129163579D01*
X114163998Y-129225274D01*
X114160198Y-129296169D01*
X114118672Y-129353755D01*
X114065958Y-129377828D01*
X114036097Y-129383768D01*
X114036095Y-129383768D01*
X114036089Y-129383770D01*
X113871449Y-129451967D01*
X113871445Y-129451969D01*
X113723260Y-129550983D01*
X113723254Y-129550988D01*
X113597248Y-129676994D01*
X113597243Y-129677000D01*
X113498229Y-129825185D01*
X113498227Y-129825189D01*
X113430029Y-129989830D01*
X113395260Y-130164625D01*
X113395260Y-130342854D01*
X113430029Y-130517649D01*
X113498227Y-130682290D01*
X113498229Y-130682294D01*
X113538499Y-130742563D01*
X113578695Y-130802721D01*
X113597243Y-130830479D01*
X113597248Y-130830485D01*
X113723254Y-130956491D01*
X113723260Y-130956496D01*
X113723262Y-130956498D01*
X113859281Y-131047382D01*
X113871445Y-131055510D01*
X113871449Y-131055512D01*
X114036089Y-131123709D01*
X114036090Y-131123709D01*
X114036097Y-131123712D01*
X114072341Y-131130921D01*
X114135250Y-131163829D01*
X114170382Y-131225524D01*
X114166582Y-131296419D01*
X114125056Y-131354005D01*
X114072341Y-131378078D01*
X114036097Y-131385288D01*
X114036095Y-131385288D01*
X114036089Y-131385290D01*
X113871449Y-131453487D01*
X113871445Y-131453489D01*
X113723260Y-131552503D01*
X113723254Y-131552508D01*
X113597248Y-131678514D01*
X113597243Y-131678520D01*
X113498229Y-131826705D01*
X113498227Y-131826709D01*
X113430029Y-131991350D01*
X113395260Y-132166145D01*
X113395260Y-132344374D01*
X113430029Y-132519169D01*
X113498227Y-132683810D01*
X113498229Y-132683814D01*
X113597243Y-132831999D01*
X113597248Y-132832005D01*
X113645648Y-132880405D01*
X113679674Y-132942717D01*
X113674609Y-133013532D01*
X113632062Y-133070368D01*
X113565542Y-133095179D01*
X113556553Y-133095500D01*
X112319896Y-133095500D01*
X112175905Y-133124143D01*
X112172587Y-133124802D01*
X112172584Y-133124804D01*
X112033820Y-133182282D01*
X111908934Y-133265727D01*
X111908930Y-133265730D01*
X110659730Y-134514930D01*
X110659727Y-134514934D01*
X110629755Y-134559792D01*
X110589192Y-134620500D01*
X110576282Y-134639821D01*
X110553775Y-134694158D01*
X110518804Y-134778584D01*
X110518803Y-134778585D01*
X110488292Y-134931971D01*
X110485755Y-134931466D01*
X110465169Y-134982403D01*
X110465872Y-134982873D01*
X110463615Y-134986250D01*
X110463379Y-134986835D01*
X110462477Y-134987952D01*
X110351190Y-135154507D01*
X110274565Y-135339494D01*
X110274564Y-135339497D01*
X110235500Y-135535880D01*
X110235500Y-137260119D01*
X110274564Y-137456502D01*
X110274565Y-137456505D01*
X110282863Y-137476537D01*
X110351190Y-137641493D01*
X110442879Y-137778716D01*
X110462434Y-137807982D01*
X110462439Y-137807988D01*
X110604011Y-137949560D01*
X110604015Y-137949563D01*
X110604019Y-137949567D01*
X110770507Y-138060810D01*
X110955498Y-138137436D01*
X111151884Y-138176500D01*
X111352116Y-138176500D01*
X111548502Y-138137436D01*
X111733493Y-138060810D01*
X111899981Y-137949567D01*
X112041567Y-137807981D01*
X112152810Y-137641493D01*
X112229436Y-137456502D01*
X112268500Y-137260116D01*
X112268500Y-135535884D01*
X112229436Y-135339498D01*
X112229434Y-135339494D01*
X112229432Y-135339486D01*
X112192064Y-135249274D01*
X112184474Y-135178685D01*
X112216252Y-135115197D01*
X112219346Y-135111990D01*
X112673934Y-134657404D01*
X112736246Y-134623379D01*
X112763029Y-134620500D01*
X113159123Y-134620500D01*
X113227244Y-134640502D01*
X113273737Y-134694158D01*
X113283841Y-134764432D01*
X113254347Y-134829012D01*
X113229124Y-134851265D01*
X113176729Y-134886273D01*
X113176718Y-134886282D01*
X113042282Y-135020718D01*
X113042277Y-135020725D01*
X112936651Y-135178805D01*
X112863894Y-135354456D01*
X112863892Y-135354461D01*
X112826800Y-135540933D01*
X112826800Y-136239250D01*
X113308616Y-136239250D01*
X113284000Y-136331120D01*
X113284000Y-136464880D01*
X113308616Y-136556750D01*
X112826800Y-136556750D01*
X112826800Y-137255066D01*
X112863892Y-137441538D01*
X112863894Y-137441543D01*
X112936651Y-137617194D01*
X113042277Y-137775274D01*
X113042282Y-137775281D01*
X113176718Y-137909717D01*
X113176725Y-137909722D01*
X113334805Y-138015348D01*
X113510456Y-138088105D01*
X113510461Y-138088107D01*
X113633250Y-138112531D01*
X113633250Y-136881383D01*
X113725120Y-136906000D01*
X113858880Y-136906000D01*
X113950750Y-136881383D01*
X113950750Y-138112530D01*
X114073538Y-138088107D01*
X114073543Y-138088105D01*
X114249194Y-138015348D01*
X114407274Y-137909722D01*
X114407281Y-137909717D01*
X114541717Y-137775281D01*
X114541722Y-137775274D01*
X114647348Y-137617194D01*
X114720105Y-137441543D01*
X114720107Y-137441538D01*
X114757199Y-137255066D01*
X114757200Y-137255062D01*
X114757200Y-136556750D01*
X114275384Y-136556750D01*
X114300000Y-136464880D01*
X114300000Y-136331120D01*
X114275384Y-136239250D01*
X114757200Y-136239250D01*
X114757200Y-135540937D01*
X114757199Y-135540933D01*
X114720107Y-135354461D01*
X114720105Y-135354456D01*
X114647348Y-135178805D01*
X114541722Y-135020725D01*
X114541717Y-135020718D01*
X114407281Y-134886282D01*
X114407270Y-134886273D01*
X114354876Y-134851265D01*
X114309348Y-134796789D01*
X114300499Y-134726346D01*
X114331140Y-134662301D01*
X114391542Y-134624990D01*
X114424877Y-134620500D01*
X115010100Y-134620500D01*
X115157413Y-134591197D01*
X115296179Y-134533718D01*
X115324290Y-134514935D01*
X115421065Y-134450273D01*
X116416273Y-133455065D01*
X116499718Y-133330179D01*
X116557197Y-133191413D01*
X116586500Y-133044100D01*
X116586500Y-132893900D01*
X116586500Y-121082900D01*
X116557197Y-120935587D01*
X116499718Y-120796821D01*
X116472944Y-120756751D01*
X116416272Y-120671934D01*
X116416271Y-120671933D01*
X116416268Y-120671929D01*
X115099405Y-119355066D01*
X115065379Y-119292754D01*
X115062500Y-119265971D01*
X115062500Y-118966822D01*
X115082502Y-118898701D01*
X115118500Y-118862056D01*
X115133484Y-118852044D01*
X115173265Y-118792508D01*
X115189734Y-118767861D01*
X115204500Y-118693627D01*
X115204499Y-117343494D01*
X115204498Y-117343491D01*
X115204498Y-117343486D01*
X115189734Y-117269259D01*
X115133483Y-117185075D01*
X115049302Y-117128826D01*
X114975069Y-117114060D01*
X114975067Y-117114060D01*
X114648576Y-117114060D01*
X114580455Y-117094058D01*
X114533962Y-117040402D01*
X114523858Y-116970128D01*
X114553352Y-116905548D01*
X114600358Y-116871651D01*
X114614825Y-116865658D01*
X114728441Y-116818597D01*
X114876585Y-116719611D01*
X115002571Y-116593625D01*
X115101557Y-116445481D01*
X115169740Y-116280873D01*
X115204500Y-116106125D01*
X115204500Y-115927955D01*
X115169740Y-115753207D01*
X115101557Y-115588599D01*
X115002571Y-115440455D01*
X115002569Y-115440453D01*
X115002564Y-115440447D01*
X114876592Y-115314475D01*
X114876586Y-115314470D01*
X114876585Y-115314469D01*
X114728441Y-115215483D01*
X114624640Y-115172487D01*
X114563836Y-115147301D01*
X114563833Y-115147300D01*
X114407121Y-115116127D01*
X114407118Y-115116127D01*
X114389085Y-115112540D01*
X114210915Y-115112540D01*
X114192882Y-115116127D01*
X114192879Y-115116127D01*
X114097260Y-115135147D01*
X114036167Y-115147300D01*
X114036165Y-115147300D01*
X114036164Y-115147301D01*
X114036163Y-115147301D01*
X113890529Y-115207625D01*
X113857389Y-115211187D01*
X113824379Y-115215934D01*
X113822256Y-115214964D01*
X113819939Y-115215214D01*
X113790118Y-115200286D01*
X113759799Y-115186440D01*
X113758539Y-115184479D01*
X113756452Y-115183435D01*
X113739429Y-115154744D01*
X113721415Y-115126714D01*
X113720972Y-115123636D01*
X113720225Y-115122377D01*
X113716311Y-115091216D01*
X113716311Y-114885817D01*
X113736313Y-114817696D01*
X113789969Y-114771203D01*
X113860243Y-114761099D01*
X113890529Y-114769408D01*
X114051125Y-114835929D01*
X114051130Y-114835931D01*
X114192878Y-114864127D01*
X114407121Y-114864127D01*
X114548869Y-114835931D01*
X114548874Y-114835929D01*
X114704142Y-114771615D01*
X114780539Y-114720566D01*
X114449536Y-114389562D01*
X114454394Y-114388261D01*
X114545606Y-114335600D01*
X114620080Y-114261126D01*
X114672741Y-114169914D01*
X114674042Y-114165056D01*
X115005046Y-114496059D01*
X115056095Y-114419662D01*
X115120409Y-114264394D01*
X115120411Y-114264389D01*
X115153199Y-114099555D01*
X115153200Y-114099551D01*
X115153200Y-113931488D01*
X115153199Y-113931484D01*
X115120411Y-113766650D01*
X115120409Y-113766645D01*
X115056094Y-113611374D01*
X115005047Y-113534979D01*
X115005046Y-113534979D01*
X114674042Y-113865982D01*
X114672741Y-113861126D01*
X114620080Y-113769914D01*
X114545606Y-113695440D01*
X114454394Y-113642779D01*
X114449534Y-113641476D01*
X114780539Y-113310471D01*
X114704141Y-113259424D01*
X114548874Y-113195110D01*
X114548869Y-113195108D01*
X114401335Y-113165761D01*
X114338425Y-113132853D01*
X114303294Y-113071158D01*
X114307095Y-113000263D01*
X114348620Y-112942677D01*
X114401333Y-112918603D01*
X114563833Y-112886280D01*
X114728441Y-112818097D01*
X114876585Y-112719111D01*
X115002571Y-112593125D01*
X115101557Y-112444981D01*
X115169740Y-112280373D01*
X115204500Y-112105625D01*
X115204500Y-111927455D01*
X115169740Y-111752707D01*
X115101557Y-111588099D01*
X115002571Y-111439955D01*
X115002569Y-111439953D01*
X114998640Y-111435165D01*
X115000068Y-111433993D01*
X114999819Y-111433538D01*
X114992455Y-111428025D01*
X114983071Y-111402866D01*
X114970202Y-111379299D01*
X114970858Y-111370122D01*
X114967644Y-111361505D01*
X114973351Y-111335268D01*
X114975267Y-111308484D01*
X114981178Y-111299285D01*
X114982735Y-111292131D01*
X115004228Y-111263421D01*
X115035402Y-111232247D01*
X115621276Y-110646373D01*
X115671502Y-110559379D01*
X115697500Y-110462351D01*
X115697500Y-110361901D01*
X115697500Y-107966000D01*
X115717502Y-107897879D01*
X115771158Y-107851386D01*
X115823500Y-107840000D01*
X116933694Y-107840000D01*
X117001815Y-107860002D01*
X117048308Y-107913658D01*
X117059692Y-107965390D01*
X117139326Y-124437755D01*
X117303575Y-158413391D01*
X117283902Y-158481608D01*
X117230472Y-158528359D01*
X117177576Y-158540000D01*
X78956000Y-158540000D01*
X78887879Y-158519998D01*
X78841386Y-158466342D01*
X78830000Y-158414000D01*
X78830000Y-152063434D01*
X89197400Y-152063434D01*
X89197400Y-152192365D01*
X89212145Y-152266490D01*
X89222552Y-152318811D01*
X89271889Y-152437922D01*
X89312245Y-152498318D01*
X89343516Y-152545119D01*
X89343521Y-152545125D01*
X89434674Y-152636278D01*
X89434680Y-152636283D01*
X89541878Y-152707911D01*
X89660989Y-152757248D01*
X89787437Y-152782400D01*
X89787438Y-152782400D01*
X89916362Y-152782400D01*
X89916363Y-152782400D01*
X90042811Y-152757248D01*
X90161922Y-152707911D01*
X90269120Y-152636283D01*
X90360283Y-152545120D01*
X90431911Y-152437922D01*
X90481248Y-152318811D01*
X90506400Y-152192363D01*
X90506400Y-152063437D01*
X90481248Y-151936989D01*
X90431911Y-151817878D01*
X90360283Y-151710680D01*
X90360278Y-151710674D01*
X90269125Y-151619521D01*
X90269119Y-151619516D01*
X90222341Y-151588260D01*
X90161922Y-151547889D01*
X90042811Y-151498552D01*
X89916365Y-151473400D01*
X89916363Y-151473400D01*
X89787437Y-151473400D01*
X89787434Y-151473400D01*
X89660988Y-151498552D01*
X89660983Y-151498554D01*
X89541878Y-151547889D01*
X89434680Y-151619516D01*
X89434674Y-151619521D01*
X89343521Y-151710674D01*
X89343516Y-151710680D01*
X89271889Y-151817878D01*
X89222554Y-151936983D01*
X89222552Y-151936988D01*
X89197400Y-152063434D01*
X78830000Y-152063434D01*
X78830000Y-128442028D01*
X78850002Y-128373907D01*
X78903658Y-128327414D01*
X78973932Y-128317310D01*
X79026001Y-128337262D01*
X79089978Y-128380011D01*
X79209089Y-128429348D01*
X79335537Y-128454500D01*
X79335538Y-128454500D01*
X79464462Y-128454500D01*
X79464463Y-128454500D01*
X79477915Y-128451824D01*
X79548628Y-128458149D01*
X79604697Y-128501701D01*
X79628319Y-128568653D01*
X79628500Y-128575402D01*
X79628500Y-133805610D01*
X79638453Y-133855647D01*
X79662683Y-133977458D01*
X79729735Y-134139336D01*
X79827080Y-134285023D01*
X79827082Y-134285025D01*
X81176054Y-135633997D01*
X81210080Y-135696309D01*
X81212959Y-135723410D01*
X81209690Y-137019912D01*
X81207269Y-137044173D01*
X81194001Y-137110881D01*
X81194000Y-137110893D01*
X81194000Y-137289114D01*
X81228769Y-137463909D01*
X81296967Y-137628550D01*
X81296969Y-137628554D01*
X81319080Y-137661645D01*
X81395008Y-137775281D01*
X81395983Y-137776739D01*
X81395988Y-137776745D01*
X81521994Y-137902751D01*
X81522000Y-137902756D01*
X81522002Y-137902758D01*
X81633222Y-137977072D01*
X81670185Y-138001770D01*
X81670189Y-138001772D01*
X81834830Y-138069970D01*
X81834834Y-138069970D01*
X81834837Y-138069972D01*
X81967414Y-138096342D01*
X82009625Y-138104739D01*
X82009628Y-138104739D01*
X82009631Y-138104740D01*
X82009632Y-138104740D01*
X82187848Y-138104740D01*
X82187849Y-138104740D01*
X82362643Y-138069972D01*
X82362646Y-138069970D01*
X82362649Y-138069970D01*
X82527290Y-138001772D01*
X82527289Y-138001772D01*
X82527295Y-138001770D01*
X82675478Y-137902758D01*
X82801498Y-137776738D01*
X82900510Y-137628555D01*
X82918547Y-137585010D01*
X82968710Y-137463909D01*
X82968710Y-137463906D01*
X82968712Y-137463903D01*
X82975921Y-137427658D01*
X83008829Y-137364749D01*
X83070524Y-137329617D01*
X83141418Y-137333417D01*
X83199004Y-137374943D01*
X83223079Y-137427659D01*
X83230289Y-137463909D01*
X83298487Y-137628550D01*
X83298489Y-137628554D01*
X83320600Y-137661645D01*
X83396528Y-137775281D01*
X83397503Y-137776739D01*
X83397508Y-137776745D01*
X83523514Y-137902751D01*
X83523520Y-137902756D01*
X83523522Y-137902758D01*
X83634742Y-137977072D01*
X83671705Y-138001770D01*
X83671709Y-138001772D01*
X83836350Y-138069970D01*
X83836354Y-138069970D01*
X83836357Y-138069972D01*
X83968934Y-138096342D01*
X84011145Y-138104739D01*
X84011148Y-138104739D01*
X84011151Y-138104740D01*
X84011152Y-138104740D01*
X84189368Y-138104740D01*
X84189369Y-138104740D01*
X84364163Y-138069972D01*
X84364166Y-138069970D01*
X84364169Y-138069970D01*
X84528810Y-138001772D01*
X84528809Y-138001772D01*
X84528815Y-138001770D01*
X84676998Y-137902758D01*
X84803018Y-137776738D01*
X84902030Y-137628555D01*
X84920067Y-137585010D01*
X84970230Y-137463909D01*
X84970230Y-137463906D01*
X84970232Y-137463903D01*
X84976171Y-137434041D01*
X85009078Y-137371133D01*
X85070773Y-137336001D01*
X85141668Y-137339801D01*
X85199254Y-137381326D01*
X85223328Y-137434041D01*
X85225340Y-137444155D01*
X85229269Y-137463909D01*
X85297467Y-137628550D01*
X85297469Y-137628554D01*
X85319580Y-137661645D01*
X85395508Y-137775281D01*
X85396483Y-137776739D01*
X85396488Y-137776745D01*
X85522494Y-137902751D01*
X85522500Y-137902756D01*
X85522502Y-137902758D01*
X85633722Y-137977072D01*
X85670685Y-138001770D01*
X85670689Y-138001772D01*
X85835330Y-138069970D01*
X85835334Y-138069970D01*
X85835337Y-138069972D01*
X85967914Y-138096342D01*
X86010125Y-138104739D01*
X86010128Y-138104739D01*
X86010131Y-138104740D01*
X86010132Y-138104740D01*
X86188348Y-138104740D01*
X86188349Y-138104740D01*
X86363143Y-138069972D01*
X86363146Y-138069970D01*
X86363149Y-138069970D01*
X86527790Y-138001772D01*
X86527789Y-138001772D01*
X86527795Y-138001770D01*
X86675978Y-137902758D01*
X86801998Y-137776738D01*
X86901010Y-137628555D01*
X86919047Y-137585010D01*
X86969210Y-137463909D01*
X86969210Y-137463906D01*
X86969212Y-137463903D01*
X86976421Y-137427658D01*
X87009329Y-137364749D01*
X87071024Y-137329617D01*
X87141918Y-137333417D01*
X87199504Y-137374943D01*
X87223579Y-137427659D01*
X87230789Y-137463909D01*
X87298987Y-137628550D01*
X87298989Y-137628554D01*
X87321100Y-137661645D01*
X87397028Y-137775281D01*
X87398003Y-137776739D01*
X87398008Y-137776745D01*
X87524014Y-137902751D01*
X87524020Y-137902756D01*
X87524022Y-137902758D01*
X87635242Y-137977072D01*
X87672205Y-138001770D01*
X87672209Y-138001772D01*
X87836850Y-138069970D01*
X87836854Y-138069970D01*
X87836857Y-138069972D01*
X87969434Y-138096342D01*
X88011645Y-138104739D01*
X88011648Y-138104739D01*
X88011651Y-138104740D01*
X88011652Y-138104740D01*
X88189868Y-138104740D01*
X88189869Y-138104740D01*
X88364663Y-138069972D01*
X88364666Y-138069970D01*
X88364669Y-138069970D01*
X88529310Y-138001772D01*
X88529309Y-138001772D01*
X88529315Y-138001770D01*
X88677498Y-137902758D01*
X88803518Y-137776738D01*
X88902530Y-137628555D01*
X88920567Y-137585010D01*
X88970730Y-137463909D01*
X88970730Y-137463906D01*
X88970732Y-137463903D01*
X88976671Y-137434041D01*
X89009578Y-137371133D01*
X89071273Y-137336001D01*
X89142168Y-137339801D01*
X89199754Y-137381326D01*
X89223828Y-137434041D01*
X89225840Y-137444155D01*
X89229769Y-137463909D01*
X89297967Y-137628550D01*
X89297969Y-137628554D01*
X89320080Y-137661645D01*
X89396008Y-137775281D01*
X89396983Y-137776739D01*
X89396988Y-137776745D01*
X89522994Y-137902751D01*
X89523000Y-137902756D01*
X89523002Y-137902758D01*
X89634222Y-137977072D01*
X89671185Y-138001770D01*
X89671189Y-138001772D01*
X89835830Y-138069970D01*
X89835834Y-138069970D01*
X89835837Y-138069972D01*
X89968414Y-138096342D01*
X90010625Y-138104739D01*
X90010628Y-138104739D01*
X90010631Y-138104740D01*
X90010632Y-138104740D01*
X90188848Y-138104740D01*
X90188849Y-138104740D01*
X90363643Y-138069972D01*
X90363646Y-138069970D01*
X90363649Y-138069970D01*
X90528290Y-138001772D01*
X90528289Y-138001772D01*
X90528295Y-138001770D01*
X90646321Y-137922908D01*
X90714071Y-137901694D01*
X90782538Y-137920477D01*
X90829981Y-137973294D01*
X90842320Y-138027674D01*
X90842320Y-139385300D01*
X90866586Y-139475866D01*
X90866589Y-139475874D01*
X90913466Y-139557067D01*
X90913468Y-139557069D01*
X90913469Y-139557071D01*
X91418596Y-140062198D01*
X91452620Y-140124509D01*
X91455500Y-140151292D01*
X91455500Y-140279584D01*
X91480383Y-140372447D01*
X91496696Y-140433327D01*
X91496698Y-140433332D01*
X91576277Y-140571168D01*
X91576285Y-140571178D01*
X91688821Y-140683714D01*
X91688826Y-140683718D01*
X91688828Y-140683720D01*
X91826672Y-140763304D01*
X91980416Y-140804500D01*
X91980419Y-140804500D01*
X92139581Y-140804500D01*
X92139584Y-140804500D01*
X92293328Y-140763304D01*
X92431172Y-140683720D01*
X92543720Y-140571172D01*
X92623304Y-140433328D01*
X92664500Y-140279584D01*
X92664500Y-140120416D01*
X92623304Y-139966672D01*
X92569233Y-139873018D01*
X92543722Y-139828831D01*
X92543714Y-139828821D01*
X92431178Y-139716285D01*
X92431168Y-139716277D01*
X92293332Y-139636698D01*
X92293330Y-139636697D01*
X92293328Y-139636696D01*
X92139584Y-139595500D01*
X92011292Y-139595500D01*
X91943171Y-139575498D01*
X91922197Y-139558595D01*
X91591425Y-139227823D01*
X91557399Y-139165511D01*
X91554520Y-139138728D01*
X91554520Y-138085861D01*
X91574522Y-138017740D01*
X91628178Y-137971247D01*
X91698452Y-137961143D01*
X91728738Y-137969452D01*
X91852317Y-138020640D01*
X91852320Y-138020641D01*
X92017205Y-138053439D01*
X92017209Y-138053440D01*
X92185311Y-138053440D01*
X92185314Y-138053439D01*
X92350199Y-138020641D01*
X92350202Y-138020640D01*
X92505514Y-137956307D01*
X92581972Y-137905220D01*
X92250795Y-137574042D01*
X92255654Y-137572741D01*
X92346866Y-137520080D01*
X92421340Y-137445606D01*
X92474001Y-137354394D01*
X92475302Y-137349536D01*
X92814303Y-137688535D01*
X92841617Y-137729413D01*
X92854490Y-137760491D01*
X92891989Y-137851022D01*
X92938398Y-137920477D01*
X92963616Y-137958219D01*
X92963621Y-137958225D01*
X93054774Y-138049378D01*
X93054780Y-138049383D01*
X93161978Y-138121011D01*
X93281089Y-138170348D01*
X93407537Y-138195500D01*
X93407538Y-138195500D01*
X93536462Y-138195500D01*
X93536463Y-138195500D01*
X93662911Y-138170348D01*
X93782022Y-138121011D01*
X93889220Y-138049383D01*
X93980383Y-137958220D01*
X94052011Y-137851022D01*
X94101348Y-137731911D01*
X94126500Y-137605463D01*
X94126500Y-137476537D01*
X94101348Y-137350089D01*
X94052011Y-137230978D01*
X93980383Y-137123780D01*
X93980378Y-137123774D01*
X93889225Y-137032621D01*
X93889219Y-137032616D01*
X93799011Y-136972341D01*
X93782022Y-136960989D01*
X93662911Y-136911652D01*
X93536465Y-136886500D01*
X93536463Y-136886500D01*
X93407537Y-136886500D01*
X93407534Y-136886500D01*
X93281088Y-136911652D01*
X93281083Y-136911654D01*
X93161977Y-136960989D01*
X93161975Y-136960990D01*
X93104819Y-136999180D01*
X93037066Y-137020394D01*
X92968600Y-137001610D01*
X92921157Y-136948792D01*
X92918410Y-136942632D01*
X92857567Y-136795744D01*
X92857565Y-136795740D01*
X92806480Y-136719285D01*
X92475302Y-137050462D01*
X92474001Y-137045606D01*
X92421340Y-136954394D01*
X92346866Y-136879920D01*
X92255654Y-136827259D01*
X92250795Y-136825957D01*
X92581972Y-136494779D01*
X92505513Y-136443691D01*
X92350202Y-136379359D01*
X92350199Y-136379358D01*
X92185314Y-136346560D01*
X92017205Y-136346560D01*
X91852320Y-136379358D01*
X91852317Y-136379359D01*
X91764051Y-136415920D01*
X91693461Y-136423509D01*
X91629974Y-136391729D01*
X91593747Y-136330671D01*
X91596281Y-136259720D01*
X91606712Y-136236514D01*
X91606934Y-136236131D01*
X91634500Y-136133253D01*
X91634500Y-136026747D01*
X91606934Y-135923869D01*
X91553680Y-135831631D01*
X91553678Y-135831629D01*
X91553674Y-135831624D01*
X91478375Y-135756325D01*
X91478365Y-135756317D01*
X91386135Y-135703068D01*
X91386132Y-135703067D01*
X91386131Y-135703066D01*
X91386129Y-135703065D01*
X91386128Y-135703065D01*
X91358561Y-135695678D01*
X91283253Y-135675500D01*
X91176747Y-135675500D01*
X91121617Y-135690271D01*
X91073871Y-135703065D01*
X91073864Y-135703068D01*
X90981634Y-135756317D01*
X90981624Y-135756325D01*
X90906325Y-135831624D01*
X90906317Y-135831634D01*
X90853068Y-135923864D01*
X90853065Y-135923871D01*
X90843146Y-135960891D01*
X90825500Y-136026747D01*
X90825500Y-136133253D01*
X90833297Y-136162351D01*
X90838027Y-136180003D01*
X90842320Y-136212614D01*
X90842320Y-136372325D01*
X90822318Y-136440446D01*
X90768662Y-136486939D01*
X90698388Y-136497043D01*
X90646318Y-136477090D01*
X90528294Y-136398229D01*
X90528290Y-136398227D01*
X90363649Y-136330029D01*
X90188854Y-136295260D01*
X90188849Y-136295260D01*
X90010631Y-136295260D01*
X90010625Y-136295260D01*
X89835830Y-136330029D01*
X89671189Y-136398227D01*
X89671185Y-136398229D01*
X89523000Y-136497243D01*
X89522994Y-136497248D01*
X89396988Y-136623254D01*
X89396983Y-136623260D01*
X89297969Y-136771445D01*
X89297967Y-136771449D01*
X89229770Y-136936089D01*
X89229768Y-136936095D01*
X89229768Y-136936097D01*
X89227243Y-136948792D01*
X89223829Y-136965957D01*
X89190921Y-137028866D01*
X89129226Y-137063998D01*
X89058331Y-137060198D01*
X89000745Y-137018672D01*
X88976671Y-136965957D01*
X88974371Y-136954394D01*
X88970732Y-136936097D01*
X88970729Y-136936089D01*
X88902532Y-136771449D01*
X88902530Y-136771445D01*
X88881505Y-136739979D01*
X88803518Y-136623262D01*
X88803516Y-136623260D01*
X88803511Y-136623254D01*
X88677505Y-136497248D01*
X88677499Y-136497243D01*
X88673811Y-136494779D01*
X88555790Y-136415920D01*
X88529314Y-136398229D01*
X88529310Y-136398227D01*
X88364669Y-136330029D01*
X88189874Y-136295260D01*
X88189869Y-136295260D01*
X88011651Y-136295260D01*
X88011645Y-136295260D01*
X87836850Y-136330029D01*
X87672209Y-136398227D01*
X87672205Y-136398229D01*
X87524020Y-136497243D01*
X87524014Y-136497248D01*
X87398008Y-136623254D01*
X87398003Y-136623260D01*
X87298989Y-136771445D01*
X87298987Y-136771449D01*
X87230790Y-136936089D01*
X87230788Y-136936095D01*
X87230788Y-136936097D01*
X87228263Y-136948792D01*
X87223579Y-136972341D01*
X87190671Y-137035250D01*
X87128976Y-137070382D01*
X87058081Y-137066582D01*
X87000495Y-137025056D01*
X86976421Y-136972341D01*
X86972851Y-136954394D01*
X86969212Y-136936097D01*
X86969209Y-136936089D01*
X86901012Y-136771449D01*
X86901010Y-136771445D01*
X86879985Y-136739979D01*
X86801998Y-136623262D01*
X86801996Y-136623260D01*
X86801991Y-136623254D01*
X86675985Y-136497248D01*
X86675979Y-136497243D01*
X86672291Y-136494779D01*
X86554270Y-136415920D01*
X86527794Y-136398229D01*
X86527790Y-136398227D01*
X86363149Y-136330029D01*
X86188354Y-136295260D01*
X86188349Y-136295260D01*
X86010131Y-136295260D01*
X86010125Y-136295260D01*
X85835330Y-136330029D01*
X85670689Y-136398227D01*
X85670685Y-136398229D01*
X85522500Y-136497243D01*
X85522494Y-136497248D01*
X85396488Y-136623254D01*
X85396483Y-136623260D01*
X85297469Y-136771445D01*
X85297467Y-136771449D01*
X85229270Y-136936089D01*
X85229268Y-136936095D01*
X85229268Y-136936097D01*
X85226743Y-136948792D01*
X85223329Y-136965957D01*
X85190421Y-137028866D01*
X85128726Y-137063998D01*
X85057831Y-137060198D01*
X85000245Y-137018672D01*
X84976171Y-136965957D01*
X84973871Y-136954394D01*
X84970232Y-136936097D01*
X84970229Y-136936089D01*
X84902032Y-136771449D01*
X84902030Y-136771445D01*
X84881005Y-136739979D01*
X84803018Y-136623262D01*
X84803016Y-136623260D01*
X84803011Y-136623254D01*
X84677005Y-136497248D01*
X84676999Y-136497243D01*
X84673311Y-136494779D01*
X84555290Y-136415920D01*
X84528814Y-136398229D01*
X84528810Y-136398227D01*
X84364169Y-136330029D01*
X84189374Y-136295260D01*
X84189369Y-136295260D01*
X84011151Y-136295260D01*
X84011145Y-136295260D01*
X83836350Y-136330029D01*
X83671709Y-136398227D01*
X83671705Y-136398229D01*
X83523520Y-136497243D01*
X83523514Y-136497248D01*
X83397508Y-136623254D01*
X83397503Y-136623260D01*
X83298489Y-136771445D01*
X83298487Y-136771450D01*
X83231445Y-136933300D01*
X83186897Y-136988581D01*
X83119533Y-137011001D01*
X83050742Y-136993442D01*
X83002364Y-136941480D01*
X82989037Y-136884763D01*
X82989071Y-136871381D01*
X82992800Y-135392382D01*
X82993022Y-135391271D01*
X82993022Y-135304744D01*
X82993240Y-135218298D01*
X82993238Y-135218290D01*
X82993239Y-135218129D01*
X82993022Y-135215923D01*
X82993022Y-135215914D01*
X82974063Y-135120604D01*
X82959491Y-135046363D01*
X82959119Y-135045462D01*
X82958848Y-135044096D01*
X82958838Y-135044061D01*
X82934891Y-134986250D01*
X82917625Y-134944566D01*
X82892847Y-134884316D01*
X82892377Y-134883610D01*
X82891790Y-134882191D01*
X82891788Y-134882188D01*
X82867897Y-134846433D01*
X82826599Y-134784625D01*
X82795870Y-134738384D01*
X82795357Y-134737868D01*
X82794442Y-134736499D01*
X82705359Y-134647416D01*
X82672285Y-134614175D01*
X82671776Y-134613833D01*
X82670545Y-134612602D01*
X81444405Y-133386462D01*
X81410379Y-133324150D01*
X81407500Y-133297367D01*
X81407500Y-132535534D01*
X84245500Y-132535534D01*
X84245500Y-132664465D01*
X84260567Y-132740212D01*
X84270652Y-132790911D01*
X84319989Y-132910022D01*
X84363736Y-132975494D01*
X84391616Y-133017219D01*
X84391621Y-133017225D01*
X84482774Y-133108378D01*
X84482780Y-133108383D01*
X84589978Y-133180011D01*
X84709089Y-133229348D01*
X84835537Y-133254500D01*
X84835538Y-133254500D01*
X84964462Y-133254500D01*
X84964463Y-133254500D01*
X85090911Y-133229348D01*
X85210022Y-133180011D01*
X85317220Y-133108383D01*
X85408383Y-133017220D01*
X85480011Y-132910022D01*
X85529348Y-132790911D01*
X85554500Y-132664463D01*
X85554500Y-132535537D01*
X85529348Y-132409089D01*
X85480011Y-132289978D01*
X85408383Y-132182780D01*
X85408378Y-132182774D01*
X85317225Y-132091621D01*
X85317219Y-132091616D01*
X85279654Y-132066516D01*
X85210022Y-132019989D01*
X85090911Y-131970652D01*
X84964465Y-131945500D01*
X84964463Y-131945500D01*
X84835537Y-131945500D01*
X84835534Y-131945500D01*
X84709088Y-131970652D01*
X84709083Y-131970654D01*
X84589978Y-132019989D01*
X84482780Y-132091616D01*
X84482774Y-132091621D01*
X84391621Y-132182774D01*
X84391616Y-132182780D01*
X84319989Y-132289978D01*
X84270654Y-132409083D01*
X84270652Y-132409088D01*
X84245500Y-132535534D01*
X81407500Y-132535534D01*
X81407500Y-125726082D01*
X81949500Y-125726082D01*
X81949500Y-125873918D01*
X81970184Y-125977900D01*
X81978342Y-126018913D01*
X81978343Y-126018916D01*
X81999033Y-126068865D01*
X82034916Y-126155495D01*
X82117049Y-126278416D01*
X82221584Y-126382951D01*
X82344505Y-126465084D01*
X82481087Y-126521658D01*
X82626082Y-126550500D01*
X82626087Y-126550500D01*
X82773913Y-126550500D01*
X82773918Y-126550500D01*
X82918913Y-126521658D01*
X83055495Y-126465084D01*
X83178416Y-126382951D01*
X83282951Y-126278416D01*
X83365084Y-126155495D01*
X83421658Y-126018913D01*
X83430044Y-125976750D01*
X83462951Y-125913842D01*
X83524646Y-125878710D01*
X83595541Y-125882510D01*
X83601803Y-125884909D01*
X83709089Y-125929348D01*
X83835537Y-125954500D01*
X83835538Y-125954500D01*
X83964462Y-125954500D01*
X83964463Y-125954500D01*
X84090911Y-125929348D01*
X84210022Y-125880011D01*
X84317220Y-125808383D01*
X84408383Y-125717220D01*
X84480011Y-125610022D01*
X84529348Y-125490911D01*
X84554500Y-125364463D01*
X84554500Y-125235537D01*
X84529348Y-125109089D01*
X84480011Y-124989978D01*
X84408383Y-124882780D01*
X84408378Y-124882774D01*
X84317225Y-124791621D01*
X84317219Y-124791616D01*
X84244584Y-124743083D01*
X84210022Y-124719989D01*
X84090911Y-124670652D01*
X84088704Y-124670213D01*
X83964465Y-124645500D01*
X83964463Y-124645500D01*
X83835537Y-124645500D01*
X83835534Y-124645500D01*
X83709088Y-124670652D01*
X83709083Y-124670654D01*
X83589978Y-124719989D01*
X83482780Y-124791616D01*
X83482774Y-124791621D01*
X83391621Y-124882774D01*
X83391616Y-124882780D01*
X83319988Y-124989978D01*
X83319986Y-124989982D01*
X83274385Y-125100072D01*
X83229837Y-125155353D01*
X83162473Y-125177773D01*
X83093682Y-125160214D01*
X83087976Y-125156619D01*
X83082982Y-125153282D01*
X83055495Y-125134916D01*
X83037775Y-125127576D01*
X82918916Y-125078343D01*
X82918913Y-125078342D01*
X82918395Y-125078239D01*
X82773918Y-125049500D01*
X82626082Y-125049500D01*
X82554907Y-125063658D01*
X82481086Y-125078342D01*
X82481083Y-125078343D01*
X82344504Y-125134916D01*
X82221588Y-125217046D01*
X82221581Y-125217051D01*
X82117051Y-125321581D01*
X82117046Y-125321588D01*
X82034916Y-125444504D01*
X81978343Y-125581083D01*
X81978342Y-125581086D01*
X81968461Y-125630762D01*
X81949500Y-125726082D01*
X81407500Y-125726082D01*
X81407500Y-124118633D01*
X81427502Y-124050512D01*
X81444405Y-124029538D01*
X86818538Y-118655405D01*
X86880850Y-118621379D01*
X86907633Y-118618500D01*
X88119500Y-118618500D01*
X88187621Y-118638502D01*
X88234114Y-118692158D01*
X88245500Y-118744500D01*
X88245500Y-118864465D01*
X88250309Y-118888641D01*
X88270652Y-118990911D01*
X88319989Y-119110022D01*
X88367849Y-119181649D01*
X88391616Y-119217219D01*
X88391621Y-119217225D01*
X88482774Y-119308378D01*
X88482780Y-119308383D01*
X88589978Y-119380011D01*
X88709089Y-119429348D01*
X88835537Y-119454500D01*
X88835538Y-119454500D01*
X88964462Y-119454500D01*
X88964463Y-119454500D01*
X89090911Y-119429348D01*
X89210022Y-119380011D01*
X89317220Y-119308383D01*
X89408383Y-119217220D01*
X89480011Y-119110022D01*
X89529348Y-118990911D01*
X89554500Y-118864463D01*
X89554500Y-118735537D01*
X89529348Y-118609089D01*
X89487904Y-118509035D01*
X89480316Y-118438446D01*
X89512095Y-118374959D01*
X89515163Y-118371779D01*
X89590920Y-118296023D01*
X89688265Y-118150336D01*
X89755317Y-117988458D01*
X89789500Y-117816608D01*
X89789500Y-117641392D01*
X89755317Y-117469542D01*
X89688265Y-117307664D01*
X89590920Y-117161977D01*
X89467023Y-117038080D01*
X89321336Y-116940735D01*
X89159458Y-116873683D01*
X89155119Y-116872820D01*
X88987610Y-116839500D01*
X88987608Y-116839500D01*
X86574609Y-116839500D01*
X86399392Y-116839500D01*
X86399389Y-116839500D01*
X86227541Y-116873683D01*
X86227536Y-116873685D01*
X86065664Y-116940735D01*
X85919981Y-117038077D01*
X85919974Y-117038082D01*
X79827082Y-123130974D01*
X79827077Y-123130981D01*
X79729735Y-123276664D01*
X79662685Y-123438536D01*
X79662683Y-123438541D01*
X79628500Y-123610389D01*
X79628500Y-127024597D01*
X79608498Y-127092718D01*
X79554842Y-127139211D01*
X79484568Y-127149315D01*
X79477920Y-127148176D01*
X79464470Y-127145500D01*
X79464463Y-127145500D01*
X79335537Y-127145500D01*
X79335534Y-127145500D01*
X79209088Y-127170652D01*
X79209083Y-127170654D01*
X79089979Y-127219988D01*
X79026001Y-127262737D01*
X78958248Y-127283951D01*
X78889782Y-127265168D01*
X78842339Y-127212350D01*
X78830000Y-127157971D01*
X78830000Y-119108825D01*
X79397170Y-119108825D01*
X79397170Y-119569530D01*
X80079774Y-119569530D01*
X80077259Y-119573886D01*
X80050000Y-119675619D01*
X80050000Y-119780941D01*
X80077259Y-119882674D01*
X80079774Y-119887030D01*
X79397170Y-119887030D01*
X79397170Y-120347734D01*
X79408960Y-120407006D01*
X79453870Y-120474219D01*
X79521083Y-120519129D01*
X79580355Y-120530919D01*
X79580361Y-120530920D01*
X80291250Y-120530920D01*
X80291250Y-120098506D01*
X80295606Y-120101021D01*
X80397339Y-120128280D01*
X80502661Y-120128280D01*
X80604394Y-120101021D01*
X80608750Y-120098506D01*
X80608750Y-120530920D01*
X81319639Y-120530920D01*
X81319644Y-120530919D01*
X81378916Y-120519129D01*
X81446129Y-120474219D01*
X81491039Y-120407006D01*
X81502829Y-120347734D01*
X81502830Y-120347729D01*
X81502830Y-119887030D01*
X80820226Y-119887030D01*
X80822741Y-119882674D01*
X80850000Y-119780941D01*
X80850000Y-119675619D01*
X80822741Y-119573886D01*
X80820226Y-119569530D01*
X81502830Y-119569530D01*
X81502830Y-119108830D01*
X81502829Y-119108825D01*
X81491039Y-119049553D01*
X81446129Y-118982340D01*
X81378916Y-118937430D01*
X81319644Y-118925640D01*
X80608750Y-118925640D01*
X80608750Y-119358053D01*
X80604394Y-119355539D01*
X80502661Y-119328280D01*
X80397339Y-119328280D01*
X80295606Y-119355539D01*
X80291250Y-119358053D01*
X80291250Y-118925640D01*
X79580355Y-118925640D01*
X79521083Y-118937430D01*
X79453870Y-118982340D01*
X79408960Y-119049553D01*
X79397170Y-119108825D01*
X78830000Y-119108825D01*
X78830000Y-117642651D01*
X79345870Y-117642651D01*
X79345870Y-117810868D01*
X79378686Y-117975845D01*
X79378688Y-117975850D01*
X79383913Y-117988463D01*
X79443058Y-118131252D01*
X79536511Y-118271115D01*
X79655455Y-118390059D01*
X79795318Y-118483512D01*
X79950725Y-118547884D01*
X80115704Y-118580700D01*
X80115705Y-118580700D01*
X80784295Y-118580700D01*
X80784296Y-118580700D01*
X80949275Y-118547884D01*
X81104682Y-118483512D01*
X81244545Y-118390059D01*
X81363489Y-118271115D01*
X81456942Y-118131252D01*
X81521314Y-117975845D01*
X81554130Y-117810866D01*
X81554130Y-117642654D01*
X81521314Y-117477675D01*
X81456942Y-117322268D01*
X81363489Y-117182405D01*
X81244545Y-117063461D01*
X81104682Y-116970008D01*
X80949275Y-116905636D01*
X80948833Y-116905548D01*
X80784298Y-116872820D01*
X80784296Y-116872820D01*
X80115704Y-116872820D01*
X80115701Y-116872820D01*
X79950724Y-116905636D01*
X79950719Y-116905638D01*
X79795318Y-116970008D01*
X79655456Y-117063460D01*
X79655450Y-117063465D01*
X79536515Y-117182400D01*
X79536510Y-117182406D01*
X79443058Y-117322268D01*
X79378688Y-117477669D01*
X79378686Y-117477674D01*
X79345870Y-117642651D01*
X78830000Y-117642651D01*
X78830000Y-115641131D01*
X79345870Y-115641131D01*
X79345870Y-115809348D01*
X79378686Y-115974325D01*
X79443058Y-116129732D01*
X79536511Y-116269595D01*
X79655455Y-116388539D01*
X79795318Y-116481992D01*
X79950725Y-116546364D01*
X80115704Y-116579180D01*
X80115705Y-116579180D01*
X80784295Y-116579180D01*
X80784296Y-116579180D01*
X80949275Y-116546364D01*
X81104682Y-116481992D01*
X81244545Y-116388539D01*
X81363489Y-116269595D01*
X81456942Y-116129732D01*
X81521314Y-115974325D01*
X81554130Y-115809346D01*
X81554130Y-115641134D01*
X81521314Y-115476155D01*
X81456942Y-115320748D01*
X81363489Y-115180885D01*
X81244545Y-115061941D01*
X81104682Y-114968488D01*
X80949275Y-114904116D01*
X80784298Y-114871300D01*
X80784296Y-114871300D01*
X80115704Y-114871300D01*
X80115701Y-114871300D01*
X79950724Y-114904116D01*
X79950719Y-114904118D01*
X79795318Y-114968488D01*
X79655456Y-115061940D01*
X79655450Y-115061945D01*
X79536515Y-115180880D01*
X79536510Y-115180886D01*
X79443058Y-115320748D01*
X79378688Y-115476149D01*
X79378686Y-115476154D01*
X79345870Y-115641131D01*
X78830000Y-115641131D01*
X78830000Y-114870534D01*
X85324500Y-114870534D01*
X85324500Y-114999465D01*
X85336928Y-115061945D01*
X85349652Y-115125911D01*
X85398989Y-115245022D01*
X85407500Y-115257759D01*
X85470616Y-115352219D01*
X85470621Y-115352225D01*
X85561774Y-115443378D01*
X85561780Y-115443383D01*
X85668978Y-115515011D01*
X85788089Y-115564348D01*
X85914537Y-115589500D01*
X85914538Y-115589500D01*
X86043462Y-115589500D01*
X86043463Y-115589500D01*
X86169911Y-115564348D01*
X86289022Y-115515011D01*
X86396220Y-115443383D01*
X86487383Y-115352220D01*
X86559011Y-115245022D01*
X86608348Y-115125911D01*
X86633500Y-114999463D01*
X86633500Y-114870537D01*
X86633499Y-114870534D01*
X90150500Y-114870534D01*
X90150500Y-114999465D01*
X90162928Y-115061945D01*
X90175652Y-115125911D01*
X90224989Y-115245022D01*
X90233500Y-115257759D01*
X90296616Y-115352219D01*
X90296621Y-115352225D01*
X90387774Y-115443378D01*
X90387780Y-115443383D01*
X90494978Y-115515011D01*
X90614089Y-115564348D01*
X90740537Y-115589500D01*
X90740538Y-115589500D01*
X90869462Y-115589500D01*
X90869463Y-115589500D01*
X90995911Y-115564348D01*
X91115022Y-115515011D01*
X91222220Y-115443383D01*
X91225156Y-115440447D01*
X91287405Y-115378199D01*
X91349717Y-115344173D01*
X91420532Y-115349238D01*
X91465595Y-115378199D01*
X91530774Y-115443378D01*
X91530780Y-115443383D01*
X91637978Y-115515011D01*
X91757089Y-115564348D01*
X91883537Y-115589500D01*
X91883538Y-115589500D01*
X92012462Y-115589500D01*
X92012463Y-115589500D01*
X92138911Y-115564348D01*
X92258022Y-115515011D01*
X92365220Y-115443383D01*
X92456383Y-115352220D01*
X92528011Y-115245022D01*
X92577348Y-115125911D01*
X92602500Y-114999463D01*
X92602500Y-114870537D01*
X92577348Y-114744089D01*
X92528011Y-114624978D01*
X92456383Y-114517780D01*
X92456378Y-114517774D01*
X92365225Y-114426621D01*
X92365219Y-114426616D01*
X92309759Y-114389559D01*
X92258022Y-114354989D01*
X92138911Y-114305652D01*
X92012465Y-114280500D01*
X92012463Y-114280500D01*
X91883537Y-114280500D01*
X91883534Y-114280500D01*
X91757088Y-114305652D01*
X91757083Y-114305654D01*
X91637978Y-114354989D01*
X91530780Y-114426616D01*
X91530774Y-114426621D01*
X91465595Y-114491801D01*
X91403283Y-114525827D01*
X91332468Y-114520762D01*
X91287405Y-114491801D01*
X91222225Y-114426621D01*
X91222219Y-114426616D01*
X91166759Y-114389559D01*
X91115022Y-114354989D01*
X90995911Y-114305652D01*
X90869465Y-114280500D01*
X90869463Y-114280500D01*
X90740537Y-114280500D01*
X90740534Y-114280500D01*
X90614088Y-114305652D01*
X90614083Y-114305654D01*
X90494978Y-114354989D01*
X90387780Y-114426616D01*
X90387774Y-114426621D01*
X90296621Y-114517774D01*
X90296616Y-114517780D01*
X90224989Y-114624978D01*
X90175654Y-114744083D01*
X90175652Y-114744088D01*
X90150500Y-114870534D01*
X86633499Y-114870534D01*
X86608348Y-114744089D01*
X86559011Y-114624978D01*
X86487383Y-114517780D01*
X86487378Y-114517774D01*
X86396225Y-114426621D01*
X86396219Y-114426616D01*
X86340759Y-114389559D01*
X86289022Y-114354989D01*
X86169911Y-114305652D01*
X86043465Y-114280500D01*
X86043463Y-114280500D01*
X85914537Y-114280500D01*
X85914534Y-114280500D01*
X85788088Y-114305652D01*
X85788083Y-114305654D01*
X85668978Y-114354989D01*
X85561780Y-114426616D01*
X85561774Y-114426621D01*
X85470621Y-114517774D01*
X85470616Y-114517780D01*
X85398989Y-114624978D01*
X85349654Y-114744083D01*
X85349652Y-114744088D01*
X85324500Y-114870534D01*
X78830000Y-114870534D01*
X78830000Y-113642151D01*
X79345870Y-113642151D01*
X79345870Y-113810368D01*
X79369962Y-113931488D01*
X79378686Y-113975345D01*
X79443058Y-114130752D01*
X79536511Y-114270615D01*
X79655455Y-114389559D01*
X79795318Y-114483012D01*
X79950725Y-114547384D01*
X80115704Y-114580200D01*
X80115705Y-114580200D01*
X80784295Y-114580200D01*
X80784296Y-114580200D01*
X80949275Y-114547384D01*
X81104682Y-114483012D01*
X81244545Y-114389559D01*
X81363489Y-114270615D01*
X81456942Y-114130752D01*
X81521314Y-113975345D01*
X81554130Y-113810366D01*
X81554130Y-113642154D01*
X81521314Y-113477175D01*
X81456942Y-113321768D01*
X81363489Y-113181905D01*
X81244545Y-113062961D01*
X81104682Y-112969508D01*
X80949275Y-112905136D01*
X80871009Y-112889568D01*
X80784298Y-112872320D01*
X80784296Y-112872320D01*
X80115704Y-112872320D01*
X80115701Y-112872320D01*
X79950724Y-112905136D01*
X79950719Y-112905138D01*
X79795318Y-112969508D01*
X79655456Y-113062960D01*
X79655450Y-113062965D01*
X79536515Y-113181900D01*
X79536510Y-113181906D01*
X79443058Y-113321768D01*
X79378688Y-113477169D01*
X79378686Y-113477174D01*
X79345870Y-113642151D01*
X78830000Y-113642151D01*
X78830000Y-111184914D01*
X78850002Y-111116793D01*
X78903658Y-111070300D01*
X78973932Y-111060196D01*
X79038512Y-111089690D01*
X79072408Y-111136695D01*
X79109190Y-111225493D01*
X79218148Y-111388561D01*
X79220434Y-111391982D01*
X79220439Y-111391988D01*
X79362011Y-111533560D01*
X79362017Y-111533565D01*
X79362019Y-111533567D01*
X79528507Y-111644810D01*
X79713498Y-111721436D01*
X79909884Y-111760500D01*
X80110116Y-111760500D01*
X80306502Y-111721436D01*
X80491493Y-111644810D01*
X80657981Y-111533567D01*
X80799567Y-111391981D01*
X80799574Y-111391969D01*
X80801591Y-111389513D01*
X80802987Y-111388561D01*
X80803945Y-111387604D01*
X80804126Y-111387785D01*
X80860264Y-111349537D01*
X80931235Y-111347628D01*
X80991971Y-111384392D01*
X80996409Y-111389513D01*
X80998429Y-111391975D01*
X80998433Y-111391981D01*
X80998437Y-111391985D01*
X80998442Y-111391991D01*
X81140011Y-111533560D01*
X81140017Y-111533565D01*
X81140019Y-111533567D01*
X81306507Y-111644810D01*
X81491498Y-111721436D01*
X81687884Y-111760500D01*
X81888116Y-111760500D01*
X82084502Y-111721436D01*
X82269493Y-111644810D01*
X82435981Y-111533567D01*
X82577567Y-111391981D01*
X82577574Y-111391969D01*
X82579591Y-111389513D01*
X82580987Y-111388561D01*
X82581945Y-111387604D01*
X82582126Y-111387785D01*
X82638264Y-111349537D01*
X82709235Y-111347628D01*
X82769971Y-111384392D01*
X82774409Y-111389513D01*
X82776429Y-111391975D01*
X82776433Y-111391981D01*
X82776437Y-111391985D01*
X82776442Y-111391991D01*
X82918011Y-111533560D01*
X82918017Y-111533565D01*
X82918019Y-111533567D01*
X83084507Y-111644810D01*
X83269498Y-111721436D01*
X83465884Y-111760500D01*
X83666116Y-111760500D01*
X83862502Y-111721436D01*
X84047493Y-111644810D01*
X84213981Y-111533567D01*
X84355567Y-111391981D01*
X84466810Y-111225493D01*
X84543436Y-111040502D01*
X84582500Y-110844116D01*
X84582500Y-110643884D01*
X84543436Y-110447498D01*
X84466810Y-110262507D01*
X84355567Y-110096019D01*
X84355564Y-110096016D01*
X84355560Y-110096011D01*
X84213991Y-109954442D01*
X84213985Y-109954437D01*
X84213981Y-109954433D01*
X84213975Y-109954429D01*
X84211513Y-109952409D01*
X84210561Y-109951012D01*
X84209604Y-109950055D01*
X84209785Y-109949873D01*
X84171537Y-109893736D01*
X84169628Y-109822765D01*
X84206392Y-109762029D01*
X84211513Y-109757591D01*
X84213969Y-109755574D01*
X84213981Y-109755567D01*
X84355567Y-109613981D01*
X84466810Y-109447493D01*
X84543436Y-109262502D01*
X84582500Y-109066116D01*
X84582500Y-108865884D01*
X84543436Y-108669498D01*
X84466810Y-108484507D01*
X84355567Y-108318019D01*
X84355564Y-108318016D01*
X84355560Y-108318011D01*
X84213991Y-108176442D01*
X84213985Y-108176437D01*
X84213981Y-108176433D01*
X84213975Y-108176429D01*
X84211513Y-108174409D01*
X84210561Y-108173012D01*
X84209604Y-108172055D01*
X84209785Y-108171873D01*
X84202659Y-108161414D01*
X84190128Y-108151919D01*
X84183077Y-108132674D01*
X84171537Y-108115736D01*
X84171114Y-108100017D01*
X84165706Y-108085255D01*
X84170179Y-108065254D01*
X84169628Y-108044765D01*
X84177991Y-108030324D01*
X84181202Y-108015970D01*
X84197942Y-107995878D01*
X84202861Y-107987386D01*
X84210321Y-107980012D01*
X84213981Y-107977567D01*
X84314991Y-107876556D01*
X84315164Y-107876386D01*
X84346141Y-107859704D01*
X84376954Y-107842880D01*
X84377493Y-107842821D01*
X84377674Y-107842725D01*
X84378093Y-107842757D01*
X84403738Y-107840000D01*
X89179044Y-107840000D01*
X89247165Y-107860002D01*
G37*
%TD.AperFunction*%
%TA.AperFunction,Conductor*%
G36*
X102395521Y-129941502D02*
G01*
X102442014Y-129995158D01*
X102453400Y-130047500D01*
X102453400Y-130284529D01*
X102433398Y-130352650D01*
X102416495Y-130373624D01*
X102326521Y-130463597D01*
X102326516Y-130463603D01*
X102254889Y-130570801D01*
X102205554Y-130689906D01*
X102205552Y-130689911D01*
X102180400Y-130816357D01*
X102180400Y-130945288D01*
X102192870Y-131007978D01*
X102205552Y-131071734D01*
X102254889Y-131190845D01*
X102298495Y-131256105D01*
X102326516Y-131298042D01*
X102326521Y-131298048D01*
X102417674Y-131389201D01*
X102417680Y-131389206D01*
X102524878Y-131460834D01*
X102643989Y-131510171D01*
X102770437Y-131535323D01*
X102770438Y-131535323D01*
X102899362Y-131535323D01*
X102899363Y-131535323D01*
X103025811Y-131510171D01*
X103025814Y-131510169D01*
X103026169Y-131510099D01*
X103096883Y-131516427D01*
X103152950Y-131559981D01*
X103176570Y-131626933D01*
X103160244Y-131696027D01*
X103155516Y-131703679D01*
X103128191Y-131744573D01*
X103128189Y-131744577D01*
X103078854Y-131863683D01*
X103078852Y-131863688D01*
X103053700Y-131990134D01*
X103053700Y-132102476D01*
X103033698Y-132170597D01*
X102980042Y-132217090D01*
X102909768Y-132227194D01*
X102845188Y-132197700D01*
X102838605Y-132191571D01*
X100783629Y-130136595D01*
X100749603Y-130074283D01*
X100754668Y-130003468D01*
X100797215Y-129946632D01*
X100863735Y-129921821D01*
X100872724Y-129921500D01*
X102327400Y-129921500D01*
X102395521Y-129941502D01*
G37*
%TD.AperFunction*%
%TA.AperFunction,Conductor*%
G36*
X95589238Y-126354502D02*
G01*
X95635731Y-126408158D01*
X95644695Y-126435916D01*
X95647698Y-126451014D01*
X95647699Y-126451018D01*
X95647700Y-126451021D01*
X95697037Y-126570132D01*
X95736644Y-126629408D01*
X95768664Y-126677329D01*
X95768669Y-126677335D01*
X95859822Y-126768488D01*
X95859828Y-126768493D01*
X95967026Y-126840121D01*
X96086137Y-126889458D01*
X96212585Y-126914610D01*
X96212586Y-126914610D01*
X96298038Y-126914610D01*
X96366159Y-126934612D01*
X96412652Y-126988268D01*
X96422756Y-127058542D01*
X96402804Y-127110610D01*
X96392815Y-127125559D01*
X96392814Y-127125561D01*
X96343479Y-127244667D01*
X96343477Y-127244672D01*
X96318325Y-127371118D01*
X96318325Y-127500049D01*
X96338375Y-127600847D01*
X96343477Y-127626495D01*
X96392814Y-127745606D01*
X96440674Y-127817233D01*
X96464441Y-127852803D01*
X96464446Y-127852809D01*
X96555599Y-127943962D01*
X96555605Y-127943967D01*
X96662803Y-128015595D01*
X96781914Y-128064932D01*
X96908362Y-128090084D01*
X96908363Y-128090084D01*
X97037287Y-128090084D01*
X97037288Y-128090084D01*
X97163736Y-128064932D01*
X97282847Y-128015595D01*
X97320498Y-127990436D01*
X97388250Y-127969222D01*
X97456717Y-127988005D01*
X97504161Y-128040822D01*
X97516500Y-128095202D01*
X97516500Y-128207465D01*
X97540360Y-128327414D01*
X97541652Y-128333911D01*
X97590989Y-128453022D01*
X97602960Y-128470937D01*
X97621346Y-128498454D01*
X97642561Y-128566207D01*
X97623778Y-128634674D01*
X97570961Y-128682117D01*
X97516581Y-128694456D01*
X97186681Y-128694456D01*
X97118996Y-128712592D01*
X97048019Y-128710902D01*
X96989224Y-128671108D01*
X96969976Y-128639103D01*
X96969740Y-128638533D01*
X96967693Y-128633591D01*
X96896065Y-128526393D01*
X96896060Y-128526387D01*
X96804907Y-128435234D01*
X96804901Y-128435229D01*
X96733972Y-128387836D01*
X96697704Y-128363602D01*
X96578593Y-128314265D01*
X96452147Y-128289113D01*
X96452145Y-128289113D01*
X96323219Y-128289113D01*
X96323216Y-128289113D01*
X96196770Y-128314265D01*
X96196765Y-128314267D01*
X96077660Y-128363602D01*
X95970462Y-128435229D01*
X95970456Y-128435234D01*
X95879303Y-128526387D01*
X95879298Y-128526393D01*
X95807671Y-128633591D01*
X95758336Y-128752696D01*
X95758334Y-128752701D01*
X95733182Y-128879147D01*
X95733182Y-129008078D01*
X95758334Y-129134524D01*
X95758336Y-129134529D01*
X95791619Y-129214882D01*
X95799208Y-129285472D01*
X95767428Y-129348959D01*
X95706370Y-129385186D01*
X95675210Y-129389100D01*
X94582018Y-129389100D01*
X94513897Y-129369098D01*
X94467404Y-129315442D01*
X94456018Y-129263100D01*
X94456018Y-129206666D01*
X94456017Y-129206662D01*
X94430866Y-129080217D01*
X94381529Y-128961106D01*
X94309901Y-128853908D01*
X94309896Y-128853902D01*
X94218743Y-128762749D01*
X94218737Y-128762744D01*
X94163847Y-128726068D01*
X94111540Y-128691117D01*
X93992429Y-128641780D01*
X93956705Y-128634674D01*
X93865983Y-128616628D01*
X93865981Y-128616628D01*
X93737055Y-128616628D01*
X93737052Y-128616628D01*
X93610606Y-128641780D01*
X93610601Y-128641782D01*
X93491496Y-128691117D01*
X93384298Y-128762744D01*
X93384292Y-128762749D01*
X93293137Y-128853904D01*
X93247605Y-128922048D01*
X93193127Y-128967575D01*
X93122684Y-128976422D01*
X93072839Y-128956810D01*
X93024862Y-128924753D01*
X93024858Y-128924751D01*
X92905752Y-128875416D01*
X92905747Y-128875414D01*
X92779301Y-128850262D01*
X92779299Y-128850262D01*
X92752691Y-128850262D01*
X92743865Y-128847670D01*
X92734759Y-128848980D01*
X92710333Y-128837824D01*
X92684570Y-128830260D01*
X92678545Y-128823306D01*
X92670179Y-128819486D01*
X92655664Y-128796900D01*
X92638077Y-128776604D01*
X92635752Y-128765917D01*
X92631795Y-128759760D01*
X92626691Y-128724262D01*
X92626691Y-128506210D01*
X92646693Y-128438089D01*
X92663596Y-128417115D01*
X93845456Y-127235255D01*
X93907768Y-127201229D01*
X93978583Y-127206294D01*
X93997545Y-127215228D01*
X94046174Y-127243304D01*
X94199918Y-127284500D01*
X94199921Y-127284500D01*
X94359083Y-127284500D01*
X94359086Y-127284500D01*
X94512830Y-127243304D01*
X94650674Y-127163720D01*
X94763222Y-127051172D01*
X94842806Y-126913328D01*
X94884002Y-126759584D01*
X94884002Y-126600416D01*
X94855249Y-126493109D01*
X94856939Y-126422135D01*
X94896733Y-126363339D01*
X94961997Y-126335391D01*
X94976956Y-126334500D01*
X95521117Y-126334500D01*
X95589238Y-126354502D01*
G37*
%TD.AperFunction*%
%TA.AperFunction,Conductor*%
G36*
X95901274Y-114379542D02*
G01*
X95902432Y-114379376D01*
X95933729Y-114393669D01*
X95965300Y-114407412D01*
X95966329Y-114408558D01*
X95967012Y-114408870D01*
X95989265Y-114434093D01*
X96054721Y-114532056D01*
X96054726Y-114532062D01*
X96054728Y-114532065D01*
X96160935Y-114638272D01*
X96285821Y-114721718D01*
X96424587Y-114779197D01*
X96571900Y-114808500D01*
X97548972Y-114808500D01*
X97617093Y-114828502D01*
X97638067Y-114845405D01*
X99970929Y-117178268D01*
X99970933Y-117178271D01*
X99970934Y-117178272D01*
X100043748Y-117226924D01*
X100095821Y-117261718D01*
X100216855Y-117311852D01*
X100272135Y-117356401D01*
X100294556Y-117423764D01*
X100276998Y-117492555D01*
X100265727Y-117507065D01*
X100265611Y-117507387D01*
X100265281Y-117507639D01*
X100257741Y-117517347D01*
X100253056Y-117522033D01*
X100253054Y-117522031D01*
X100253044Y-117522045D01*
X100199744Y-117575344D01*
X100199736Y-117575354D01*
X100149515Y-117662339D01*
X100123515Y-117759374D01*
X100123515Y-117778989D01*
X100103513Y-117847110D01*
X100086610Y-117868084D01*
X99996636Y-117958057D01*
X99996631Y-117958063D01*
X99925004Y-118065261D01*
X99875669Y-118184366D01*
X99875667Y-118184371D01*
X99850515Y-118310817D01*
X99850515Y-118439748D01*
X99872024Y-118547881D01*
X99875667Y-118566194D01*
X99925004Y-118685305D01*
X99937830Y-118704500D01*
X99996631Y-118792502D01*
X99996636Y-118792508D01*
X100087789Y-118883661D01*
X100087795Y-118883666D01*
X100194993Y-118955294D01*
X100314104Y-119004631D01*
X100440552Y-119029783D01*
X100440553Y-119029783D01*
X100569477Y-119029783D01*
X100569478Y-119029783D01*
X100695926Y-119004631D01*
X100815037Y-118955294D01*
X100922235Y-118883666D01*
X101013398Y-118792503D01*
X101085026Y-118685305D01*
X101134363Y-118566194D01*
X101159515Y-118439746D01*
X101159515Y-118310820D01*
X101134363Y-118184372D01*
X101094409Y-118087915D01*
X101086821Y-118017327D01*
X101118600Y-117953840D01*
X101179658Y-117917613D01*
X101210819Y-117913699D01*
X101778522Y-117913699D01*
X101846643Y-117933701D01*
X101893136Y-117987357D01*
X101903240Y-118057631D01*
X101894931Y-118087917D01*
X101859654Y-118173083D01*
X101859652Y-118173088D01*
X101834500Y-118299534D01*
X101834500Y-118428465D01*
X101845450Y-118483512D01*
X101859652Y-118554911D01*
X101908989Y-118674022D01*
X101929354Y-118704500D01*
X101980616Y-118781219D01*
X101980621Y-118781225D01*
X102071774Y-118872378D01*
X102071780Y-118872383D01*
X102178978Y-118944011D01*
X102298089Y-118993348D01*
X102424537Y-119018500D01*
X102424538Y-119018500D01*
X102551787Y-119018500D01*
X102619908Y-119038502D01*
X102640882Y-119055405D01*
X103975595Y-120390118D01*
X104009621Y-120452430D01*
X104012500Y-120479213D01*
X104012500Y-120816706D01*
X103992498Y-120884827D01*
X103938842Y-120931320D01*
X103868568Y-120941424D01*
X103803988Y-120911930D01*
X103797405Y-120905801D01*
X103795225Y-120903621D01*
X103795219Y-120903616D01*
X103728997Y-120859368D01*
X103688022Y-120831989D01*
X103568911Y-120782652D01*
X103442465Y-120757500D01*
X103442463Y-120757500D01*
X103313537Y-120757500D01*
X103313534Y-120757500D01*
X103187088Y-120782652D01*
X103187083Y-120782654D01*
X103067978Y-120831989D01*
X102960780Y-120903616D01*
X102960774Y-120903621D01*
X102869621Y-120994774D01*
X102869616Y-120994780D01*
X102797989Y-121101978D01*
X102748654Y-121221083D01*
X102748652Y-121221088D01*
X102723500Y-121347534D01*
X102723500Y-121474786D01*
X102703498Y-121542907D01*
X102686595Y-121563881D01*
X101698300Y-122552175D01*
X101635988Y-122586201D01*
X101565172Y-122581136D01*
X101508337Y-122538589D01*
X101485626Y-122487662D01*
X101469539Y-122406787D01*
X101461046Y-122364089D01*
X101411709Y-122244978D01*
X101340081Y-122137780D01*
X101340076Y-122137774D01*
X101248923Y-122046621D01*
X101248917Y-122046616D01*
X101213347Y-122022849D01*
X101141720Y-121974989D01*
X101022609Y-121925652D01*
X100996120Y-121920383D01*
X100896163Y-121900500D01*
X100896161Y-121900500D01*
X100767235Y-121900500D01*
X100767232Y-121900500D01*
X100640786Y-121925652D01*
X100640781Y-121925654D01*
X100521676Y-121974989D01*
X100414478Y-122046616D01*
X100414472Y-122046621D01*
X100323319Y-122137774D01*
X100323314Y-122137780D01*
X100251687Y-122244978D01*
X100202352Y-122364083D01*
X100202350Y-122364088D01*
X100177198Y-122490534D01*
X100177198Y-122554774D01*
X100157196Y-122622895D01*
X100103540Y-122669388D01*
X100073623Y-122677458D01*
X100073840Y-122678545D01*
X99941319Y-122704905D01*
X99941314Y-122704907D01*
X99822209Y-122754242D01*
X99715011Y-122825869D01*
X99715005Y-122825874D01*
X99623852Y-122917027D01*
X99623847Y-122917033D01*
X99552219Y-123024231D01*
X99552217Y-123024235D01*
X99546111Y-123038977D01*
X99501561Y-123094256D01*
X99434197Y-123116675D01*
X99365406Y-123099115D01*
X99340609Y-123079850D01*
X99100896Y-122840137D01*
X99066870Y-122777825D01*
X99071935Y-122707010D01*
X99085226Y-122681040D01*
X99087450Y-122677711D01*
X99132011Y-122611022D01*
X99181348Y-122491911D01*
X99206500Y-122365463D01*
X99206500Y-122236537D01*
X99181348Y-122110089D01*
X99132011Y-121990978D01*
X99060383Y-121883780D01*
X99060378Y-121883774D01*
X98969225Y-121792621D01*
X98969219Y-121792616D01*
X98926266Y-121763916D01*
X98862022Y-121720989D01*
X98742911Y-121671652D01*
X98616465Y-121646500D01*
X98616463Y-121646500D01*
X98487537Y-121646500D01*
X98487534Y-121646500D01*
X98361088Y-121671652D01*
X98361083Y-121671654D01*
X98241978Y-121720989D01*
X98134780Y-121792616D01*
X98134774Y-121792621D01*
X98043621Y-121883774D01*
X98043616Y-121883780D01*
X97971989Y-121990978D01*
X97922654Y-122110083D01*
X97922652Y-122110088D01*
X97897500Y-122236534D01*
X97897500Y-122365465D01*
X97919698Y-122477061D01*
X97922652Y-122491911D01*
X97971989Y-122611022D01*
X98016550Y-122677711D01*
X98043616Y-122718219D01*
X98043621Y-122718225D01*
X98108195Y-122782799D01*
X98142221Y-122845111D01*
X98145100Y-122871894D01*
X98145100Y-122920258D01*
X98172829Y-123023742D01*
X98172830Y-123023745D01*
X98226396Y-123116524D01*
X98226398Y-123116526D01*
X98226399Y-123116528D01*
X99136397Y-124026526D01*
X99170421Y-124088837D01*
X99173301Y-124115620D01*
X99173301Y-126122086D01*
X99201030Y-126225570D01*
X99201031Y-126225573D01*
X99246219Y-126303840D01*
X99250436Y-126319579D01*
X99257996Y-126331342D01*
X99263100Y-126366840D01*
X99263100Y-126561287D01*
X99243098Y-126629408D01*
X99226195Y-126650382D01*
X98524404Y-127352172D01*
X98524398Y-127352179D01*
X98469182Y-127447817D01*
X98417799Y-127496810D01*
X98348085Y-127510245D01*
X98335485Y-127508395D01*
X98293514Y-127500047D01*
X98235465Y-127488500D01*
X98235463Y-127488500D01*
X98106537Y-127488500D01*
X98106534Y-127488500D01*
X97980088Y-127513652D01*
X97980083Y-127513654D01*
X97860978Y-127562988D01*
X97823326Y-127588147D01*
X97817263Y-127590045D01*
X97812731Y-127594498D01*
X97783785Y-127600527D01*
X97755573Y-127609361D01*
X97749447Y-127607680D01*
X97743227Y-127608976D01*
X97715616Y-127598398D01*
X97687106Y-127590577D01*
X97682860Y-127585850D01*
X97676928Y-127583578D01*
X97659419Y-127559754D01*
X97639663Y-127537759D01*
X97637695Y-127530193D01*
X97634885Y-127526369D01*
X97631089Y-127504786D01*
X97627572Y-127491259D01*
X97627325Y-127487316D01*
X97627325Y-127371121D01*
X97616698Y-127317698D01*
X97616171Y-127309276D01*
X97622230Y-127282557D01*
X97624672Y-127255268D01*
X97629965Y-127248453D01*
X97631874Y-127240038D01*
X97651418Y-127220835D01*
X97668225Y-127199200D01*
X97680286Y-127192473D01*
X97682518Y-127190281D01*
X97685230Y-127189715D01*
X97693697Y-127184993D01*
X97748278Y-127162386D01*
X97855476Y-127090758D01*
X97946639Y-126999595D01*
X98018267Y-126892397D01*
X98067604Y-126773286D01*
X98092756Y-126646838D01*
X98092756Y-126517912D01*
X98067604Y-126391464D01*
X98018267Y-126272353D01*
X97946639Y-126165155D01*
X97946634Y-126165149D01*
X97855481Y-126073996D01*
X97855475Y-126073991D01*
X97816054Y-126047651D01*
X97748278Y-126002364D01*
X97629167Y-125953027D01*
X97608932Y-125949002D01*
X97502721Y-125927875D01*
X97502719Y-125927875D01*
X97373793Y-125927875D01*
X97373790Y-125927875D01*
X97247344Y-125953027D01*
X97247339Y-125953029D01*
X97128235Y-126002363D01*
X97060457Y-126047651D01*
X96992704Y-126068865D01*
X96924237Y-126050082D01*
X96876795Y-125997264D01*
X96874060Y-125991132D01*
X96857059Y-125950088D01*
X96856335Y-125949005D01*
X96785431Y-125842890D01*
X96785426Y-125842884D01*
X96694273Y-125751731D01*
X96694267Y-125751726D01*
X96653288Y-125724345D01*
X96587070Y-125680099D01*
X96467959Y-125630762D01*
X96442742Y-125625746D01*
X96341513Y-125605610D01*
X96341511Y-125605610D01*
X96234397Y-125605610D01*
X96171397Y-125588729D01*
X96101597Y-125548430D01*
X96101595Y-125548429D01*
X95998111Y-125520700D01*
X95998108Y-125520700D01*
X95998107Y-125520700D01*
X94021417Y-125520700D01*
X93914278Y-125520700D01*
X93914274Y-125520700D01*
X93810790Y-125548429D01*
X93810787Y-125548430D01*
X93718008Y-125601996D01*
X93718002Y-125602001D01*
X93201503Y-126118499D01*
X93201498Y-126118505D01*
X93147934Y-126211281D01*
X93147932Y-126211285D01*
X93147932Y-126211287D01*
X93120921Y-126312095D01*
X93120505Y-126313647D01*
X93120495Y-126313681D01*
X93120202Y-126314773D01*
X93120202Y-126757430D01*
X93100200Y-126825551D01*
X93083297Y-126846525D01*
X91997504Y-127932318D01*
X91935192Y-127966344D01*
X91864377Y-127961279D01*
X91807541Y-127918732D01*
X91792000Y-127891441D01*
X91775996Y-127852804D01*
X91764088Y-127824055D01*
X91692460Y-127716857D01*
X91692455Y-127716851D01*
X91601302Y-127625698D01*
X91601296Y-127625693D01*
X91545104Y-127588147D01*
X91494099Y-127554066D01*
X91374988Y-127504729D01*
X91351450Y-127500047D01*
X91248542Y-127479577D01*
X91248540Y-127479577D01*
X91119614Y-127479577D01*
X91119611Y-127479577D01*
X90993165Y-127504729D01*
X90993160Y-127504731D01*
X90874055Y-127554066D01*
X90766857Y-127625693D01*
X90766851Y-127625698D01*
X90675698Y-127716851D01*
X90675693Y-127716857D01*
X90604066Y-127824055D01*
X90554731Y-127943160D01*
X90554729Y-127943165D01*
X90529577Y-128069611D01*
X90529577Y-128096524D01*
X90509575Y-128164645D01*
X90455919Y-128211138D01*
X90385645Y-128221242D01*
X90321065Y-128191748D01*
X90314482Y-128185619D01*
X89699405Y-127570542D01*
X89665379Y-127508230D01*
X89662500Y-127481447D01*
X89662500Y-126950834D01*
X89671283Y-126920918D01*
X89677912Y-126890449D01*
X89681726Y-126885353D01*
X89682502Y-126882713D01*
X89699405Y-126861739D01*
X89871502Y-126689642D01*
X89933814Y-126655616D01*
X89960597Y-126652737D01*
X90205963Y-126652737D01*
X90274084Y-126672739D01*
X90320577Y-126726395D01*
X90322372Y-126730519D01*
X90351989Y-126802022D01*
X90423616Y-126909219D01*
X90423621Y-126909225D01*
X90514774Y-127000378D01*
X90514780Y-127000383D01*
X90621978Y-127072011D01*
X90741089Y-127121348D01*
X90867537Y-127146500D01*
X90867538Y-127146500D01*
X90996462Y-127146500D01*
X90996463Y-127146500D01*
X91122911Y-127121348D01*
X91242022Y-127072011D01*
X91349220Y-127000383D01*
X91440383Y-126909220D01*
X91512011Y-126802022D01*
X91561348Y-126682911D01*
X91586500Y-126556463D01*
X91586500Y-126427537D01*
X91561348Y-126301089D01*
X91512011Y-126181978D01*
X91440383Y-126074780D01*
X91440378Y-126074774D01*
X91349225Y-125983621D01*
X91349219Y-125983616D01*
X91268001Y-125929348D01*
X91242022Y-125911989D01*
X91122913Y-125862653D01*
X91122911Y-125862652D01*
X90996465Y-125837500D01*
X90996463Y-125837500D01*
X90867537Y-125837500D01*
X90867534Y-125837500D01*
X90741088Y-125862652D01*
X90741087Y-125862652D01*
X90698853Y-125880146D01*
X90690544Y-125881799D01*
X90686135Y-125884633D01*
X90650637Y-125889737D01*
X90415292Y-125889737D01*
X90347171Y-125869735D01*
X90300678Y-125816079D01*
X90290574Y-125745805D01*
X90320068Y-125681225D01*
X90326196Y-125674642D01*
X90454269Y-125546569D01*
X90879330Y-125121506D01*
X90941641Y-125087483D01*
X91012456Y-125092547D01*
X91038426Y-125105838D01*
X91081943Y-125134915D01*
X91129978Y-125167011D01*
X91249089Y-125216348D01*
X91375537Y-125241500D01*
X91375538Y-125241500D01*
X91504462Y-125241500D01*
X91504463Y-125241500D01*
X91630911Y-125216348D01*
X91750022Y-125167011D01*
X91857220Y-125095383D01*
X91948383Y-125004220D01*
X92020011Y-124897022D01*
X92069348Y-124777911D01*
X92094500Y-124651463D01*
X92094500Y-124522537D01*
X92069348Y-124396089D01*
X92020011Y-124276978D01*
X91948383Y-124169780D01*
X91948378Y-124169774D01*
X91857225Y-124078621D01*
X91857216Y-124078613D01*
X91828029Y-124059111D01*
X91782502Y-124004633D01*
X91773655Y-123934190D01*
X91781621Y-123906132D01*
X91829348Y-123790911D01*
X91854500Y-123664463D01*
X91854500Y-123535537D01*
X91829348Y-123409089D01*
X91780011Y-123289978D01*
X91708383Y-123182780D01*
X91708378Y-123182774D01*
X91617225Y-123091621D01*
X91617219Y-123091616D01*
X91538439Y-123038977D01*
X91510022Y-123019989D01*
X91390911Y-122970652D01*
X91352477Y-122963007D01*
X91282919Y-122949171D01*
X91220010Y-122916263D01*
X91184878Y-122854568D01*
X91181501Y-122825592D01*
X91181501Y-122516212D01*
X91201503Y-122448091D01*
X91218406Y-122427117D01*
X93186989Y-120458534D01*
X93960500Y-120458534D01*
X93960500Y-120458537D01*
X93960500Y-120587463D01*
X93985652Y-120713911D01*
X94034989Y-120833022D01*
X94052593Y-120859368D01*
X94106616Y-120940219D01*
X94106621Y-120940225D01*
X94197774Y-121031378D01*
X94197780Y-121031383D01*
X94304978Y-121103011D01*
X94424089Y-121152348D01*
X94550537Y-121177500D01*
X94550538Y-121177500D01*
X94679462Y-121177500D01*
X94679463Y-121177500D01*
X94805911Y-121152348D01*
X94925022Y-121103011D01*
X95032220Y-121031383D01*
X95123383Y-120940220D01*
X95195011Y-120833022D01*
X95244348Y-120713911D01*
X95269500Y-120587463D01*
X95269500Y-120458537D01*
X95244348Y-120332089D01*
X95195011Y-120212978D01*
X95123383Y-120105780D01*
X95123378Y-120105774D01*
X95032225Y-120014621D01*
X95032219Y-120014616D01*
X94962854Y-119968268D01*
X94925022Y-119942989D01*
X94805911Y-119893652D01*
X94772620Y-119887030D01*
X94679465Y-119868500D01*
X94679463Y-119868500D01*
X94550537Y-119868500D01*
X94550534Y-119868500D01*
X94424088Y-119893652D01*
X94424083Y-119893654D01*
X94304978Y-119942989D01*
X94197780Y-120014616D01*
X94197774Y-120014621D01*
X94106621Y-120105774D01*
X94106616Y-120105780D01*
X94034989Y-120212978D01*
X93985654Y-120332083D01*
X93985652Y-120332088D01*
X93960500Y-120458534D01*
X93186989Y-120458534D01*
X95584940Y-118060583D01*
X95647252Y-118026557D01*
X95718067Y-118031622D01*
X95774903Y-118074169D01*
X95797614Y-118125095D01*
X95807052Y-118172538D01*
X95820652Y-118240911D01*
X95869989Y-118360022D01*
X95906686Y-118414943D01*
X95941616Y-118467219D01*
X95941621Y-118467225D01*
X96032774Y-118558378D01*
X96032780Y-118558383D01*
X96139978Y-118630011D01*
X96259089Y-118679348D01*
X96385537Y-118704500D01*
X96385538Y-118704500D01*
X96514462Y-118704500D01*
X96514463Y-118704500D01*
X96640911Y-118679348D01*
X96760022Y-118630011D01*
X96867220Y-118558383D01*
X96958383Y-118467220D01*
X97030011Y-118360022D01*
X97079348Y-118240911D01*
X97104500Y-118114463D01*
X97104500Y-117985537D01*
X97079348Y-117859089D01*
X97030011Y-117739978D01*
X96958383Y-117632780D01*
X96958378Y-117632774D01*
X96867225Y-117541621D01*
X96867219Y-117541616D01*
X96816369Y-117507639D01*
X96760022Y-117469989D01*
X96640911Y-117420652D01*
X96514465Y-117395500D01*
X96514463Y-117395500D01*
X96385537Y-117395500D01*
X96385534Y-117395500D01*
X96259088Y-117420652D01*
X96259083Y-117420654D01*
X96139978Y-117469989D01*
X96032780Y-117541616D01*
X96032774Y-117541621D01*
X95973595Y-117600801D01*
X95911283Y-117634827D01*
X95840468Y-117629762D01*
X95783632Y-117587215D01*
X95758821Y-117520695D01*
X95758500Y-117511706D01*
X95758500Y-114504094D01*
X95768194Y-114471076D01*
X95777303Y-114437876D01*
X95778172Y-114437094D01*
X95778502Y-114435973D01*
X95804531Y-114413418D01*
X95830121Y-114390433D01*
X95831273Y-114390246D01*
X95832158Y-114389480D01*
X95866246Y-114384578D01*
X95900203Y-114379076D01*
X95901274Y-114379542D01*
G37*
%TD.AperFunction*%
%TA.AperFunction,Conductor*%
G36*
X115001718Y-124962095D02*
G01*
X115049161Y-125014912D01*
X115061500Y-125069292D01*
X115061500Y-125664055D01*
X115041498Y-125732176D01*
X115024595Y-125753150D01*
X114674042Y-126103702D01*
X114672741Y-126098846D01*
X114620080Y-126007634D01*
X114545606Y-125933160D01*
X114454394Y-125880499D01*
X114449535Y-125879197D01*
X114780712Y-125548019D01*
X114704253Y-125496931D01*
X114548942Y-125432599D01*
X114548939Y-125432598D01*
X114402563Y-125403481D01*
X114339653Y-125370573D01*
X114304522Y-125308877D01*
X114308323Y-125237983D01*
X114349849Y-125180397D01*
X114402561Y-125156324D01*
X114563903Y-125124232D01*
X114563906Y-125124230D01*
X114563909Y-125124230D01*
X114728550Y-125056032D01*
X114728549Y-125056032D01*
X114728555Y-125056030D01*
X114865501Y-124964525D01*
X114933251Y-124943312D01*
X115001718Y-124962095D01*
G37*
%TD.AperFunction*%
%TA.AperFunction,Conductor*%
G36*
X111550532Y-114675972D02*
G01*
X111607368Y-114718519D01*
X111632179Y-114785039D01*
X111632500Y-114794028D01*
X111632500Y-121250443D01*
X111612498Y-121318564D01*
X111595595Y-121339538D01*
X107172328Y-125762805D01*
X107110016Y-125796831D01*
X107039201Y-125791766D01*
X106982365Y-125749219D01*
X106957554Y-125682699D01*
X106957233Y-125673710D01*
X106957233Y-125071723D01*
X106977235Y-125003602D01*
X106994133Y-124982633D01*
X108554870Y-123421895D01*
X108554880Y-123421888D01*
X108636270Y-123340498D01*
X108636276Y-123340492D01*
X108663617Y-123293136D01*
X108686499Y-123253503D01*
X108686499Y-123253502D01*
X108686501Y-123253499D01*
X108712500Y-123156470D01*
X108712500Y-119456775D01*
X108686501Y-119359746D01*
X108686499Y-119359743D01*
X108686499Y-119359741D01*
X108636278Y-119272756D01*
X108636274Y-119272751D01*
X108629494Y-119265971D01*
X108565247Y-119201724D01*
X107752405Y-118388882D01*
X107718379Y-118326570D01*
X107715500Y-118299787D01*
X107715500Y-118172538D01*
X107715499Y-118172534D01*
X107690348Y-118046089D01*
X107641011Y-117926978D01*
X107569383Y-117819780D01*
X107569378Y-117819774D01*
X107478225Y-117728621D01*
X107478219Y-117728616D01*
X107442649Y-117704849D01*
X107371022Y-117656989D01*
X107251911Y-117607652D01*
X107203782Y-117598078D01*
X107140873Y-117565171D01*
X107105742Y-117503476D01*
X107109542Y-117432581D01*
X107151068Y-117374995D01*
X107217135Y-117349001D01*
X107228365Y-117348500D01*
X108533100Y-117348500D01*
X108680413Y-117319197D01*
X108819179Y-117261718D01*
X108823425Y-117258881D01*
X108944065Y-117178273D01*
X111417405Y-114704933D01*
X111479717Y-114670908D01*
X111550532Y-114675972D01*
G37*
%TD.AperFunction*%
%TA.AperFunction,Conductor*%
G36*
X103792001Y-112733002D02*
G01*
X103812975Y-112749905D01*
X104420095Y-113357025D01*
X104454121Y-113419337D01*
X104457000Y-113446120D01*
X104457000Y-113867305D01*
X104476077Y-113938500D01*
X104495982Y-114012788D01*
X104546078Y-114099555D01*
X104564089Y-114130752D01*
X104570243Y-114141410D01*
X104571286Y-114143217D01*
X105820777Y-115392708D01*
X105820782Y-115392712D01*
X105820784Y-115392714D01*
X105951216Y-115468019D01*
X106096694Y-115507000D01*
X106096695Y-115507000D01*
X106096696Y-115507000D01*
X107138640Y-115507000D01*
X107138642Y-115507000D01*
X107284121Y-115468019D01*
X107414553Y-115392714D01*
X107521051Y-115286216D01*
X107580555Y-115226712D01*
X107580568Y-115226697D01*
X108670823Y-114136442D01*
X108733133Y-114102418D01*
X108803948Y-114107483D01*
X108860784Y-114150030D01*
X108869030Y-114162531D01*
X108906280Y-114227050D01*
X108906282Y-114227052D01*
X108906285Y-114227056D01*
X109018821Y-114339592D01*
X109018826Y-114339596D01*
X109018828Y-114339598D01*
X109156672Y-114419182D01*
X109253303Y-114445074D01*
X109313924Y-114482025D01*
X109344945Y-114545885D01*
X109336517Y-114616380D01*
X109309785Y-114655875D01*
X108179065Y-115786596D01*
X108116755Y-115820620D01*
X108089972Y-115823500D01*
X100825028Y-115823500D01*
X100756907Y-115803498D01*
X100735933Y-115786595D01*
X99025309Y-114075971D01*
X98991283Y-114013659D01*
X98996348Y-113942844D01*
X99038895Y-113886008D01*
X99089821Y-113863297D01*
X99203202Y-113840745D01*
X99322313Y-113791408D01*
X99429511Y-113719780D01*
X99520674Y-113628617D01*
X99592302Y-113521419D01*
X99605638Y-113489220D01*
X99650185Y-113433941D01*
X99717548Y-113411519D01*
X99786339Y-113429076D01*
X99834718Y-113481037D01*
X99838456Y-113489221D01*
X99861719Y-113545383D01*
X99900326Y-113603162D01*
X99933346Y-113652580D01*
X99933351Y-113652586D01*
X100024504Y-113743739D01*
X100024510Y-113743744D01*
X100131708Y-113815372D01*
X100250819Y-113864709D01*
X100377267Y-113889861D01*
X100377268Y-113889861D01*
X100506192Y-113889861D01*
X100506193Y-113889861D01*
X100632641Y-113864709D01*
X100751752Y-113815372D01*
X100858950Y-113743744D01*
X100858951Y-113743742D01*
X100861805Y-113741836D01*
X100929557Y-113720621D01*
X100998024Y-113739404D01*
X101020902Y-113757506D01*
X101055774Y-113792378D01*
X101055780Y-113792383D01*
X101162978Y-113864011D01*
X101282089Y-113913348D01*
X101408537Y-113938500D01*
X101408538Y-113938500D01*
X101537462Y-113938500D01*
X101537463Y-113938500D01*
X101663911Y-113913348D01*
X101783022Y-113864011D01*
X101890220Y-113792383D01*
X101925097Y-113757506D01*
X101965105Y-113717499D01*
X102027417Y-113683473D01*
X102098232Y-113688538D01*
X102143295Y-113717499D01*
X102179375Y-113753579D01*
X102179381Y-113753584D01*
X102286579Y-113825212D01*
X102405690Y-113874549D01*
X102532138Y-113899701D01*
X102532139Y-113899701D01*
X102661063Y-113899701D01*
X102661064Y-113899701D01*
X102787512Y-113874549D01*
X102906623Y-113825212D01*
X103013821Y-113753584D01*
X103104984Y-113662421D01*
X103176612Y-113555223D01*
X103225949Y-113436112D01*
X103251101Y-113309664D01*
X103251101Y-113180738D01*
X103225949Y-113054290D01*
X103176612Y-112935179D01*
X103159121Y-112909002D01*
X103137906Y-112841249D01*
X103156689Y-112772782D01*
X103209506Y-112725339D01*
X103263886Y-112713000D01*
X103723880Y-112713000D01*
X103792001Y-112733002D01*
G37*
%TD.AperFunction*%
%TD*%
%TA.AperFunction,Conductor*%
%TO.N,GND*%
G36*
X95700121Y-102827002D02*
G01*
X95746614Y-102880658D01*
X95758000Y-102933000D01*
X95758000Y-106744000D01*
X95737998Y-106812121D01*
X95684342Y-106858614D01*
X95632000Y-106870000D01*
X92836000Y-106870000D01*
X92767879Y-106849998D01*
X92721386Y-106796342D01*
X92710000Y-106744000D01*
X92710000Y-102933000D01*
X92730002Y-102864879D01*
X92783658Y-102818386D01*
X92836000Y-102807000D01*
X95632000Y-102807000D01*
X95700121Y-102827002D01*
G37*
%TD.AperFunction*%
%TD*%
M02*
