%TF.GenerationSoftware,KiCad,Pcbnew,9.0.1*%
%TF.CreationDate,2025-05-08T23:40:52+03:00*%
%TF.ProjectId,BLDC_4,424c4443-5f34-42e6-9b69-6361645f7063,A*%
%TF.SameCoordinates,Original*%
%TF.FileFunction,Paste,Bot*%
%TF.FilePolarity,Positive*%
%FSLAX46Y46*%
G04 Gerber Fmt 4.6, Leading zero omitted, Abs format (unit mm)*
G04 Created by KiCad (PCBNEW 9.0.1) date 2025-05-08 23:40:52*
%MOMM*%
%LPD*%
G01*
G04 APERTURE LIST*
G04 Aperture macros list*
%AMRoundRect*
0 Rectangle with rounded corners*
0 $1 Rounding radius*
0 $2 $3 $4 $5 $6 $7 $8 $9 X,Y pos of 4 corners*
0 Add a 4 corners polygon primitive as box body*
4,1,4,$2,$3,$4,$5,$6,$7,$8,$9,$2,$3,0*
0 Add four circle primitives for the rounded corners*
1,1,$1+$1,$2,$3*
1,1,$1+$1,$4,$5*
1,1,$1+$1,$6,$7*
1,1,$1+$1,$8,$9*
0 Add four rect primitives between the rounded corners*
20,1,$1+$1,$2,$3,$4,$5,0*
20,1,$1+$1,$4,$5,$6,$7,0*
20,1,$1+$1,$6,$7,$8,$9,0*
20,1,$1+$1,$8,$9,$2,$3,0*%
%AMRotRect*
0 Rectangle, with rotation*
0 The origin of the aperture is its center*
0 $1 length*
0 $2 width*
0 $3 Rotation angle, in degrees counterclockwise*
0 Add horizontal line*
21,1,$1,$2,0,0,$3*%
G04 Aperture macros list end*
%ADD10R,2.499360X1.950720*%
%ADD11R,5.499100X1.849120*%
%ADD12R,0.797560X0.797560*%
%ADD13R,4.000000X5.000000*%
%ADD14R,2.540000X5.588000*%
%ADD15R,2.540000X0.889000*%
%ADD16R,1.800860X1.198880*%
%ADD17R,2.540000X1.699260*%
%ADD18R,10.800080X8.150860*%
%ADD19R,0.899160X3.200400*%
%ADD20R,1.143000X0.635000*%
%ADD21RotRect,0.635000X1.143000X225.000000*%
%ADD22R,1.524000X2.032000*%
%ADD23R,0.635000X1.143000*%
%ADD24R,2.032000X1.016000*%
%ADD25R,2.032000X3.657600*%
%ADD26R,3.500120X1.800860*%
%ADD27RoundRect,0.250000X1.425000X-0.362500X1.425000X0.362500X-1.425000X0.362500X-1.425000X-0.362500X0*%
%ADD28RoundRect,0.137500X-0.137500X0.587500X-0.137500X-0.587500X0.137500X-0.587500X0.137500X0.587500X0*%
G04 APERTURE END LIST*
D10*
%TO.C,C39*%
X80391000Y-125222000D03*
X80391000Y-122174000D03*
%TD*%
%TO.C,C41*%
X83000000Y-116776000D03*
X83000000Y-119824000D03*
%TD*%
D11*
%TO.C,C44*%
X110490000Y-120431560D03*
X110490000Y-115280440D03*
%TD*%
D12*
%TO.C,D2*%
X111887000Y-123939300D03*
X111887000Y-122440700D03*
%TD*%
%TO.C,D1*%
X110450000Y-123949300D03*
X110450000Y-122450700D03*
%TD*%
%TO.C,D3*%
X109050000Y-123949300D03*
X109050000Y-122450700D03*
%TD*%
D13*
%TO.C,P4*%
X81661000Y-108077000D03*
%TD*%
%TO.C,P5*%
X97536000Y-105664000D03*
%TD*%
D14*
%TO.C,R11*%
X102362000Y-105664000D03*
X107442000Y-105664000D03*
D15*
X102362000Y-109791500D03*
X107442000Y-109791500D03*
%TD*%
D16*
%TO.C,X2*%
X97033080Y-132354320D03*
X100832920Y-134853680D03*
X97033080Y-134853680D03*
X100832920Y-132354320D03*
%TD*%
D14*
%TO.C,R10*%
X87630000Y-105410000D03*
X92710000Y-105410000D03*
D15*
X87630000Y-109537500D03*
X92710000Y-109537500D03*
%TD*%
D17*
%TO.C,D5*%
X112092740Y-133096000D03*
X108633260Y-133096000D03*
%TD*%
D18*
%TO.C,Q6*%
X84836000Y-89984580D03*
D19*
X88646000Y-100586540D03*
X87376000Y-100586540D03*
X86106000Y-100586540D03*
X83566000Y-100586540D03*
X82296000Y-100586540D03*
X81026000Y-100586540D03*
%TD*%
D18*
%TO.C,Q2*%
X110744000Y-89984580D03*
D19*
X114554000Y-100586540D03*
X113284000Y-100586540D03*
X112014000Y-100586540D03*
X109474000Y-100586540D03*
X108204000Y-100586540D03*
X106934000Y-100586540D03*
%TD*%
D18*
%TO.C,Q4*%
X97917000Y-89984580D03*
D19*
X101727000Y-100586540D03*
X100457000Y-100586540D03*
X99187000Y-100586540D03*
X96647000Y-100586540D03*
X95377000Y-100586540D03*
X94107000Y-100586540D03*
%TD*%
D20*
%TO.C,C1*%
X83693000Y-127000000D03*
X83693000Y-128524000D03*
%TD*%
D21*
%TO.C,C2*%
X112552815Y-128747185D03*
X111475185Y-129824815D03*
%TD*%
D20*
%TO.C,C4*%
X81788000Y-133604000D03*
X81788000Y-135128000D03*
%TD*%
%TO.C,C5*%
X92456000Y-132588000D03*
X92456000Y-131064000D03*
%TD*%
%TO.C,C6*%
X90900000Y-132562000D03*
X90900000Y-131038000D03*
%TD*%
%TO.C,C7*%
X86350000Y-132562000D03*
X86350000Y-131038000D03*
%TD*%
D22*
%TO.C,C42*%
X102549000Y-116300000D03*
X105851000Y-116300000D03*
%TD*%
D20*
%TO.C,C20*%
X96012000Y-124079000D03*
X96012000Y-125603000D03*
%TD*%
D23*
%TO.C,C9*%
X96774000Y-130810000D03*
X98298000Y-130810000D03*
%TD*%
D20*
%TO.C,C10*%
X107600000Y-126762000D03*
X107600000Y-125238000D03*
%TD*%
%TO.C,C11*%
X97663000Y-125603000D03*
X97663000Y-124079000D03*
%TD*%
D23*
%TO.C,C22*%
X100203000Y-121285000D03*
X101727000Y-121285000D03*
%TD*%
D20*
%TO.C,C25*%
X105918000Y-123571000D03*
X105918000Y-122047000D03*
%TD*%
%TO.C,C38*%
X85090000Y-123698000D03*
X85090000Y-122174000D03*
%TD*%
D23*
%TO.C,C12*%
X103251000Y-133858000D03*
X104775000Y-133858000D03*
%TD*%
%TO.C,C13*%
X95250000Y-135763000D03*
X93726000Y-135763000D03*
%TD*%
%TO.C,C15*%
X101092000Y-130810000D03*
X99568000Y-130810000D03*
%TD*%
D22*
%TO.C,C43*%
X105537000Y-111760000D03*
X108839000Y-111760000D03*
%TD*%
%TO.C,C29*%
X92329000Y-112268000D03*
X95631000Y-112268000D03*
%TD*%
%TO.C,C30*%
X94488000Y-116205000D03*
X97790000Y-116205000D03*
%TD*%
%TO.C,C31*%
X94488000Y-118618000D03*
X97790000Y-118618000D03*
%TD*%
D20*
%TO.C,C24*%
X107442000Y-123571000D03*
X107442000Y-122047000D03*
%TD*%
%TO.C,R1*%
X85200000Y-125338000D03*
X85200000Y-126862000D03*
%TD*%
%TO.C,R2*%
X85200000Y-129762000D03*
X85200000Y-128238000D03*
%TD*%
%TO.C,R9*%
X106426000Y-131572000D03*
X106426000Y-133096000D03*
%TD*%
D23*
%TO.C,R3*%
X81012000Y-129300000D03*
X79488000Y-129300000D03*
%TD*%
D20*
%TO.C,R14*%
X83312000Y-135128000D03*
X83312000Y-133604000D03*
%TD*%
%TO.C,R20*%
X86360000Y-135128000D03*
X86360000Y-133604000D03*
%TD*%
%TO.C,R19*%
X89408000Y-135128000D03*
X89408000Y-133604000D03*
%TD*%
%TO.C,R18*%
X92456000Y-135128000D03*
X92456000Y-133604000D03*
%TD*%
%TO.C,R15*%
X90932000Y-135128000D03*
X90932000Y-133604000D03*
%TD*%
%TO.C,R16*%
X87884000Y-135128000D03*
X87884000Y-133604000D03*
%TD*%
%TO.C,R17*%
X84836000Y-135128000D03*
X84836000Y-133604000D03*
%TD*%
D23*
%TO.C,R27*%
X93472000Y-121666000D03*
X94996000Y-121666000D03*
%TD*%
D20*
%TO.C,R8*%
X109100000Y-125238000D03*
X109100000Y-126762000D03*
%TD*%
D23*
%TO.C,R33*%
X87503000Y-128524000D03*
X89027000Y-128524000D03*
%TD*%
%TO.C,R34*%
X93462000Y-128050000D03*
X91938000Y-128050000D03*
%TD*%
%TO.C,R35*%
X87503000Y-127000000D03*
X89027000Y-127000000D03*
%TD*%
%TO.C,R36*%
X93462000Y-126550000D03*
X91938000Y-126550000D03*
%TD*%
%TO.C,R40*%
X114808000Y-103124000D03*
X113284000Y-103124000D03*
%TD*%
D20*
%TO.C,R41*%
X104394000Y-96901000D03*
X104394000Y-95377000D03*
%TD*%
D23*
%TO.C,R37*%
X87488000Y-125450000D03*
X89012000Y-125450000D03*
%TD*%
%TO.C,R38*%
X93462000Y-125050000D03*
X91938000Y-125050000D03*
%TD*%
D20*
%TO.C,R43*%
X104394000Y-100584000D03*
X104394000Y-102108000D03*
%TD*%
%TO.C,R44*%
X104394000Y-98044000D03*
X104394000Y-99568000D03*
%TD*%
%TO.C,R7*%
X112100000Y-125238000D03*
X112100000Y-126762000D03*
%TD*%
%TO.C,R6*%
X110600000Y-125238000D03*
X110600000Y-126762000D03*
%TD*%
%TO.C,R46*%
X91186000Y-100076000D03*
X91186000Y-101600000D03*
%TD*%
%TO.C,R47*%
X91186000Y-97282000D03*
X91186000Y-98806000D03*
%TD*%
D23*
%TO.C,R13*%
X83312000Y-132334000D03*
X81788000Y-132334000D03*
%TD*%
D24*
%TO.C,U4*%
X85598000Y-120650000D03*
X85598000Y-118364000D03*
D25*
X92202000Y-118364000D03*
D24*
X85598000Y-116078000D03*
%TD*%
D26*
%TO.C,D4*%
X84495640Y-113030000D03*
X89494360Y-113030000D03*
%TD*%
D23*
%TO.C,C21*%
X100203000Y-119888000D03*
X101727000Y-119888000D03*
%TD*%
D20*
%TO.C,R65*%
X106301900Y-145127900D03*
X106301900Y-146651900D03*
%TD*%
%TO.C,R64*%
X104421900Y-145177900D03*
X104421900Y-146701900D03*
%TD*%
D27*
%TO.C,R68*%
X91851900Y-148852900D03*
X91851900Y-142927900D03*
%TD*%
D20*
%TO.C,R62*%
X100701900Y-145127900D03*
X100701900Y-146651900D03*
%TD*%
%TO.C,R61*%
X98951900Y-145127900D03*
X98951900Y-146651900D03*
%TD*%
%TO.C,R63*%
X102501900Y-145177900D03*
X102501900Y-146701900D03*
%TD*%
D27*
%TO.C,R69*%
X95801900Y-149052900D03*
X95801900Y-143127900D03*
%TD*%
%TO.C,R70*%
X99701900Y-149202900D03*
X99701900Y-143277900D03*
%TD*%
D20*
%TO.C,R56*%
X88351900Y-153027900D03*
X88351900Y-154551900D03*
%TD*%
%TO.C,R57*%
X96901900Y-146351900D03*
X96901900Y-144827900D03*
%TD*%
%TO.C,R60*%
X92401900Y-153127900D03*
X92401900Y-154651900D03*
%TD*%
%TO.C,R59*%
X94251900Y-153165900D03*
X94251900Y-154689900D03*
%TD*%
D28*
%TO.C,U12*%
X104361900Y-151027900D03*
X106901900Y-151027900D03*
X106901900Y-156527900D03*
X104361900Y-156527900D03*
%TD*%
D20*
%TO.C,R58*%
X90651900Y-153115900D03*
X90651900Y-154639900D03*
%TD*%
D27*
%TO.C,R67*%
X87901900Y-148802900D03*
X87901900Y-142877900D03*
%TD*%
D20*
%TO.C,R55*%
X92401900Y-145177900D03*
X92401900Y-146701900D03*
%TD*%
D27*
%TO.C,R71*%
X103501900Y-149202900D03*
X103501900Y-143277900D03*
%TD*%
D28*
%TO.C,U11*%
X99011900Y-150927900D03*
X101551900Y-150927900D03*
X101551900Y-156427900D03*
X99011900Y-156427900D03*
%TD*%
M02*
